<?xml version="1.0" standalone="no"?>
<!DOCTYPE svg PUBLIC "-//W3C//DTD SVG 1.1//EN" "http://www.w3.org/Graphics/SVG/1.1/DTD/svg11.dtd" >
<svg xmlns="http://www.w3.org/2000/svg" xmlns:xlink="http://www.w3.org/1999/xlink" version="1.1">
<metadata>
Created by FontForge 20201107 at Sun May 30 23:26:33 2021
 By 
Copyright (c) 2021 by Fargun Studio. All rights reserved.
</metadata>
<defs>
<font id="BetterRouge" horiz-adv-x="441" >
  <font-face 
    font-family="Better Rouge"
    font-weight="400"
    font-stretch="normal"
    units-per-em="1000"
    panose-1="2 0 0 0 0 0 0 0 0 0"
    ascent="800"
    descent="-200"
    x-height="325"
    cap-height="590.5"
    bbox="-231.333 -349.2 1296.86 897"
    underline-thickness="50"
    underline-position="-100"
    unicode-range="U+0020-FB00"
  />
<missing-glyph horiz-adv-x="136" 
 />
    <glyph glyph-name="a_n" unicode="an" horiz-adv-x="698" 
d="M9 100q6 3 9 5.5t7 6.5q4 5 21 21.5t36 34.5t34 32.5t16 17.5q1 9 -0.5 18.5t-5.5 17.5t-10.5 12t-16.5 1q-14 -5 -22.5 -19t-18.5 -25q-8 -9 -11 -15t-4.5 -12.5t-3.5 -14.5t-7 -19q-4 -11 -14 -26.5t-9 -35.5zM155 49q5 1 11 6t12 11t10.5 11.5t6.5 8.5l57 95
q7 13 13.5 24t13.5 22q5 8 7 12t8 11q6 8 14 22.5t15.5 29.5l14 28t11.5 18q8 9 8 12t5 12q7 12 14.5 22t15.5 23l29 47q7 10 17 13.5t18 -0.5t10.5 -15.5t-6.5 -30.5l-48 -140q-3 -16 -7.5 -30t-9.5 -29q-3 -9 -4 -9.5l-1 -0.5l-1 -2.5t-4 -14.5q-2 -6 -3.5 -8t-3 -3.5
t-3 -5t-2.5 -12.5q-2 -16 -4 -21.5t-4 -9t-4 -8t-3 -19.5l4 3q9 11 29 42t45 64t50.5 60t46.5 32q22 0 31.5 -16.5t9.5 -37.5q0 -6 -2.5 -12.5t-3.5 -15.5q-1 -6 -1 -13.5t-1 -15.5q-2 -17 -6 -29.5t-4 -27.5q0 -14 -2 -23t-4.5 -17t-4 -18.5t-0.5 -27.5q18 7 27.5 19.5
t18.5 21.5l82 86q5 5 13 12.5t16 13t15 7.5t11 -3q4 -6 -9.5 -24.5t-33 -39.5t-38.5 -40t-24 -25q-12 -14 -29.5 -31t-29.5 -27t-23 -10t-19.5 6.5t-13.5 17.5t-5 25l16 120q7 28 9.5 35t2.5 9t-1 7.5t1 29.5q-11 -5 -21 -14.5t-18 -21t-15 -21.5t-13 -14q-3 -2 -15 -19.5
t-25.5 -38.5t-25.5 -40t-16 -24l-39 -62q-5 -8 -9.5 -17.5t-9.5 -18t-10.5 -15t-12.5 -7.5q-9 1 -13 1.5t-8 7.5q-2 2 -4 9t-2 9q-4 21 -4 41.5t7 39.5q0 2 1.5 5t3.5 8q2 4 5 11q1 5 0 7t-1.5 4.5t0.5 6t4 12.5l29 79q2 13 4.5 15.5t5.5 9.5q3 5 3.5 12t3.5 15l-48 -75
q-6 -9 -20 -30.5t-30.5 -45t-30.5 -43.5t-20 -25q-9 -9 -20 -14t-20.5 -3t-15.5 11t-6 29q0 24 2 37t4 22t4.5 16.5t3.5 20.5l-100 -92q-25 -22 -43.5 -27.5t-30.5 -1t-18 16.5t-7.5 26t0.5 26.5t8 18.5q8 11 8.5 16t5.5 18q8 17 14 33t20 28q8 6 11.5 11t9.5 16
q5 9 14.5 19t21 18.5t24 14t24.5 5.5q18 0 28 -8.5t15 -20t6 -22.5t2 -16q7 4 11 8t8 7t10 5t17 1q4 -11 3.5 -17t-3 -10.5t-6.5 -9.5t-8 -14q-5 -9 -7.5 -19.5t-5.5 -21.5q-5 -19 -8.5 -33t-5.5 -26.5t-2.5 -25t0.5 -29.5z" />
    <glyph glyph-name="e_n" unicode="en" horiz-adv-x="711" 
d="M13 79q7 -1 20 6t26 16t23.5 18t12.5 12l90 97q12 14 23.5 30.5t24.5 30.5q12 14 24.5 29.5t21.5 31.5q7 12 13 16.5t11 13.5l22 32q3 4 8.5 11.5t13 16t16.5 15t19 8.5q27 4 37 -14t-6 -37q0 -9 0.5 -13t0 -6.5t-2 -6t-5.5 -10.5q-3 -6 -4 -14t-4 -16l-47 -106
q-5 -9 -6 -15.5t-2.5 -12t-4.5 -11.5t-11 -13q-1 -24 -3 -30.5t-4 -8.5t-3.5 -4t-1.5 -17q18 20 28.5 33t20 24.5t23 24t38.5 32.5q9 7 22 15.5t26.5 14t27.5 4.5t26 -11q7 -7 12 -9.5t8 -5.5t5 -9t4 -20q3 -16 4 -36.5t2.5 -39.5t5.5 -33t13 -16q14 -3 33 12.5t38 37t35 42
t24 26.5q6 5 11.5 5t9 -3t3.5 -9t-7 -14q-38 -49 -65 -79t-47 -44.5t-34 -16.5t-27 5q-26 13 -32.5 35t-7 46.5t-1.5 49t-16 43.5q-12 0 -24 -6t-21 -12l-33 -27q-7 -8 -16.5 -15t-17.5 -15q-8 -7 -14.5 -15t-13.5 -17l-28 -36q-6 -7 -12 -17.5t-12 -18.5q-18 -25 -21 -36.5
t-2 -18.5t1 -12t-12 -17q-7 0 -9.5 0.5t-3.5 1t-1.5 2t-3.5 3.5q-6 4 -7.5 3t-8.5 2q-6 4 -9 15t-3.5 24t0 24.5t1.5 17.5l32 108q3 18 4.5 22.5t2.5 4.5t2 -0.5t4 7.5q3 9 4.5 20t4.5 20q2 6 3.5 8t3 4.5t2.5 6.5t1 14q-11 -4 -13.5 -11t-10.5 -15l-35 -38q-4 -3 -11 -13.5
t-21 -24.5q-5 -4 -11.5 -10.5t-14 -13.5t-14 -14t-9.5 -12q-7 -10 -11 -12t-15 -10q-8 -6 -12.5 -12t-11.5 -12q-10 -9 -27.5 -21t-36.5 -19.5t-37.5 -7t-30.5 15.5q-11 14 -13.5 38t2.5 46q2 6 4 9t4 8q2 4 2.5 8t2.5 10l36 61q9 12 15 21.5t12.5 18.5t15 18t23.5 20
q31 23 54 28.5t37 -1t18.5 -23.5t-2.5 -38.5t-25.5 -46.5t-50.5 -48q-10 -8 -18.5 -11t-17 -5t-16.5 -4t-18 -6q-13 -5 -14 -11t-3 -20q-2 -11 -5 -18.5t1 -21.5zM46 191q18 0 29 3t19 8.5t15 12.5l16 16q7 6 14.5 13t12.5 17q4 8 7 20t0.5 20t-12.5 8t-31 -15
q-11 -8 -15 -14.5t-13 -15.5q-11 -11 -24 -32t-18 -41z" />
    <glyph glyph-name="e_m" unicode="em" horiz-adv-x="840" 
d="M164 -42q8 16 19 39.5t22.5 48t22.5 47t20 35.5l95 156q8 14 15 28.5t16 26.5l76 93q34 36 54.5 37.5t30.5 -16t11 -44.5t-4 -47q-5 -18 -7.5 -24t-4 -10.5t-2.5 -11t-2 -24.5q0 -8 -4.5 -13.5t-6.5 -16.5l-38 -175q11 8 13.5 14l7.5 18q9 18 23 32.5t19 25.5
q3 8 10.5 19.5t16 24t17.5 24t15 19.5q8 11 24 24t37 10q9 -11 12.5 -24t5.5 -30q1 -9 -0.5 -23t-2 -30.5t1.5 -33.5t11 -31q8 -11 23 -12t26 2q12 3 25.5 14.5t27 26t26.5 30.5t26 29q3 3 8 3.5t9 -2t5 -7t-4 -12.5q-7 -10 -18.5 -25t-26 -31t-31 -32t-32.5 -29
q-29 -22 -56.5 -21.5t-51.5 29.5q-11 12 -14.5 30.5t-4.5 36.5t-0.5 33.5t-1.5 21.5q-3 -4 -6 -6t-7 -7q-2 -2 -5.5 -7t-5.5 -10q-8 -13 -12 -17.5t-14 -14.5l-34 -51q-5 -6 -14 -24.5t-20.5 -37.5t-25.5 -33.5t-29 -12.5q-24 3 -31 23q-5 19 -3.5 45.5t7 54.5t12 54
t10.5 43q3 13 4.5 21.5t3 17.5t4.5 21t9 34q5 14 6 22.5t4 25.5q2 9 5 20t5 21q-5 -1 -12 -7t-15 -14t-15 -16t-11 -13q-6 -7 -11 -14.5t-12 -16.5q-8 -12 -11.5 -16t-5 -5t-2.5 -1.5t-4 -4.5q-5 -8 -9.5 -17t-9.5 -18q-7 -10 -15.5 -22.5t-17.5 -25.5t-16.5 -25.5
t-12.5 -21.5t-9 -18t-9 -17l-21 -31q-6 -10 -10 -18t-9 -17q-9 -15 -22.5 -38t-27 -47t-24.5 -46.5t-14 -37.5q7 -8 10.5 -12.5t-3.5 -17.5q-2 -2 -10 -3.5t-17.5 1.5t-17.5 13t-10 31q0 9 1.5 26.5t4.5 36.5t6 35t5 22l15 40q2 5 2 10t2 11q1 4 2 5t2.5 3t3.5 8.5t7 22.5
q3 10 7 20t6 18q-11 -5 -18.5 -17.5t-18.5 -21.5q-4 -3 -5.5 -4t-4.5 -5q-8 -9 -12 -12l-6 -4.5t-4.5 -2.5t-6.5 -6q-10 -12 -28.5 -25t-38.5 -20t-39.5 -2.5t-31.5 27.5t-3 60t29.5 73.5t46 66.5t46.5 39q22 10 37 8t17.5 -14.5t-9.5 -35t-42 -53.5q-18 -18 -30.5 -26.5
t-21 -14t-14.5 -11t-10 -18.5q-7 -17 -7 -31t2 -34q9 0 13 0.5t6 1t4.5 2.5l7.5 6q6 5 11 6.5t11 6.5q6 4 16.5 12.5t21.5 18.5t21 19.5t15 15.5l68 75q8 9 14.5 19.5t15.5 20.5q10 13 13 16.5t3.5 5t1.5 5t8 17.5q3 6 11 19.5t16.5 27t16.5 25t13 14.5q15 8 26.5 2.5
t8.5 -25.5q-1 -4 -7 -16t-13.5 -26.5t-15 -28.5t-11.5 -21q-6 -12 -13 -22.5t-13 -21.5q-7 -11 -10.5 -18.5t-5 -12.5t-3 -9t-3.5 -8l-33 -72q-5 -12 -7 -12.5t-7 -9.5q0 -15 -8.5 -36.5t-13.5 -36.5q-4 -14 -10 -36t-8 -37zM40 197q13 4 21 11t15 14q3 3 7.5 9t8.5 12.5
t6.5 13t1.5 11.5q-3 1 -12.5 -8t-19 -21.5t-18 -24.5t-10.5 -17z" />
    <glyph glyph-name="i_n" unicode="in" horiz-adv-x="551" 
d="M11 89q21 5 31.5 18.5t21.5 25.5l43 53q6 8 9.5 14.5t8.5 14.5l87 130q5 6 4 8t3 7q2 5 8.5 12.5t11.5 15.5l12.5 20t15.5 24t16.5 23t14.5 17q7 6 16 9t16.5 2t12.5 -7.5t5 -19.5t-8.5 -38t-19.5 -52.5t-21 -54t-14 -42.5q-2 -9 -6 -21.5t-9 -26t-9.5 -25t-8.5 -18.5
q-6 -11 -7.5 -15.5t-1.5 -8v-8t-2 -14.5t-3 -11.5t-2.5 -3t-3.5 -7t-6 -22.5q8 2 8 3t3 9q5 12 12.5 22t13.5 20l33 55l19 26q5 6 9.5 12t10.5 13l21.5 21.5t30.5 13.5t24.5 -9.5t10.5 -25.5t2.5 -36.5t-0.5 -42t2.5 -43t11.5 -38.5q19 0 25 9t17 21q13 15 22.5 27.5
t17 23.5t14.5 21.5t17 23.5q8 9 13 3.5t1 -16.5q-12 -29 -36 -58t-41 -55q-6 -9 -17 -18.5t-26 -9.5q-24 0 -34.5 20.5t-15 49t-5.5 59.5t-5 51q-14 -8 -28 -26t-26 -33q-9 -11 -12 -15t-4 -6.5t-2 -4.5t-5 -8l-47 -64q-3 -5 -5 -9t-5 -9l-11 -15l-45 -62h-31q-5 9 -10.5 18
t-9.5 17l2 29q-2 19 5.5 46.5t18 57.5t22.5 58t20 48q3 8 7 16.5t6 17.5l-156 -196q-8 -9 -18.5 -21.5t-23 -20t-25 -7.5t-24.5 15q-13 17 -8.5 49.5t17.5 68t29.5 68t26.5 49.5l35 57l18 -2q1 -6 -1.5 -14t-6 -17t-8 -17.5t-7.5 -14.5q-8 -20 -19 -46.5t-20.5 -55
t-16 -55.5t-6.5 -47zM120 393q-10 0 -15.5 8.5t-3.5 19.5q1 9 7 16t11 12q23 0 32 -9t7 -19.5t-12.5 -19t-25.5 -8.5z" />
    <glyph glyph-name="i_t" unicode="it" horiz-adv-x="337" 
d="M266 469q5 8 7.5 10t8.5 11q8 14 15.5 18t12.5 2q6 -2 11 -9l-2 -20q10 3 15 4t8.5 1h8.5h16q4 0 4 1t1.5 1.5t7 1t19.5 0.5q18 -1 28 0t19.5 1t22 -2t35.5 -9l4 -24q-2 -2 -2 -2.5t-4 -2.5l-15 -3q-19 0 -28 0.5t-16.5 0.5t-18.5 -1.5t-33 -5.5q-12 -2 -24 -6t-20 -5
q-12 -2 -24 -3t-23 -4q-10 -2 -16.5 -9.5t-11 -17t-7.5 -20t-7 -19.5q-5 -10 -9 -18.5t-8 -18.5q-3 -11 -4.5 -21t-4.5 -21q-7 -23 -11 -31t-6 -13t-3.5 -12t-4.5 -27q-2 -11 -6 -22t-6 -20l-30 -130l-7 -73l-2 -23q7 4 20 21.5t28.5 42.5t33.5 55t36 60.5t34 58.5t29 48
q6 9 12 6.5t2 -13.5q-6 -17 -19.5 -47.5t-32 -67t-40 -74t-42.5 -68t-40 -50t-33 -19.5q-11 0 -18 8t-11.5 20t-7 25.5t-3.5 23.5q-1 8 0.5 10.5t0.5 13.5q0 6 0.5 15t2 19l3 20t2.5 18q2 13 4 26.5t4 25.5q2 15 5 24.5t6 22.5q2 5 2 12t3 12q1 4 2.5 5t2.5 2t2 3.5t2 8.5
q2 14 6.5 23.5t6.5 19.5q-36 -48 -67.5 -98t-64.5 -99q-9 -14 -15 -21.5t-11.5 -12t-13.5 -7t-21 -5.5q-16 10 -20 28t-1 38.5t9 39.5t9 33l38 82q3 8 5.5 12.5t5 8.5t5 7.5t7.5 9.5q6 9 12.5 19.5t13 18.5t14.5 12.5t19 0.5q1 -10 -1 -18t-5 -16t-6 -11.5t-5 -5.5
q-3 -2 -6 -2q-1 2 -7.5 -10.5t-14 -32t-14.5 -42t-8 -39.5q-2 -12 -4 -13.5t-5 -9.5q-2 -5 -2 -13.5t-2 -13.5t-3 -7t-2.5 -3.5t-2.5 -4t-1 -9.5q4 2 5.5 2h1.5l0.5 1.5t3.5 5.5l8 11q4 5 7.5 10t6.5 11q5 11 7.5 13t7.5 10q4 6 6 12t6 11l173 266q-15 -3 -36.5 -9t-44 -11
t-42.5 -6t-33 7q-1 12 1.5 14.5t12.5 6.5l96 41q8 3 14 3t15 2q8 2 12 4.5t8.5 4.5t12 3t23.5 1zM110 355q5 -15 -7 -24.5t-22 -1.5q-5 4 -5.5 10.5t3.5 11.5t12 7t19 -3z" />
    <glyph glyph-name="t_t" unicode="tt" horiz-adv-x="331" 
d="M137 466q-4 -15 -10.5 -28t-11.5 -27q-4 -10 -13 -35.5t-18.5 -54.5t-17.5 -55t-9 -35q-3 -18 -7.5 -30.5t-8.5 -29.5q-12 -50 -23.5 -103t-11.5 -104q6 4 12 11.5t12 16.5t11 17.5t9 14.5l10 16t9 16q7 11 9 18t7 18l61 116q4 6 6 7.5t5 7.5q9 22 15.5 35.5t17.5 33.5
q13 23 27.5 49t25.5 51q4 9 8.5 15.5t9.5 16.5q8 17 18.5 34.5t14.5 36.5q-9 -2 -10 -3t-8 -3q-6 -2 -7 -1.5t-2.5 1t-7 0t-20.5 -4.5q-5 -1 -12.5 -1.5t-19 -2t-28.5 -4.5t-42 -10zM-65 431q0 15 10.5 18t24.5 8l89 33q25 7 36 10t16 6.5t8 10t12 21.5t16 26t14.5 20.5
t16 19t19.5 21.5q12 13 17 7.5t6 -18.5t-1 -28t-4 -20q-2 -3 -2.5 -3t-1.5 -2q-7 8 -6 23t2 26q-6 -5 -13 -17t-14 -25.5t-12.5 -26.5t-7.5 -22q16 3 25.5 5.5t15.5 4.5l10.5 3.5l10.5 3.5q4 1 6 1h3.5t3 -0.5t5.5 0.5q21 5 41.5 9.5t42.5 8.5q6 12 12 19t13 20q5 12 11 22
t16 15q14 5 24 -2.5t8 -23.5q-1 -13 -7.5 -22.5t-8.5 -22.5q15 -3 33.5 -0.5t46.5 2.5q47 0 66.5 -11t22 -25t-7 -26.5t-21.5 -16.5q0 19 -1.5 25t-20.5 8q-7 0 -22 0.5t-31 1t-30 0t-19 -1.5q-7 -2 -7.5 -3.5t-2.5 -2.5t-8 -2t-24 -2q-7 -11 -7 -22t-8 -25l-22 -42
q-5 -11 -5.5 -26t-4.5 -28q-1 -4 -3 -11t-4.5 -14t-5 -13.5t-3.5 -9.5q-8 -17 -9.5 -23.5t-1.5 -9.5v-5t-4 -10l-15 -50q-2 -29 -10.5 -51t-13.5 -48t-8.5 -55t-11.5 -52q-7 -24 -12 -49.5t-11 -51.5q-2 -7 -1.5 -14t-0.5 -15q-2 -8 -3.5 -13t-3.5 -12q-4 -17 -5.5 -42.5
t-4 -50.5t-7.5 -43.5t-14 -20.5q-20 2 -27.5 22t-7.5 41t2.5 32.5t4.5 30.5q1 12 1.5 21t0.5 18.5t1.5 20.5t6.5 26q3 10 2.5 14t0.5 15q3 26 7.5 48.5t9.5 51.5q2 16 5.5 27.5t5.5 25.5q2 15 5.5 25.5t8.5 24.5q3 9 4 15t1.5 11.5t0 12t-0.5 16.5q0 2 3.5 13.5t8 25.5
t9 27.5t5.5 19.5q-6 -6 -9 -12.5t-8 -15.5q-6 -16 -14 -28q-5 -8 -8.5 -12.5t-8.5 -14.5l-119 -219q-5 -10 -7.5 -13.5t-8.5 -11.5q-4 -5 -9.5 -11.5t-12.5 -12t-15 -7.5t-17 3q-18 9 -22.5 35.5t-1.5 58t8.5 62.5t7.5 49q1 13 6 28.5t9 29.5q8 39 24 80t27 82q5 15 10 27
t11 25q5 11 11.5 25.5t8.5 24.5q-18 -2 -38 -6t-37 -8q-6 -1 -17 -3t-22.5 -4t-22 -3.5t-14.5 -0.5z" />
    <glyph glyph-name="m_m" unicode="mm" horiz-adv-x="1273" 
d="M22 82q5 8 11 23.5t13 26.5q14 22 24 50q6 13 14 23t14 22q4 7 5.5 13t6.5 13t7 10t7 11q12 25 28 46.5t33 42.5q19 24 39.5 46t28.5 32q6 8 10 10t9 9q6 8 9.5 11t8.5 9q9 8 20.5 16t22.5 15q7 4 12.5 8t10.5 6.5t11.5 3t16.5 -2.5q20 -7 27.5 -21t6 -33t-9.5 -40.5
t-17.5 -42t-19 -39t-13.5 -30.5q-6 -18 -11 -27t-11 -25l65 66q5 6 7.5 9.5t8.5 9.5q10 11 26 23t30 17q16 1 24 -4t11 -14t2 -21t-2 -25q-3 -20 -8 -44t-10 -43l-18 -87q-5 -24 -8.5 -44t-3.5 -47q9 3 20 11.5t22.5 19.5t21 22t14.5 17q8 10 16 19t18 20q4 5 5 4.5t5 4.5
l24 30q6 7 17.5 17t22.5 20.5t20.5 20.5t11.5 16q7 17 12.5 25t14.5 21q8 11 16 20.5t26 7.5q4 -8 3.5 -15.5t-3.5 -14.5t-7 -14.5t-6 -14.5q-1 -2 -4.5 -10.5t-8 -18.5t-8.5 -18l-5 -10l-17 -25l-33 -89q21 23 38 52t35 51q5 5 7 6t7 9q10 15 17.5 24.5t14.5 18t15 17
t19 20.5q9 10 13 18t14 16q23 20 46 41.5t49 38.5q10 7 21.5 8t21.5 -2.5t16.5 -12.5t6.5 -23q0 -13 -4.5 -31t-11 -37.5t-14.5 -37t-14 -29.5q-5 -8 -5.5 -12.5t-1.5 -8t-3 -7.5t-9 -11q-5 -17 -11 -35.5t-15 -33.5q-9 -14 -15 -32t-8 -36l99 91q10 10 18 15t17 13
q7 6 17.5 13.5t21.5 12t22.5 3t20.5 -14.5q5 -7 7 -23t3.5 -33t4 -31t9.5 -17q12 -3 24.5 0t24 9t21.5 13t18 12q13 8 26.5 18.5t23.5 22.5q9 12 18 14t12.5 -4t-2 -18t-24.5 -27l-15 -14q-12 -12 -32.5 -26.5t-44 -24t-46 -11t-37.5 12.5q-6 5 -9.5 17.5t-5.5 27.5t-3 29.5
t-2 24.5q-13 -1 -24.5 -7.5t-22 -16t-20 -19t-18.5 -16.5q-12 -9 -27 -26.5t-31.5 -35t-34 -29.5t-35.5 -10q-8 3 -13.5 9t-10.5 13q-3 8 -1 26.5t6.5 39.5t10 40.5t9.5 29.5q7 19 19 36.5t17 35.5q3 11 7 19.5t9 19.5q3 8 6.5 19.5t7.5 19.5q3 6 5.5 9.5t4 6.5t3 7.5
t3.5 13.5l-25 -17q-5 -5 -10 -10.5t-11 -10.5l-42 -37q-5 -4 -10 -10.5t-10 -11.5q-6 -6 -9 -11t-10 -12l-21 -20q-15 -16 -28 -32.5t-30 -30.5q-7 -6 -15.5 -17.5t-17.5 -25t-18.5 -26.5t-16.5 -21q-4 -4 -8.5 -11t-10.5 -13.5t-12 -10t-13 -0.5q-9 9 -9.5 23.5t3.5 30.5
t9 32.5t7 28.5l-15 -13q-4 -5 -4.5 -7t-4.5 -6q-5 -7 -11 -11.5t-13 -12.5q-9 -11 -14.5 -16.5t-10 -9.5t-9.5 -8.5t-12 -11.5q-5 -5 -11.5 -12t-11.5 -12l-12 -14t-13 -12.5t-15.5 -9t-18.5 -2.5q-20 2 -30 15q-6 8 -8 24.5t-2 35t1.5 36.5t3.5 29q2 13 5 17t4 18
q0 9 1.5 13.5t3 7.5t3.5 6t3 11l8 40q5 19 9 38t9 38q-8 -3 -16.5 -9.5t-16.5 -14.5t-15.5 -16.5t-13.5 -14.5q-8 -8 -13.5 -14t-13.5 -16q-7 -8 -12.5 -15.5t-13.5 -15.5l-50 -64q-5 -7 -8.5 -8t-7.5 -6q-3 -4 -4.5 -8t-6.5 -9q-7 -8 -16 -12t-23 -4q-6 12 -9 20t-2.5 16.5
t4.5 20.5t13 34q3 8 9 22.5t8 20.5q3 12 6.5 20t8.5 22l42 79q3 3 8 14.5t10.5 24.5t10 25t6.5 18q-21 -4 -31 -19q-3 -4 -12 -11.5t-14 -10.5q-18 -13 -36.5 -36.5t-35.5 -40.5q-14 -14 -35 -40.5t-42 -56.5t-39.5 -58t-27.5 -45q-8 -17 -17.5 -33t-17.5 -30
q-8 -17 -15.5 -33t-18.5 -31l-18 1q-7 5 -16 19.5t-9 30.5q0 18 2.5 35t2.5 35q0 16 4 29.5t9 26.5t11 26.5t9 28.5q2 9 4 15.5t7 12.5q6 7 7.5 12t6.5 13q8 14 13 22.5t13 24.5q7 14 18.5 27t24.5 21t24.5 10t17.5 -6q3 -9 0 -20t-8 -21.5t-11 -20.5t-9 -18q-2 -4 -2.5 -6
t-2.5 -6q-5 -8 -8 -12.5t-6 -14.5q-5 -18 -9.5 -28.5t-9 -17.5t-9 -13t-8.5 -16q-5 -9 -6.5 -19.5t-6.5 -21.5q-8 -15 -16 -40t-10 -41z" />
    <glyph glyph-name="n_n" unicode="nn" horiz-adv-x="977" 
d="M-39 125q9 7 9.5 8.5t1.5 13.5q1 7 4 11.5t5 12.5q6 18 12 31.5t12 24.5t12 21t12 23q4 8 4.5 12t5.5 12q12 17 19.5 34.5t20.5 33.5q9 12 17.5 20.5t16.5 18.5q2 3 12.5 15.5t23 24.5t25 18.5t18.5 -3.5q5 -8 2 -16.5t-6 -14.5q-4 -8 -4.5 -13.5t-3.5 -13.5
q-7 -17 -19.5 -36t-18.5 -37q-3 -8 -3.5 -13.5t-4.5 -13.5l-30 -59q-3 -6 -2.5 -8t-1.5 -7q-2 -6 -4 -7t-3.5 -2t-3.5 -3t-3 -9q-4 -20 -13.5 -39t-17.5 -39q-2 -5 -4 -12l-4 -14q-5 -14 -13 -23.5t-7 -23.5q11 10 21 25.5t20.5 32.5t21 33.5t21.5 28.5q6 7 9.5 10t9.5 12
q3 6 5 8.5t4 4t4.5 3t6.5 5.5q12 12 20.5 25.5t27.5 31.5q11 12 17.5 15.5t16.5 11.5q8 7 11 10.5t6 6.5t9 7t20 12q13 6 17 11t9.5 7.5t16 1.5t36.5 -8q16 -5 19 -26.5t-1 -47t-10.5 -49.5t-8.5 -33q-3 -12 -8 -23.5t-9.5 -23.5t-7 -25.5t-1.5 -29.5l42 28q32 32 74 61.5
t83 49.5q12 6 15.5 8.5t5 5.5t2 7.5t6.5 15.5q3 5 7 10l8 10l36 63q3 5 5 7l3.5 3.5t3.5 3t4 5.5t3 6.5t3 6.5l40 43q13 8 23.5 0.5t6.5 -21.5q0 -1 -9 -19.5t-20.5 -42t-21 -46t-11.5 -31.5q-2 -11 -8 -24t-11 -23q-5 -9 -7.5 -14t-4 -9.5l-3.5 -10.5t-5 -16q-3 -5 -4.5 -8
t-3 -5.5t-3 -6t-3.5 -10.5q11 7 11.5 11.5t6.5 13.5q3 5 10 11t11 10l43 43q2 3 4 7.5t4 6.5l37 27q8 6 21.5 18.5t28.5 12.5q17 0 27 -4t16 -22l7.5 -22.5t-0.5 -24.5q-2 -12 -2.5 -26t-2.5 -27q-2 -15 -5.5 -30t-3 -27t6.5 -17.5t23 -0.5q20 6 40.5 21t39.5 33t36.5 35.5
t31.5 27.5t21.5 0.5t-8.5 -28.5q-25 -29 -55.5 -63t-58.5 -54q-10 -7 -18 -13t-16.5 -10.5t-18.5 -7t-25 -2.5q-25 0 -41 24t-16 52l7 88q2 8 2.5 15.5t1.5 15.5l-76 -63q-11 -10 -16 -18.5t-15 -17.5q-6 -5 -10 -7.5t-10 -8.5q-9 -9 -21.5 -26t-25.5 -29q-12 -11 -22.5 -27
t-19.5 -34t-15.5 -36.5t-10.5 -34.5q-8 -5 -17 -7t-23 0q-15 19 -10.5 39t9.5 41q2 6 2 8.5v5t1 6t5 10.5q2 3 2.5 5t0.5 5t1.5 8t4.5 14q8 20 12.5 39.5t10.5 39.5q3 11 5.5 14.5t4.5 15.5q-11 -3 -20 -14t-18 -16q-11 -6 -13.5 -7.5t-9.5 -11.5q-5 -8 -13.5 -15t-16.5 -15
t-12.5 -9t-11.5 -8q-5 -5 -6 -7.5t-2 -4t-3.5 -3.5t-9.5 -6q-17 -11 -31.5 -19t-36.5 -8q-10 0 -17.5 5t-12.5 12.5t-8 16t-3 14.5q-1 15 -0.5 23.5t1.5 15t2 14t3 20.5q4 36 17 68.5t17 70.5q-12 -4 -15.5 -10t-15.5 -11q-17 -7 -23 -17.5t-19 -21.5q-5 -4 -7 -4.5t-7 -5.5
t-6 -8t-6 -6q-11 -6 -14 -6t-4.5 -1.5t-5.5 -7.5t-17 -23q-7 -9 -13.5 -12t-12.5 -13t-8.5 -9.5t-7.5 -4.5q-3 -3 -4 -6t-6 -8q-32 -35 -59.5 -71.5t-52.5 -77.5q-5 -7 -5 -12t0.5 -9t-0.5 -7.5t-6 -8.5q-8 -7 -18.5 -8.5t-20 2t-16 11t-7.5 19.5q-1 19 -2.5 31.5t-1.5 23.5
t2.5 24t9.5 33q3 10 6 16t5 12t3.5 13.5t1.5 19.5z" />
    <glyph glyph-name="o_n" unicode="on" horiz-adv-x="761" 
d="M450 244q4 5 6.5 6.5t4.5 2.5t4 1.5t6 3.5q5 2 9 7.5t9 9.5q8 8 23 11q25 8 38.5 0.5t19.5 -20t7 -25.5t2 -16q1 -8 0.5 -26t-2.5 -38t-4.5 -38t-3.5 -27q-5 -32 9.5 -38t41.5 10t63.5 53t77.5 93q5 7 11.5 8t11 -3t5 -11.5t-6.5 -17.5q-9 -13 -30 -41.5t-47.5 -59.5
t-56.5 -58t-56.5 -38t-46.5 1t-28 60q-4 25 -2.5 49t4.5 46.5t5.5 44t0.5 42.5q-18 -2 -27 -12t-20 -18q-11 -9 -21 -16.5t-21 -18.5q-7 -7 -8.5 -11t-8.5 -9q-9 -6 -24.5 -22.5t-31 -35.5t-29.5 -37.5t-20 -28.5q-9 -14 -15 -21.5t-11 -13t-11 -12t-14 -17.5
q-6 -7 -8 -10.5t-7 -12.5q-5 -10 -9 -10.5t-15 1.5q-5 9 -5 18t2.5 17t7 16.5t8.5 16.5q13 26 21.5 49.5t22.5 49.5q6 10 8.5 16t3.5 9t1 4.5t2 3.5q2 3 3 4t2 1.5t2 2t3 7.5q4 14 7 20t5 9t4.5 5.5t5.5 10.5q5 11 6 17t8 16q6 9 9 18t8 14q8 10 10 13t2 4v3t4 11q1 3 6 11
t10.5 17t10 17.5t6.5 13.5q2 6 3.5 9.5t3 6.5t3.5 6.5t5 10.5q4 11 8 15.5t9 14.5q5 9 8 16t5 16q-4 -2 -16 -9.5t-25.5 -17t-25.5 -18.5t-18 -13l-55 -40q-5 -3 -12 -8.5t-15 -11.5t-15.5 -11.5t-13.5 -8.5q-8 -5 -15.5 -7.5t-14.5 -9.5q3 -8 6.5 -14t7.5 -16q2 -7 2 -9.5
t3 -7.5q9 -17 3 -40.5t-14 -42.5q-2 -5 -7 -12.5t-11 -15t-11.5 -13.5t-7.5 -8q-8 -7 -12 -8.5t-11 -11.5q-8 -9 -9.5 -11.5t-12.5 -8.5q-10 -6 -28.5 -21.5t-42 -26.5t-50 -12t-53.5 22q-13 11 -16.5 28t-4.5 38q0 9 1 13t2.5 7t3.5 6t4 9q2 10 3 17.5t4 17.5q2 7 9.5 22.5
t17 32.5t19.5 32t17 22l40 45q6 10 10.5 13.5t8.5 6.5t9.5 7.5t14.5 15.5q6 7 22 18.5t29 16.5q9 3 18 4.5t16.5 0t13 -7t6.5 -16.5q1 -8 0 -17.5t-4.5 -17.5t-9 -14t-14.5 -7q0 5 2.5 13.5t4.5 16.5t1 13.5t-8 4.5l-12 -6q-13 -7 -27.5 -17.5t-19.5 -22.5q8 -5 11.5 -5
t12.5 -4q11 -4 15.5 -6t9 -0.5t13 7t26.5 16.5q28 17 48.5 30.5t43.5 36.5l55 40l18 14t20 12q3 1 12 7.5t20 13t23.5 11t22.5 2t16 -15t5 -38.5q0 -4 -4.5 -16.5t-10.5 -27t-11.5 -27.5t-7.5 -18q-5 -11 -11 -20t-12 -21l-43 -84q-5 -10 -9.5 -19.5t-11.5 -19.5
q-4 -3 -2.5 -0.5t-2.5 -4.5q-1 -1 -1.5 -4.5t-1.5 -5.5l12 14zM23 76q5 -6 9 -9.5t10 -3.5t14.5 4t23.5 13q6 4 8.5 6.5l5 5t6.5 5.5t14 6q2 3 4.5 8.5t4.5 7.5q3 4 6 6t7.5 6t10 12t14.5 24q7 13 12.5 21t9.5 16t5.5 17.5t0.5 26.5q-8 3 -9 5.5t-2.5 4.5t-5.5 5t-16 6
q-10 2 -14.5 5t-7.5 5.5t-6 5.5t-10 5q-8 -7 -17.5 -20.5t-14.5 -24.5q-8 -14 -19 -36.5t-20.5 -47t-16.5 -47.5t-7 -38z" />
    <glyph glyph-name="e_r" unicode="er" horiz-adv-x="500" 
d="M51 235q10 4 23 13.5t23.5 22t17 27.5t3.5 29q-12 -3 -22 -13.5t-18.5 -24t-15.5 -28t-11 -26.5zM29 104q21 2 32 12t21 20q8 8 11.5 12.5t9.5 11.5q4 5 6.5 6.5t6.5 4.5t10.5 10.5t17.5 23.5q25 36 54 75t58 71q20 24 32.5 44t22.5 33t21 18t28 -1q0 -11 -2 -19
t-6 -14.5t-8.5 -14.5t-9.5 -19q-3 -5 -4.5 -9t-3.5 -9q-8 -15 -11.5 -22.5t-5.5 -14t-5 -14.5t-10 -25q-5 -14 -9.5 -21t-8.5 -18l-27 -82q-2 -13 -7 -19.5t-7 -21.5l10 17q11 26 15.5 35t7 13t6 9t12.5 23q5 8 7.5 16t7.5 16q8 14 17.5 31.5t18.5 28.5q6 6 10.5 13t10 13.5
t13.5 10.5t20 4q13 0 21.5 -5.5t15.5 -12.5t14.5 -12.5t18.5 -5.5q13 0 22 3.5t16.5 7t14 5.5t15.5 -2q-2 -12 -10 -16.5t-19 -9.5q-26 -12 -43 -12t-29.5 6t-22.5 13t-20 9q-10 -9 -24 -28.5t-28.5 -41.5t-26 -42.5t-17.5 -32.5q-3 -6 -10 -20.5t-16.5 -34t-19.5 -41
t-18.5 -40t-14 -32t-5.5 -17.5q0 -19 -5 -23.5t-10.5 -0.5t-10.5 11.5t-6 12.5q-2 9 -1.5 22t3 27t5.5 27t5 21l42 140q7 20 11 27.5t5 16.5l-10 -9q-6 -7 -8.5 -10.5t-3 -5.5t-0.5 -4t-3 -6l-13 -15q-3 -5 -6.5 -8.5t-6.5 -7.5q-10 -11 -23 -26t-25.5 -30t-24.5 -28
t-21 -20q-9 -6 -19.5 -15t-22.5 -15.5t-24.5 -8t-24.5 7.5q-19 14 -22.5 33.5t-1.5 48.5q1 10 4 24.5t5 24.5q2 8 4.5 11t4.5 9q4 6 4.5 9t2.5 9q5 10 16.5 29.5t26.5 38.5t32 33.5t32 14.5q23 0 26.5 -20.5t-8 -46t-35.5 -48t-55 -26.5q-5 -21 -9 -31t-6.5 -19t-2.5 -21.5
t4 -38.5z" />
    <glyph glyph-name="s_s" unicode="ss" horiz-adv-x="569" 
d="M0 212q-1 13 -1 23.5t2.5 20.5t9 21t19.5 25q16 19 43 42t57.5 44.5t61 38t54.5 22.5q28 7 49 -9q8 -6 13 -16t1 -26q-5 -17 -14.5 -31t-20.5 -26q-11 -13 -19.5 -22t-16.5 -17.5t-16.5 -16.5t-20.5 -20q-20 -20 -37 -33t-19 -28h-14q-1 9 3 17t10 14.5t12.5 12t10.5 9.5
l85 93q9 14 17 28q5 9 9 14.5t0 19.5q-14 5 -30.5 -0.5t-32.5 -14.5t-28.5 -18t-17.5 -12q-8 -4 -20 -14t-24.5 -21.5t-23.5 -22t-17 -16.5q-37 -36 -40 -53.5t14 -27t46.5 -16t57.5 -21.5q11 -6 18 -12t20 -9l95 68q28 16 41.5 26.5t21 17.5t13 13t16.5 13q6 4 15.5 9.5
t20.5 10.5t22 8t19 3q12 -9 11.5 -17.5t-7.5 -16t-17 -14.5t-16 -12q-10 -8 -15.5 -12.5t-19.5 -9.5q-6 -3 -8 -3.5t-2.5 -1.5l-1 -2t-4.5 -5q-5 -5 -8 -6t-8 -5q0 -8 4.5 -15t10.5 -13.5t12.5 -12.5t10.5 -10l42 -46q14 13 31.5 27.5t34.5 28t32 24t23 13.5q15 6 17 -2
t-9 -16q-21 -16 -50 -44t-63 -56q7 -14 12.5 -33t5.5 -40t-7 -42.5t-23 -39.5q-8 -9 -22.5 -20.5t-32 -20.5t-36 -13t-32.5 2q-20 8 -25.5 24t-2 33.5t12.5 35t18 28.5l91 94q1 6 -9 19t-23.5 27.5t-27 27t-19.5 18.5q-11 -3 -18.5 -8t-14.5 -11l-30 -21l-16 -9q-5 -3 -6 -4
l-1.5 -1.5t-1 -2.5t-3.5 -6q-4 -5 -7.5 -7.5t-6.5 -4t-6 -3.5t-6 -7q-2 -8 -1 -14t2 -13t1 -15t-4 -19l-3.5 -10.5t-5.5 -15.5t-5.5 -14.5t-3.5 -8.5q-3 -5 -6.5 -8.5t-8.5 -11.5l-11 -21l-27 -40q-7 -11 -23 -28t-36 -33.5t-41.5 -29t-39.5 -15.5t-31 6.5t-15 38.5
q-2 26 12 48.5t28 44.5q6 10 18 25t25 30t26.5 29.5t22.5 23.5q6 6 16 15.5t20.5 20l19.5 19.5t11 15l-90 35q-17 6 -33.5 9.5t-30.5 22.5q-6 8 -6 8.5t-7 6.5zM3 -145q11 0 27.5 10t32.5 24.5t30 29.5t21 25q8 12 11.5 14.5t5 2.5t2.5 1t5 10q4 8 9.5 15.5t10.5 15.5
q11 17 18.5 36.5t8.5 40.5q-8 -3 -10 -4.5t-2.5 -3.5t-2.5 -5.5t-11 -10.5q-11 -8 -28.5 -22.5t-25.5 -25.5q-8 -9 -12 -14t-12 -13q-11 -11 -24.5 -26t-25.5 -32t-20 -34.5t-8 -33.5zM335 -79q25 -9 52 4t45 37t22.5 54t-14.5 56q-7 -5 -16.5 -13.5t-19 -17.5t-18 -17.5
t-12.5 -14.5q-6 -8 -14 -17.5t-15 -20.5t-10.5 -23.5t0.5 -26.5z" />
    <glyph glyph-name="f_f" unicode="ff" horiz-adv-x="333" 
d="M60 241q11 1 24.5 12t21.5 18q10 7 15.5 11.5t9.5 8.5l7.5 7.5t10.5 9.5q22 19 30.5 26.5t12 13.5t6.5 16.5t14 35.5q3 8 8.5 23t12 32t13 33t12.5 25q7 11 14 25t16 25.5t21 19.5t29 7q13 -12 17 -21.5t-3 -31.5q-5 -15 -9.5 -28t-11.5 -27l-14.5 -29t-8.5 -14t-8.5 -10
t-13.5 -17l-15 -23q-6 -7 -11 -22.5t-9.5 -33.5t-8 -35.5l-5.5 -27.5q-2 -9 -1.5 -11t1 -3.5t-1 -4t-5.5 -12.5q-2 -6 -2 -8.5t0.5 -4.5t0.5 -5t-3 -9q-1 -1 -3 -10t-4.5 -19t-4 -18.5t-1.5 -9.5q20 5 38.5 15t35.5 19q13 7 24.5 14.5t20.5 12.5t15 5t10 -7q4 -11 -15.5 -26
t-46 -29t-53.5 -25.5t-38 -14.5q1 -7 1.5 -10t2 -5t4 -4.5t5.5 -7.5q12 -19 13.5 -48t-5 -63t-18.5 -70t-26 -70t-27.5 -62.5t-23.5 -47.5l-25 -42q0 1 -6 -2t-11.5 1.5t-8 22.5t3.5 61q3 26 6.5 54.5t8.5 52.5q5 29 5.5 47.5t2.5 35.5q1 7 3 12t3 11q2 8 1 15.5t1 14.5
q2 8 3 10t3 13q2 14 2 24.5t5 24.5q-5 5 -7 5t-7 5q-1 2 -1 11t13 13q7 2 5.5 1t4.5 2q6 10 8.5 21t3 21.5t1.5 21.5t6 22q12 28 14 45t7 35q-20 -13 -39.5 -30t-41.5 -28q-13 -7 -22 -12t-14.5 -10.5t-8.5 -13t-4 -20.5q-2 -12 -3 -14t-3 -12q3 -8 6.5 -13.5t6.5 -11.5
t5 -13.5t4 -18.5q6 -35 -0.5 -77t-18.5 -85t-27 -83.5t-27 -72.5q-15 -41 -24.5 -56.5t-16 -20.5t-10.5 -6t-8 -13q-14 0 -20 4t-8 10.5t-1.5 15.5t0.5 21l20 170l54 223q6 15 7.5 21t-0.5 10t-5 8.5t-6 16.5q1 5 7 11t11 9t6 4.5t3 7.5l5 18q2 6 3.5 11.5t3.5 13.5l17 47
l29 94q5 15 13.5 41.5t21 51.5t28 44t33.5 19q16 -19 11.5 -38.5t-13.5 -42.5q-8 -20 -14.5 -40.5t-14.5 -38.5q-6 -14 -16.5 -34t-20 -41.5t-16.5 -41.5t-7 -33zM-50 -273l2 2l5 11q11 26 25 68t26.5 87t21 85.5t8.5 64.5l-4 59l-34 -138q-1 -7 0 -14.5t-1 -13.5
q-2 -7 -4 -9.5t-4 -13.5l-20 -98q-3 -12 -3 -15v-4.5t-1.5 -6t-7.5 -19.5q-4 -12 -7 -24.5t-5 -24.5zM136 -215q4 6 17 40t25.5 78t20 89t1.5 74q-4 -8 -7 -12t-5 -15l-21 -90q-1 -7 -1 -11t-0.5 -9t-2.5 -12.5t-6 -21.5q-4 -11 -6.5 -15.5t-3.5 -18.5q0 -8 -2 -18.5
t-4.5 -22t-4 -21t-0.5 -14.5zM93 376q5 6 12.5 25t14.5 41t12.5 42.5t5.5 30.5q-5 -4 -9 -12t-7.5 -17.5t-6 -18.5t-4.5 -16q-6 -20 -11 -36t-7 -39zM287 468q5 6 11 15t11.5 20t9 22t3.5 21q-6 -6 -12 -16t-10.5 -21.5t-8 -22.5t-4.5 -18z" />
    <glyph glyph-name=".notdef" horiz-adv-x="136" 
 />
    <glyph glyph-name=".null" horiz-adv-x="0" 
 />
    <glyph glyph-name="nonmarkingreturn" horiz-adv-x="333" 
 />
    <glyph glyph-name="space" unicode=" " horiz-adv-x="136" 
 />
    <glyph glyph-name="exclam" unicode="!" horiz-adv-x="152" 
d="M46 105q-17 2 -22 13.5t-3 30.5q2 14 4.5 28t8.5 26q8 16 7 28t5 26q4 10 6 11.5t4 12.5q4 18 5.5 23.5t2 8t2 5.5t5.5 15q2 7 3 14.5t3 12.5q3 6 3.5 5.5t1 -0.5t1.5 3t4 16l27 57q3 4 4 11l33 69q1 6 9 22.5t18 34.5t19.5 33t14.5 17q16 8 23.5 -1t1.5 -26
q-6 -16 -17.5 -44t-23.5 -58t-21.5 -56t-11.5 -37q-8 -5 -10.5 -8t-3 -6.5t-0.5 -8.5t-3 -13q-4 -11 -7.5 -16.5t-7.5 -19.5q-3 -10 -8 -21.5t-10 -22t-9 -18.5t-5 -12q-2 -9 -2.5 -13.5t-1 -7.5t-2 -7.5t-5.5 -13.5q-9 -20 -13 -38t-7 -32t-7.5 -25t-14.5 -18zM48 26
q3 -17 -1 -32t-12 -24t-18 -9.5t-19 10.5q-9 10 -8 21.5t6 21.5t10.5 16.5t6.5 7.5q3 4 4 6l1.5 3t3 1.5t8.5 1.5q6 -8 6.5 -11.5t11.5 -12.5z" />
    <glyph glyph-name="quotedbl" unicode="&#x22;" horiz-adv-x="225" 
d="M96 513q-3 11 0.5 23t9.5 23t13 21t12 18q5 7 11.5 18t14.5 20t18 13t22 -5q7 -10 -1 -22.5t-22.5 -28.5t-31 -36t-26.5 -45zM171 521q0 8 5 27.5t14.5 38.5t23.5 31t32 5q4 -20 -7.5 -34.5t-20.5 -26.5q-12 -16 -16 -23.5t-5 -12t-1 -9t-3 -14.5q-17 -2 -19.5 2t-2.5 16
z" />
    <glyph glyph-name="numbersign" unicode="#" horiz-adv-x="433" 
d="M275 369q2 8 3 11t1.5 4t2.5 2.5t5 7.5q14 23 23 37.5t30 15.5q5 -18 5 -22.5t-3.5 -7.5t-9 -10.5t-10.5 -31.5q24 5 32 5.5t10.5 -0.5t3 -2.5t9.5 0.5q27 5 39 -1.5t14 -16t-3 -19t-13 -10.5q-8 1 -12 3.5t-8 4t-9 1.5t-15 -3q-16 -5 -28 -6t-21 -2.5t-15.5 -6
t-11.5 -17.5q-3 -8 -6.5 -20.5t-4.5 -22.5q30 3 49.5 -1.5t44.5 -16.5q12 -6 16.5 -16t3 -20.5t-8.5 -18.5t-19 -8q-7 2 -8 7t-13 16q-44 -14 -65 -20t-29.5 -11t-9.5 -12.5t-5 -25.5q-4 -12 -6.5 -16.5t-4.5 -20.5q-2 -12 -3.5 -20t-5.5 -19q-5 -14 -5 -21t-1 -22
q-5 -4 -6 -5.5t-5 -6.5q-23 0 -29 19t-3.5 44.5t9 51t8.5 38.5q-7 0 -11.5 -1t-9.5 -2t-11 -2t-15 -1l-3 -7.5t-2.5 -4t-2.5 -4t-2 -7.5q-1 -9 1 -15t4 -14q-3 -10 -6 -14t-11 -9q-13 1 -19 6.5t-7.5 13.5t-0.5 19l2 22l-42 -18q-11 -5 -21.5 -7.5t-22.5 0.5q-1 14 1 16.5
t10 9.5q6 5 10 10t9 10q8 7 10 9t13 6q13 4 14.5 6.5t9.5 7.5q10 7 15 9.5t8 5.5t4.5 8.5t6.5 19.5q5 13 11 27t8 27q-24 -4 -43.5 -10.5t-39.5 -15.5q0 -1 0.5 -3.5t-0.5 -5t-5 -2.5t-13 5q0 13 4.5 18t14.5 10l59 34q13 6 21 7.5t15.5 6t15.5 15.5t20 35q3 7 6.5 16.5
t8 17t11 12t16.5 2.5q2 -9 0 -18t-5.5 -18.5t-7.5 -19t-5 -18.5q10 2 14.5 4t10 4t14 4t26.5 5zM167 234q21 7 31 9.5t14 4.5t4.5 5t2.5 9l15 30q7 15 5 14t-3 1q-12 -1 -22 -3q-9 -2 -17 -5.5t-11 -9.5q-2 -4 -5 -12t-6 -16.5t-5.5 -16t-2.5 -10.5z" />
    <glyph glyph-name="dollar" unicode="$" horiz-adv-x="446" 
d="M187 248q-5 3 -14.5 6t-20.5 5.5l-22 5t-19 4.5q-48 14 -63.5 42t7.5 73q14 25 35 40.5t42 28.5l87 60q8 5 17.5 8t18.5 6.5t15.5 8.5t9.5 14q2 9 4 19t5 20t7.5 18t12.5 11q13 -10 11 -25.5t-4 -33.5q2 0 13.5 4t27.5 8.5t33 6.5t30.5 -1t20.5 -13.5t2 -32.5
q-2 -10 -9.5 -20.5t-17 -21t-20 -20t-17.5 -15.5q-7 -5 -11 -9t-13 -11l-41 -29q-10 -6 -14 -4q-2 1 -1 2q-1 4 4.5 11.5t13 15t15.5 14.5t14 12q7 5 20 16t25.5 24.5t20.5 27.5t4 25q-10 1 -16 0.5t-10.5 -2t-10.5 -4t-16 -6.5q-16 -6 -20.5 -7.5t-5 -2.5t-1 -1.5
t-7.5 -4.5q-8 -4 -12 -5t-6.5 -3t-4 -6.5l-4.5 -13.5l-47 -211q23 -2 48.5 -9t44.5 -15q10 -5 21.5 -9t21 -10t15.5 -14.5t6 -21.5q0 -18 -1.5 -25t-11.5 -20l-49 -40q-5 -3 -8.5 -4t-6.5 -1.5t-6 -2.5t-8 -7l-7.5 -7.5t-3 -1.5t-5 -1t-13.5 -6t-15.5 -7l-16.5 -6
q-9 -3 -15.5 -7t-14.5 -7q-14 -7 -20 -8.5t-8 -3t-2 -7t-3 -21.5q-2 -7 -3 -12t-2 -12q-3 -23 -3.5 -35.5t-3 -18.5t-8 -7.5t-17.5 -2.5q-5 5 -6.5 7t-3.5 9q-5 16 -3 42t4 44q-10 0 -38 -7.5t-68 -9.5q-29 -2 -48.5 10.5t-18.5 41.5q2 5 4.5 8.5t4.5 8.5q7 21 16.5 31
t18.5 11t15.5 -4.5t6.5 -15.5q0 -9 -2 -12t-4.5 -5t-5 -4.5t-2.5 -9.5q29 7 57.5 10t43.5 12q10 5 15 4.5t14 7.5q1 2 5.5 22.5t9.5 45t8.5 45.5t3.5 24zM93 330q7 -9 20 -14.5t28.5 -9.5t31.5 -7t29 -5q2 11 5.5 23t6.5 23t5.5 22t7.5 22l15 43q3 12 6.5 23.5t6.5 22.5
q-5 -1 -14.5 -6t-20 -12t-20 -14.5t-15.5 -11.5l-62 -53q-9 -7 -10 -9.5t-7 -10.5q-8 -8 -11.5 -10t-1.5 -16zM272 145q6 4 7.5 6t3 3t6.5 1h18q3 10 10.5 14t16 7t17 8.5t15.5 18.5q-6 7 -21 13t-33 10.5t-36 7.5l-30 5l-2 -2q0 -1 -1 -2q-3 -8 -7.5 -23t-8.5 -32t-7 -32
t-4 -22z" />
    <glyph glyph-name="percent" unicode="%" horiz-adv-x="508" 
d="M239 584q9 1 27 5.5t37.5 10t37.5 11t26 8.5q13 6 25 9.5t24.5 7.5t28 10t36.5 16q11 5 17 4.5t15 7.5q8 7 26 13.5t29 0.5q5 -3 9.5 -10.5t6.5 -12.5q2 -10 -1.5 -17l-7.5 -15l-32 -45q-13 -15 -17.5 -26.5t-13.5 -22.5q-5 -8 -8.5 -11t-8.5 -11q-2 -4 -4 -7.5t-5 -6.5
q-5 -5 -6 -4t-5 -4t-5.5 -13.5t-6.5 -14.5q-3 -4 -4.5 -4.5t-2 -1t-1.5 -1t-2 -4.5q-2 -5 -1.5 -7t-3.5 -7q-2 -5 -4.5 -6.5t-4.5 -3t-4.5 -3.5t-5.5 -8t-5 -8.5t-3 -4t-3 -3t-5 -5.5q-5 -5 -7 -12t-6 -15t-12 -17l-16 -18t-15 -17.5t-8 -14.5q-2 -8 -2.5 -11t-1 -4.5t-3 -3
t-7.5 -5.5q-6 -4 -7 -5.5t-1 -3t-1.5 -5t-8.5 -10.5l-19 -21q-5 -5 -8 -10t-6.5 -10.5t-8.5 -10.5t-14 -9q-3 -11 -5.5 -17.5t-7.5 -15.5q-5 -2 -6.5 -2.5t-2 -1t-1 -2.5t-3.5 -6q-7 -8 -7.5 -6.5t-4.5 -4.5q-3 -4 -2 -4.5l1 -0.5l-1.5 -1t-8.5 -7q-5 -5 -5 -7t-4 -6
q-3 -4 -7 -5.5t-7.5 -3t-7 -4t-6.5 -8.5q-5 -11 -6.5 -16.5t-2.5 -8t-2 -3.5t-5 -3q-5 -3 -6.5 -3h-2t-1.5 -1.5l-5 -7.5l-29 -42q-7 -8 -11.5 -13t-11.5 -12q-5 -5 -7.5 -6.5t-3.5 -3.5l-2.5 -5t-4.5 -10q-5 -2 -9 -3.5t-7 -5.5l-31 -33q-11 -8 -19 -10t-14 0.5t-11.5 7.5
t-11.5 12q-1 15 4.5 28t9.5 27q2 8 7 13.5t13 22.5q3 5 4 6l2 2t3 2.5t6 8.5t6.5 10t5 5.5t5 5.5t6.5 9q6 9 6.5 10.5t9.5 7.5q7 6 8.5 9t6.5 9l30 40q13 13 18.5 21.5t8.5 15.5t5.5 13.5t8.5 14.5q13 15 18.5 24t9.5 15t8 9t13 6l5 21l35 35q10 18 17 26t12 12.5t10.5 9
t13.5 15.5q6 9 8 17.5t10 13.5q3 2 4.5 2.5t2.5 0.5t2 1t3 6q10 16 17 23t12.5 11.5t9.5 10.5t7 21q14 4 17.5 9t11.5 14q7 8 9 14.5t13 14.5q5 4 7.5 7t4.5 6t4.5 6.5t7.5 8.5l21 28q-25 -4 -44 -12.5t-41 -15.5q-20 -6 -42.5 -11.5t-41.5 -12.5q2 -11 4 -12t8 -8
q1 -18 0.5 -28t-3.5 -17.5t-8.5 -13l-14.5 -14.5q-14 -16 -24 -26t-29 -21l-60 -40q-17 -8 -38.5 -11t-39.5 5q-15 9 -18 23t1.5 31t14.5 34.5t21 33.5t20.5 29t14.5 21q-4 9 -6 17t7 19q7 9 12.5 11t12 3t15 4t23.5 15q8 5 15 9t21 3l3 -7.5t1 -5t-1 -5.5zM308 148
q11 4 21.5 2.5t19.5 -6t16.5 -10.5t12.5 -11q18 -19 14.5 -41.5t-16.5 -43.5t-30 -36.5t-25 -19.5q-5 -3 -20.5 -13.5t-34.5 -18.5t-38.5 -8t-32.5 18q-5 7 -5.5 18.5t2.5 23.5t7 23t8 17l56 73q10 8 11.5 12t3 7t7 5.5t23.5 8.5zM112 393q22 1 48 15.5t48.5 32.5t37.5 34.5
t15 22.5q-1 6 -9 11.5t-18.5 9.5t-21.5 5t-18 0q-6 -1 -20 -18t-28.5 -39t-24.5 -43t-9 -31zM303 96q-6 -4 -18.5 -19.5t-25.5 -34t-21 -36.5t-5 -27q15 -2 27.5 5.5l22.5 13.5q12 8 29 23t29 31.5t13.5 32.5t-19.5 26q-9 -5 -13 -10.5t-6 -11t-6 -10.5t-13 -8z" />
    <glyph glyph-name="ampersand" unicode="&#x26;" horiz-adv-x="473" 
d="M295 280q-1 0 -28 -8t-62.5 -17t-71.5 -16.5t-56 -5.5q-16 1 -26.5 8.5t-15 18.5t-3.5 24t8 25l13 22q5 5 8.5 7t9.5 8q8 8 16.5 17t16.5 16l93 60q8 7 13.5 10.5t10.5 6.5t11 6l16 8q7 4 9.5 9t4 12.5t4 19.5t9.5 31l10 30t6 16.5t7.5 17t16.5 30.5q6 11 13.5 20.5
t25.5 6.5q4 -10 2.5 -20.5t-6.5 -21t-11 -20.5t-10 -20q-9 -21 -16.5 -42t-16.5 -41q13 5 40 17t56.5 23.5t57 19t42.5 3.5q10 -3 15 -10t5 -15t-3 -16t-7 -14q-5 -6 -19.5 -17.5t-35 -26t-45 -29.5t-47.5 -26.5t-43.5 -18t-32.5 -3.5l-1.5 6t1.5 3t7.5 2.5t17.5 5.5
q18 5 46.5 19.5t56 33.5t49.5 39t27 37q-18 0 -44.5 -10t-54 -24.5t-53 -30.5t-43.5 -26q0 -4 2.5 -10t3.5 -12t-0.5 -10t-8.5 -4q-7 1 -12 6t-12 8l-87 -61q-11 -8 -16.5 -13t-9 -9t-6.5 -7t-8 -7q-8 -6 -20.5 -16.5t-12.5 -21.5q11 -1 39 5t59 14t59.5 16.5t41.5 13.5
q6 2 16 3.5t20.5 2.5t21 1t17.5 -1q11 -10 12.5 -26t-15.5 -26l-68 -53q-6 -5 -9.5 -9t-10.5 -9l-45 -35q-7 -6 -11.5 -10.5l-9 -9t-10 -9t-13.5 -9.5q-9 -6 -12 -8.5t-3.5 -4l-1 -3t-4.5 -5.5q-5 -5 -10 -7.5t-11 -8.5q-5 -5 -6.5 -7t-2.5 -4t-3.5 -4t-8.5 -6
q-8 -5 -17 -12t-17.5 -14.5t-16 -15.5t-10.5 -14q23 6 46.5 20t46.5 23q34 13 49 22.5t20.5 16t6 10.5t6.5 6q7 0 10 -1t5.5 -2.5t5 -2t7.5 1.5q6 2 12.5 6.5t12.5 7.5l49 24q4 2 15.5 8t24 12t23.5 11t14 4q7 -3 8.5 -10t2.5 -14q-8 -9 -27.5 -20t-31.5 -19
q-33 -21 -54.5 -31.5t-35.5 -17t-22.5 -11t-14 -13t-10 -24t-11.5 -42.5l-26 -120q-6 -7 -16.5 -5t-10.5 16q-1 16 3.5 39t10 45.5t11 43t6.5 32.5q-11 -2 -22 -8.5t-19 -11.5q-13 -8 -20 -11.5t-20 -8.5q-20 -8 -43 -19.5t-44 -12.5q-4 -3 -5 -4t-1.5 -2t-2 -1.5t-5.5 -2.5
q-26 -9 -40 -3t-18 19t0 29t15 27q8 8 10.5 14.5t8.5 13.5q4 4 5.5 5t3 1.5t5 4t11.5 12.5q1 2 7 6.5t14 10t16 12t14 12.5l53 42q12 7 16 8t14 10q19 18 39 30t41 27q8 5 14.5 9.5t13.5 9.5q8 5 15 8.5t12 9.5z" />
    <glyph glyph-name="quotesingle" unicode="'" horiz-adv-x="176" 
d="M76 488q-1 12 2.5 26.5t9.5 28.5t13 25.5t13 19.5q6 7 12.5 18.5t15.5 20.5t20 12.5t25 -6.5q3 -17 -3 -26.5t-14 -17.5q-9 -8 -14.5 -15t-13.5 -18l-50 -72l-16 4v0z" />
    <glyph glyph-name="parenleft" unicode="(" horiz-adv-x="237" 
d="M8 51q5 8 4.5 24.5t1.5 27.5q2 10 3.5 14.5t2 8t0 9.5t-2.5 18q9 5 10 15.5t0 22.5q7 6 10.5 19t6.5 29t7.5 33t13.5 30q4 6 6.5 8.5t3.5 5t1.5 6.5t1.5 14q2 13 12 25.5t16 23.5q4 6 3.5 7.5t3.5 7.5l20 30q5 9 6.5 10.5l2 2t2 3.5t5.5 16q18 8 22.5 19t16.5 28
q9 13 15 20.5t11 12t8 7.5l6 6q4 5 4 7.5t4 7.5l34 30q2 2 9.5 5t16 2.5t15 -8t6.5 -26.5q-17 -16 -22 -27t-10 -19q-4 -5 -6 -6l-4 -2t-4 -3.5t-5 -11.5q-8 -21 -14 -30.5t-10.5 -15.5t-8 -12.5t-5.5 -20.5q-4 -17 -14 -26t-15 -22v-11t-1 -5t-2.5 -4t-5.5 -6
q-5 -5 -6 -9.5t-4 -12.5q-14 -37 -22.5 -51t-10.5 -17q-2 -6 -1.5 -6.5t1 -0.5t-1 -3t-7.5 -13q-7 -11 -7.5 -26t-6.5 -24t-8 -14t-2.5 -10t-1 -11.5t-3.5 -16.5q-3 -13 -5 -14.5t-3 -2.5t-1.5 -7t-0.5 -28q0 -14 -0.5 -29t0.5 -29.5t5 -27t13 -20.5q11 2 24.5 4.5
t24.5 -7.5q9 -7 10 -21.5t-8 -22.5q-2 -2 -8 -4.5t-13.5 -5.5t-14 -5t-8.5 -2q-27 1 -39 3t-17 5t-7.5 9t-12.5 15q-16 16 -21 29t-6.5 23.5t-3 18.5t-9.5 16v18v0z" />
    <glyph glyph-name="parenright" unicode=")" horiz-adv-x="216" 
d="M100 536q-12 7 -11.5 17.5t10 18.5t25 9.5t32.5 -8.5q16 -9 32.5 -28.5t25.5 -36.5q6 -12 6 -24t6 -27q5 -9 1.5 -24.5t-5.5 -25.5q-2 -8 0.5 -12.5t1.5 -9.5q-5 -29 -14.5 -60.5t-19.5 -60.5l-30 -65q-4 -5 -5.5 -6.5t-2 -3t-0.5 -4t-1 -8.5q-2 -11 -4 -13t-7 -9
q-4 -5 -5 -8.5t-4 -10.5q-12 -29 -26 -52.5t-28 -49.5q-3 -5 -12.5 -17.5t-21 -25.5t-22.5 -24.5t-18 -14.5q-14 -7 -26.5 -4t-13.5 19q-1 14 7.5 21.5t15.5 18.5l47 77q5 11 12 20l53 99q10 22 12 29t2 9t1.5 6t10.5 20q3 6 2.5 5.5t3.5 4.5q5 7 7 14t3 14t2.5 14t6.5 15
q4 7 6.5 11.5t4 8.5t2.5 9.5t3 15.5q4 28 7 55t-6 54q-4 10 -10 20.5t-14 20t-16.5 16.5t-17.5 10l-8 -19v0z" />
    <glyph glyph-name="asterisk" unicode="*" horiz-adv-x="318" 
d="M214 532q1 4 10 16.5t20 25.5t22.5 23.5t19.5 10.5q11 1 6.5 -9t-15 -24t-22.5 -28.5t-16 -23.5q27 0 46.5 -6t27.5 -28l-8 -9h-61q-11 1 -15.5 0.5t-5 -9.5t2 -29.5t5.5 -57.5l-16 -1q-8 10 -11 19.5t-4.5 19.5t-3 19.5t-5.5 20.5q-5 -7 -9 -12t-8 -12
q-12 -17 -25 -38.5t-19 -41.5l-14 3q-5 9 -1 22t11.5 27t16 26.5t13.5 19.5t10.5 14t7.5 13q-15 2 -28.5 1.5t-24.5 1t-18 6t-9 17.5q11 7 19 10t15.5 4t16.5 0.5t24 1.5q1 8 -2.5 13.5t-7.5 10.5t-5.5 11t3.5 16q6 6 13.5 2.5t14.5 -9.5t12.5 -12.5l5.5 -6.5q2 -4 2.5 -5.5
l1 -3t1.5 -3.5t6 -6z" />
    <glyph glyph-name="plus" unicode="+" horiz-adv-x="397" 
d="M30 206q24 14 58 24t62 20q8 2 17 4.5t15 5.5q3 1 9.5 11.5t13.5 23t13.5 24.5t8.5 16q8 14 13.5 27t13.5 28t15 20t12.5 4t8.5 -6.5t3 -11.5q-1 -20 -9 -33t-13 -27q-3 -9 -4.5 -16.5t-5.5 -15.5q-3 -8 -6 -13.5t-5 -12.5q10 1 29 4t38 3.5t34.5 -4.5t18.5 -19
q0 -18 -13.5 -29.5t-26 -14.5t-16 3.5t16.5 23.5q-4 0 -16 -1.5t-25.5 -4t-25.5 -4.5t-16 -3q-13 -4 -20.5 -7.5t-12.5 -11.5l-37 -61q-7 -8 -10.5 -13t-8.5 -16q-20 -36 -26.5 -49.5t-6.5 -16.5t2.5 -3t2.5 -9t-11 -15.5t-22 -6t-16 11.5t7 38q5 12 7.5 23t8.5 24
q10 22 23.5 44t20.5 42q-17 -2 -32.5 -6.5t-32.5 -8.5q-29 -7 -41.5 -5t-12.5 20z" />
    <glyph glyph-name="comma" unicode="," horiz-adv-x="147" 
d="M-23 -39q-3 9 -3 13.5t2.5 7.5t6.5 6.5t8 9.5q3 6 3 9.5t-1.5 8t-2.5 9.5t1 14q5 20 19 32t27.5 13.5t23.5 -10.5t8 -40q-1 -12 -14.5 -25t-29.5 -23.5t-30.5 -17t-17.5 -7.5z" />
    <glyph glyph-name="hyphen" unicode="-" horiz-adv-x="415" 
d="M22 207q1 11 2 13t10 4q11 3 40.5 7.5t67 9.5t79.5 8t78 2t61.5 -6.5t31.5 -18.5l1 -22q-2 -8 -17 -14t-33 -10t-33 -5.5t-17 0.5q-5 8 -3 13t8 8t14 4t14 3h-240q-8 -1 -16.5 -2.5t-16.5 -1.5t-16 1.5t-15 6.5z" />
    <glyph glyph-name="period" unicode="." horiz-adv-x="121" 
d="M20 72q21 4 28 -5t4.5 -22.5t-12 -27t-21.5 -16.5q-18 -5 -28.5 6.5t-9.5 28.5q2 19 12 25.5t27 10.5z" />
    <glyph glyph-name="slash" unicode="/" horiz-adv-x="243" 
d="M-76 -22q-1 4 1 11t5 14.5l6 15t5 11.5q6 16 9.5 23.5t12.5 20.5q8 11 11.5 20t11.5 24q4 9 7 14.5t5 9.5t5 6.5l9 7.5q8 5 7.5 9.5t4.5 13.5q3 6 6 9t7 10q2 5 4.5 11t5.5 11q5 9 6.5 9t9.5 6q8 7 7.5 10.5t3.5 13.5q4 8 7.5 9.5t6.5 9.5q6 14 10 22t12 19l54 80
q4 10 6.5 11.5t7.5 8.5l25 39q11 12 16.5 19.5t9 13.5t7 11t9.5 12q9 9 11.5 12.5t3.5 6t2 6t8 14.5q5 7 10.5 19.5t12.5 24t15.5 18t20.5 3.5q7 -9 7.5 -20.5t-3 -23.5t-9 -22.5t-9.5 -17.5q-6 -9 -11 -17t-10 -17q-5 -8 -5 -11.5t-2 -9.5q-5 -10 -12 -18t-18 -31
q-6 -13 -11.5 -16t-11.5 -16q-8 -18 -13.5 -26.5t-9.5 -14t-7 -11.5t-7 -19l-14 -2q0 -5 -0.5 -7t-1 -3t-1.5 -2t-3 -4q-8 -10 -8 -16t-7 -14q-4 -5 -4 -4t-3 -2q-5 -4 -5.5 -7l-1 -6t-2 -6.5t-7.5 -8.5l-8 -8t-7 -9q-4 -6 -5.5 -7t-2 -1.5t-1 -3t-2.5 -9.5
q-2 -8 -14.5 -24.5t-23.5 -32.5q-5 -9 -7.5 -9t-7.5 -8l-5 -10t-5 -11q-5 -11 -9 -15.5t-7 -7.5t-6.5 -6t-6.5 -10q-2 -3 -4.5 -9t-5.5 -13t-6 -12.5t-5 -7.5q-8 -8 -10 -11t-3 -6t-3 -8t-8 -15q-10 -15 -16 -22.5t-11 -9.5t-10 0t-13 4l-2 15v0z" />
    <glyph glyph-name="zero" unicode="0" horiz-adv-x="359" 
d="M211 666q35 8 54 -2.5t36 -27.5q11 -11 17 -18.5t10 -16t6.5 -19.5t7.5 -29q2 -8 2.5 -28t2.5 -31q4 -27 1 -61.5t-10.5 -69.5t-17.5 -68t-21 -56l-38 -86q-8 -16 -12 -24.5t-8.5 -16t-10 -16t-16.5 -23.5q-4 -6 -6.5 -9l-7.5 -9q-5 -5 -6.5 -8.5t-7.5 -9.5
q-32 -32 -67 -36t-58 26q-5 8 -12.5 18.5t-11.5 20.5q-3 10 -8.5 24.5t-5.5 21.5q-2 15 -2 30.5t-2 29.5q-2 10 -2 17v13t1 12t1 16q1 15 4.5 27t5.5 27q5 40 15.5 75t21.5 75q8 26 11.5 32.5t5.5 14.5q4 18 6.5 24t9.5 21q11 26 20.5 49t21 41.5t28 31t42.5 18.5zM199 506
q3 16 7 27t8.5 23.5t7.5 29.5t3 44q-18 2 -31.5 -7.5t-20.5 -18.5q-7 -10 -9.5 -16t-4 -11.5t-2 -12.5t-2.5 -19q-6 -5 -9 -5.5t-5 -1.5t-4 -5t-6 -14l-46 -178q-2 -11 -3 -30t-6 -33q-2 -6 -3.5 -20.5t-2.5 -30.5t-2 -31t-1 -23q-1 -19 3 -45.5t12.5 -49t21.5 -35t31 -2.5
q1 0 5 2.5t9 6t9.5 6.5t4.5 4l97 186q4 9 6.5 18t5.5 18q5 14 10.5 41t10 57t7.5 58t3 43q0 5 -1 8.5t-2 8.5q0 5 1 7t1 8q0 7 -1 10.5t-2.5 6.5t-3 7t-2.5 11q-2 22 -13 46t-34 32q-5 -5 -8.5 -22.5t-8.5 -37t-12 -37t-18 -23.5z" />
    <glyph glyph-name="one" unicode="1" horiz-adv-x="136" 
d="M36 463q-8 13 -3 16t13 7t22 21.5t28.5 38t27 39.5t17.5 28q10 17 15 31t19 22q6 -2 8 -3.5l6 -4.5q2 -3 -2.5 -28t-11 -55.5t-13 -58t-9.5 -35.5q-2 -6 -4 -10.5t-4 -10.5l-31 -128q-2 -7 -2 -11t-0.5 -9.5t-3.5 -15t-10 -27.5l-22 -87q-3 -9 -6.5 -19t-5.5 -20
l-39 -123q-5 -11 -9 -17t-18 -6l-4 10t-2 11l19 150q7 35 17.5 71.5t15.5 57.5q4 20 7 30t6 18t6.5 18t8.5 30q2 8 5.5 12t5.5 15t7.5 27.5t11.5 34t12 34.5t8 28l-58 -66q-5 -6 -11 -10t-17 -5z" />
    <glyph glyph-name="two" unicode="2" horiz-adv-x="480" 
d="M95 396q-7 -2 -14.5 1t-14 9t-11.5 14t-6 16q-3 18 3.5 38t18.5 39t26 35t26 27l12 10q13 13 33 24.5t42 20.5t44.5 15t41.5 8q30 3 60.5 -2t53.5 -19t36.5 -37t10.5 -56q-2 -18 -10 -40.5t-19.5 -45.5t-24 -43t-24.5 -33q-7 -9 -9.5 -11t-10.5 -14q-14 -20 -23 -31
t-17 -19.5t-16 -17.5t-19 -23t-16.5 -18t-8 -5t-4.5 -2.5t-7 -9.5q-2 -2 -4.5 -7.5t-3.5 -6.5l-39 -32q-11 -5 -14.5 -9t-8.5 -16q18 3 44 2.5t53 -2t52.5 -4t42.5 -4.5q28 -4 42.5 -8t34.5 -18q21 -14 28 -35.5t-4 -35.5q-8 0 -11 1.5t-5.5 4.5t-6 7t-12.5 10
q-9 7 -17.5 10t-19.5 6t-22 5t-20 5q-10 2 -32 3t-45.5 1.5t-44 0t-28.5 -1.5l-86 -11q-12 0 -19 -2t-12 -5t-10 -7.5t-12 -8.5q-8 -5 -13.5 -7t-13.5 -6q-5 -2 -15 -8t-21.5 -10.5t-24 -6t-22.5 5.5q-15 10 -10.5 24.5t13.5 23.5q7 7 22 15.5t32 18.5t34 21t29 23
q14 14 34.5 26t29.5 20q12 8 20 20t19 19q23 14 41 37q5 6 11 9t11 8l18 19q6 7 10.5 9.5t9.5 8.5q8 11 11.5 16t6 7.5t6.5 6t13 11.5q6 5 8.5 9t8.5 12q13 19 16.5 22.5t4 3.5t1.5 2t9 17q2 4 10 14t17 24.5t16 32t7 35.5q0 19 -10 32t-26 21.5t-35 12t-37 3.5
q-20 0 -42.5 -5.5t-44 -13.5t-41 -18.5t-32.5 -20.5q-15 -11 -28.5 -23.5t-23.5 -26.5q-18 -27 -26 -43.5t-9 -26t3.5 -14.5t10.5 -8.5t11.5 -8.5t7.5 -15z" />
    <glyph glyph-name="three" unicode="3" horiz-adv-x="459" 
d="M109 597q5 13 26 26t48.5 22.5t58 12.5t54 -3t36 -23.5t5.5 -50.5q-3 -12 -14 -29t-24 -33.5t-25.5 -29.5t-18.5 -18l-106 -83h40.5t45 -0.5t43.5 -3t37 -6.5q39 -11 69 -30.5t45 -46.5t13 -61t-27 -74q-6 -9 -19 -22t-28 -26t-28.5 -22.5t-19.5 -12.5q-7 -2 -9 -1t-9 -3
q-4 -3 -4 -5t-2.5 -4t-10 -5t-27.5 -8q-15 -5 -35.5 -10t-36.5 -7q-14 -2 -36 -1.5t-45.5 3t-45 5.5t-32.5 7q-14 4 -30 11.5t-30 17t-25.5 22t-16.5 27.5q-5 18 0.5 41.5t16 42t22.5 27.5t20 -2q3 -13 -3 -24.5t-11.5 -23.5t-6 -25.5t12.5 -29.5q10 -13 29.5 -22.5t41 -16
t41 -9.5t30.5 -1l59 3q36 2 73.5 15t68.5 33q14 9 28 19.5t26 23.5t20 29.5t10 37.5q2 23 -14.5 40t-41 29t-53 18.5t-50.5 8.5q-47 6 -85.5 2t-66.5 -7.5t-43 -1t-14 20.5q0 12 9 19.5t21 13t25 10t22 10.5l115 79q6 4 7.5 6.5l3 5t6 6t16.5 11.5q9 6 20 18t18.5 26.5
t10 29t-5.5 25t-29 13.5t-59 -4l-22.5 -5t-26 -7.5t-23.5 -11t-15 -16.5q4 -3 5.5 -3.5t2 -1t0.5 -2.5t1 -6q-11 -6 -18.5 3t-9.5 18z" />
    <glyph glyph-name="four" unicode="4" horiz-adv-x="466" 
d="M310 337q2 15 9 35.5t16 42.5t18.5 43t15.5 36q3 8 11.5 31.5t18.5 49t18.5 46.5t12.5 24q10 -3 12.5 -12.5t0.5 -21t-6 -23.5t-6 -19l-35 -115q-2 -7 -4 -8t-4 -9q-2 -4 -3 -9t-2 -9q-5 -24 -12.5 -42t-8.5 -32q14 -2 31 2.5t34 2.5q18 -1 24 -12.5t-1 -25.5
q-15 -2 -24 -1.5t-19 0t-24 -2.5t-38 -9q-6 -24 -16.5 -57t-21 -66.5t-19 -64t-12.5 -48.5q-5 -20 -6 -44.5t-8 -43.5q-14 -2 -21.5 4.5t-10 16.5t-1.5 22.5t3 23.5q7 39 12 67t11 53.5t14 54t21 69.5q-18 1 -45.5 -3.5t-58.5 -9.5t-62 -8.5t-56 0.5q-15 2 -21.5 9.5
t-13.5 15.5q-17 21 -4 45q10 19 21 38t25 36q8 10 15 17.5t17 15.5q4 3 7 8t7.5 10.5t12 12t19.5 14.5q8 5 8.5 7.5t5.5 7.5l33 27q4 3 8.5 7.5t6.5 9.5q8 14 11.5 17.5t17.5 14.5q5 3 8 6t8 7q7 5 19 15.5t24 19t21.5 11t10.5 -9.5q0 -4 -6 -12t-14.5 -17t-17 -16.5
t-11.5 -10.5l-94 -91q-5 -5 -7.5 -8.5t-5.5 -7t-8 -9.5t-15 -15l-18 -20q-3 -3 -3.5 -4.5t-1 -2.5t-3 -3.5l-8.5 -8.5q-7 -6 -9 -11t-7 -11q-2 -2 -10 -10.5t-16 -18.5t-13 -20.5t0 -17.5q8 -6 13 -6h16q33 0 44.5 0.5t16 2t9.5 3.5t24 5q31 5 61.5 11t58.5 9z" />
    <glyph glyph-name="five" unicode="5" horiz-adv-x="404" 
d="M174 631q16 -1 39 4t40 8q27 4 46 5.5t37 2.5t36.5 2t43.5 3q10 1 20 0.5t18 -3.5t13 -9.5t4 -19.5l-9 -7q-9 5 -9.5 8t-2.5 4.5t-13 1.5h-41l-179 -26l-28 -7q-10 -2 -14.5 -2.5t-11.5 -5.5l-48 -185q6 3 10 8t10 11.5t15 13.5t25 15q18 9 30 14.5t22.5 8t21.5 3.5t27 1
q23 0 46.5 -8t42 -23t30.5 -37t12 -50q0 -24 -6.5 -50.5t-17 -51t-24 -46t-28.5 -35.5q-5 -5 -6.5 -5.5t-6.5 -4.5q-3 -5 -3.5 -7t-5.5 -8l-61 -52q-7 -6 -10.5 -8t-7 -3t-9.5 -4t-17 -11q-43 -34 -91 -46q-45 -12 -88 -19.5t-87 8.5q-17 6 -24 18t-7 26t5 28t11 26
q7 11 14.5 15.5t21.5 6.5l9 -13q0 -13 -2.5 -19t-5.5 -10t-6.5 -9t-5.5 -16q26 -9 48.5 -6t51.5 10q17 4 25.5 7t13.5 6t9.5 6t12.5 7q14 7 30.5 11.5t31.5 11.5q14 6 26 15t25 18q25 18 41.5 30t30 25.5t26 32t29.5 48.5q11 21 14 44t3 46q-8 7 -9.5 11.5t-3 8t-6 8
t-19.5 12.5q-44 25 -85 15t-80 -40q-20 -15 -33 -30.5t-22 -27t-16 -17.5t-16 -2t-8 23t6.5 41.5t12.5 43.5t9 30q6 35 15 64t15 61q-18 -1 -26.5 -2t-17.5 10q3 11 4.5 12t12.5 5q16 5 25 6t13.5 2.5t6.5 7t5 19.5q13 -1 15 -2.5t10 -11.5z" />
    <glyph glyph-name="six" unicode="6" horiz-adv-x="326" 
d="M0 60q-6 -2 -14.5 -6.5t-16.5 -6.5t-15 1t-11 15q-4 15 6.5 33t18.5 29q10 13 21 23t16 30q5 17 8 37t6 37q2 13 6 18.5t6 14.5l62 160q7 14 11.5 22.5t8.5 14t6.5 9.5t4.5 9q7 17 15 30.5t17 27.5q4 6 8.5 13t9.5 13q10 10 23.5 26t29.5 31t35 26t40 12q22 2 35 -9
t12 -32q0 -23 -9 -35.5t-19 -25.5l-85 -88q-2 12 7.5 24t23.5 26t29.5 30.5t26.5 37.5q8 15 7 26t-11 22q-15 1 -29.5 -5t-27 -15.5t-23 -21t-17.5 -23.5q-15 -25 -30 -49.5t-32 -49.5q-9 -14 -11 -18t-3 -7.5t-2.5 -9.5t-8.5 -23q-22 -47 -35 -90.5t-27 -93.5q9 2 13 5t9 9
l8 8t11 8q15 9 20 13.5t6.5 6.5l3 4t7.5 5q14 8 24 13.5t24 8.5q17 5 27 8t30 -1q22 -4 33.5 -16.5t15 -30t1 -37.5t-8.5 -38.5t-14 -34t-14 -22.5q-7 -8 -16.5 -28t-24.5 -36q-8 -8 -14 -19t-14 -19q-15 -18 -24 -27t-14.5 -13t-8 -5.5t-5.5 -4.5q-6 -7 -8.5 -10t-5.5 -5
t-9 -4.5t-19 -8.5q-31 -12 -54 0.5t-34 34.5q-5 11 -9 25t-9 22zM72 14h14t10.5 2.5t12 7.5t18.5 15q14 12 23.5 22t20.5 24q3 5 7.5 8.5t7.5 7.5q6 8 12 19t12 21q4 7 6.5 10l5 6t5.5 7.5t6 14.5q4 12 9.5 20.5t10.5 18t8.5 21.5t3.5 31q0 18 -8 24t-19.5 5.5t-24 -6
t-21.5 -10.5t-20 -11t-18 -11l-64 -61q-33 -25 -38 -61t3 -79q2 -10 3.5 -15.5t3.5 -10t4.5 -9t5.5 -11.5zM3 77l-2 18q-2 4 -2 3.5t-2 1.5q-8 -4 -9.5 -8.5t-5.5 -12.5z" />
    <glyph glyph-name="seven" unicode="7" horiz-adv-x="353" 
d="M57 596q4 3 6 4t3.5 1.5t4.5 0.5h9l28 2q13 1 24.5 2t23.5 4q11 3 21.5 6.5t23.5 6.5q22 5 46.5 13t48 14t45 8.5t37.5 -2.5q8 -3 15 -12.5t9 -18.5q2 -11 -1 -25t-8 -23q-3 -7 -6 -9.5t-5 -8.5t-2 -9.5t-3 -11.5q-2 -6 -4.5 -9t-6.5 -8q-4 -6 -4.5 -9.5t-2 -8.5
t-5.5 -13t-15 -24q-3 -5 -5 -10t-5 -10q-4 -5 -6.5 -8t-5.5 -8q-4 -6 -4 -9.5t-5 -9.5q-11 -13 -12.5 -15.5t-1.5 -4t-2 -7.5t-12 -25q-5 -9 -11.5 -19t-8.5 -18q17 2 30 6t27 6q11 2 19 1.5t11 -3.5t0 -7.5t-14 -9.5q-12 -5 -25 -8.5t-26.5 -6t-26 -5.5t-23.5 -8
q-3 -8 -4 -11.5t-2 -5t-3 -2.5t-8 -5q-1 -7 -5 -16.5t-9 -19t-10.5 -17.5t-8.5 -11q-11 -11 -19 -28t-15 -27q-5 -7 -8 -8t-7 -8q-3 -5 -3.5 -7.5t-3 -8t-8 -15.5t-18.5 -29q-6 -9 -8 -10t-3.5 -2t-3.5 -5.5t-8 -19.5q-3 -8 -6.5 -10.5t-7.5 -7.5q-3 -4 -5.5 -9t-4.5 -10
q-8 -22 -17.5 -30.5t-18 -7t-14.5 10.5t-6 22q0 9 2 16t5.5 14.5t8 16t9.5 21.5q3 8 5 9.5l4 3t5 6.5t8 20l21 39q4 5 7 7t7 7l64 116q-15 0 -30 -3.5t-31 -7.5t-33 -6t-35 0l-5 11q4 6 23 12t42.5 11t45.5 9t31 6q12 2 18.5 6t10.5 9.5t7 13t8 16.5l46 69q10 12 13.5 16.5
t4 7.5l1 6t6.5 11q5 7 12 18.5t14.5 23.5t14.5 22t13 16l7 11t14.5 26t13.5 30.5t6 25.5q-13 3 -40 -2.5t-59.5 -13.5t-67.5 -17t-64.5 -13.5t-49.5 -1.5t-23 19z" />
    <glyph glyph-name="eight" unicode="8" 
d="M113 502q9 4 11.5 8t10.5 10l46 32q7 5 13 6.5t12 6.5q13 10 35.5 23t50 26t57 24t56 16t48.5 2t35 -17t12.5 -28.5t-9.5 -32.5q-3 -8 -6 -13t-5.5 -8.5t-5.5 -6.5t-7 -8l-82 -94q-5 -5 -11 -7.5t-11 -10.5l-37 -42l-7.5 -5t-2.5 -1.5t-2.5 -2.5t-6.5 -9q-6 -8 -9.5 -10
t-11.5 -10q-7 -5 -10 -11t-8 -10l-45 -34q-7 -6 -9 -11l-4 -10t-6.5 -10t-14.5 -11q3 -8 7 -12t7.5 -8t7 -8.5t5.5 -12.5l73 -44q3 -3 19.5 -11.5t32 -21t23.5 -28t-6 -31.5q-8 -9 -26 -19.5t-29 -12.5q-19 -3 -30.5 -6.5t-23.5 -6.5t-27 -6t-40 -5q-12 -2 -22 -5t-27 -3
t-35.5 0.5t-36.5 4.5t-33.5 12.5t-26.5 25.5q-3 5 -5.5 16.5t-2 24.5t4.5 26.5t12 22.5q9 10 11.5 15.5t3.5 9.5t3 8t10 12q4 5 3 3.5t3 4.5q7 12 19 25.5t24 25.5t21.5 22t13.5 17q-2 11 -6.5 17.5t-7.5 17.5t-7 27.5l-8 33t-8 31.5t-8 24l-46 -53q16 3 25 6.5t27 3.5
q-2 -8 -3.5 -9.5t-11.5 -6.5q-8 -4 -24.5 -9.5t-26.5 -3.5q-14 4 -8.5 18.5t18.5 32t28 32.5t20 19q1 15 1 30v31q1 16 7.5 36t16 37.5t19.5 29.5t17 14q10 -2 12 -4.5t4 -14.5l-17 -27q-3 -5 -6.5 -12t-6.5 -15q-5 -12 -7.5 -34.5t-1.5 -37.5zM116 472q1 -9 1.5 -23
t2.5 -21q2 -6 3 -8t3 -10q1 -10 1 -12.5t3 -10.5q5 -17 11 -39.5t17 -31.5q4 7 6 9t3.5 2t3 0.5t6.5 4.5q3 3 4 5.5t2 4.5t3 4t7 5q12 6 14.5 8.5t3 5.5t4 8t17.5 16l42 32q10 9 14.5 14.5t9.5 10.5t12.5 11t22.5 16q6 4 9.5 7.5t6.5 7t8 8t14 11.5q6 5 10 9.5t10 9.5
q7 7 17.5 17t20.5 22t18 24t10 22q-3 2 -0.5 2t-7.5 2l-41 -2q-12 -2 -24 -5.5t-24 -7.5q-10 -4 -28.5 -11t-38 -15t-36.5 -15.5t-26 -12.5q-29 -18 -60 -35.5t-55 -38.5zM138 201q-9 -17 -13 -21t-6.5 -5t-5.5 -3t-11 -15q-8 -14 -19.5 -21t-17.5 -19q-7 -14 -10 -25
t0.5 -19t15.5 -12t36 -4q15 0 40 1.5t51 4.5t49.5 7.5t34.5 9.5q7 4 10 5t11 3q11 4 12.5 4.5t6.5 5.5q-21 18 -43 28t-43 26q-12 9 -16 11t-6 2.5t-4.5 3t-11.5 14.5q-5 5 -10 7t-11 8t-7 10t-9 9z" />
    <glyph glyph-name="nine" unicode="9" horiz-adv-x="343" 
d="M370 598q8 11 14 19.5t12 22.5q3 6 7 10t14 4q8 0 11.5 -4t10.5 -7q0 -17 -3 -27t-7 -16.5t-7.5 -12t-6.5 -14.5q-6 -23 -13 -35t-12 -29l-30 -91q-4 -7 -6 -11.5t-3.5 -8.5t-3 -9.5t-3.5 -14.5q-2 -10 -4.5 -12.5t-4.5 -10.5q-5 -22 -6.5 -28t-2.5 -8t-3 -6.5t-9 -22.5
l-68 -231q-4 -7 -6 -8t-5 -13l-5 -24q-10 -31 -16 -59t-4 -55l-16 -13q-19 1 -26.5 16.5t-7.5 35.5q0 26 7.5 54.5t17.5 52.5q4 11 3.5 17.5t1.5 16.5q6 32 17.5 59.5t19.5 59.5l47 150q3 8 6 13.5t5 13.5q5 15 9 21t6.5 10t4 8.5t0.5 16.5l-32 -47q-3 -3 -4 -3.5t-2 -0.5
t-1.5 -1.5t-3.5 -6.5q-5 -9 -16.5 -28.5t-24.5 -39.5t-25 -37.5t-18 -23.5q-7 -7 -9.5 -12t-7.5 -12l-55 -59q-11 -9 -26 -14.5t-32 -0.5q-12 5 -13 7l-6 12q-6 12 -8 16.5t-3 9t-0.5 13t0.5 28.5l17 73l52 120q14 24 22 43t25 40q8 11 7.5 15.5t7.5 13.5q8 10 12 15.5
t6.5 10.5t6.5 10t12 13q9 9 19 21t23 23t28 18.5t33 7.5q21 0 33.5 -5t20.5 -13t14 -17.5t13 -18.5zM61 250q0 -8 -1.5 -18.5t-2.5 -21.5t-1 -21t4 -17q11 -3 24.5 6.5t26 23t23.5 28t16 22.5q19 28 35.5 54.5t35.5 52.5q4 6 16 26t25.5 43t25.5 43t18 27l34 55q4 6 9.5 12
t2.5 17q-4 16 -15.5 27t-26.5 14t-32 -2t-33 -21q-8 -8 -12 -10.5t-13 -9.5l-36 -53q-8 -17 -21 -42t-26 -51t-24 -49.5t-15 -38.5q-2 -7 -5.5 -16.5t-7.5 -18.5t-7.5 -17t-4.5 -12q-3 -14 -3.5 -19t-8.5 -13z" />
    <glyph glyph-name="colon" unicode=":" horiz-adv-x="157" 
d="M46 190q2 13 8 21l12 16q4 5 10 10.5t13 8.5t14 3t13 -7q9 -11 7 -22t-10 -20t-19.5 -14.5t-22.5 -5.5q-9 0 -14 2t-11 8zM52 60q18 5 26 -1.5t6.5 -17t-10.5 -21t-24 -14.5q-16 -4 -24.5 2t-9 15.5t8.5 20.5t27 16zM38 26q5 0 4 0t1 6q-4 -2 -5 -1v-1v-4z" />
    <glyph glyph-name="semicolon" unicode=";" horiz-adv-x="155" 
d="M46 190q2 13 8 21l12 16q4 5 10 10.5t13 8.5t14 3t13 -7q9 -11 7 -22t-10 -20t-19.5 -14.5t-22.5 -5.5q-9 0 -14 2t-11 8zM5 -39q-3 9 -3 13.5t2.5 7.5t6.5 6.5t8 9.5q3 6 3 9.5t-1.5 8t-2.5 9.5t1 14q5 20 19 32t27.5 13.5t23.5 -10.5t8 -40q-1 -12 -14.5 -25
t-29.5 -23.5t-30.5 -17t-17.5 -7.5z" />
    <glyph glyph-name="less" unicode="&#x3c;" horiz-adv-x="364" 
d="M169 339q1 5 8 11.5t15.5 12.5t17.5 11t14 8q8 5 12 11t14 11q11 6 18 11.5t12.5 11t11 10.5t13.5 11q3 2 12 10t20 17.5t22.5 18.5t21 12.5t16 -0.5t6.5 -19q0 -12 -14 -28.5t-32.5 -32.5t-36.5 -29.5t-26 -20.5q-8 -6 -18.5 -15.5t-21.5 -18.5t-22 -17t-18 -12
q-4 -2 -11.5 -6t-10.5 -7q-5 -5 -7 -9t-10 -9q-10 -8 -22.5 -13.5t-23.5 -13.5l-37 -33q9 -2 10.5 -2.5t8.5 -4.5q1 -1 13.5 -5.5t31 -12t40 -17.5t39.5 -20l57 -47q13 -15 18 -26q4 -10 0.5 -18t-24.5 -7q-5 5 -6.5 8.5t-3.5 7t-5 6.5t-10 8q-29 17 -44.5 20.5t-28.5 10.5
q-14 8 -23.5 11.5t-19.5 6.5t-21.5 7t-28.5 13q-3 2 -19 6.5t-33 21.5q-4 4 -7.5 6.5t-6 5t-4 7t-1.5 12.5q0 12 11.5 20t20.5 15q8 6 9.5 9.5t6.5 8.5l37 30q12 6 18.5 11.5t12 10.5t12 8.5t17.5 5.5z" />
    <glyph glyph-name="equal" unicode="=" horiz-adv-x="488" 
d="M14 172q3 12 7 11.5t17 1.5q8 1 14.5 2t14.5 2l175 18q17 2 33 1t33 0q14 1 29.5 2.5t28.5 2.5q14 1 32 0.5t32 -1.5q18 -2 23.5 -10t3.5 -26q-6 -3 -26 -4.5t-44 -2t-46 0t-32 0.5q-9 0 -32.5 -1.5t-54 -3t-64.5 -2t-64 -0.5t-52 2t-28 7zM50 245q0 10 6.5 16t15.5 10
t19.5 6t18.5 4q20 5 38.5 9.5t38.5 6.5q29 3 40.5 5t19.5 3.5t21.5 2t46.5 1.5l64 4q17 0 25 -4.5t6 -21.5q-2 -5 -14.5 -11t-28 -10.5t-29.5 -7.5t-20 -3q-1 11 1 12.5t6 8.5h-17t-8 -1t-7 -2t-13 -2z" />
    <glyph glyph-name="greater" unicode="&#x3e;" horiz-adv-x="310" 
d="M226 319q-15 10 -29 18t-29 19q-15 10 -26 21q-9 10 -16 15t-13 10t-13.5 11.5t-18.5 19.5q-7 9 -14.5 22t-12 25.5t-3.5 21t11 7.5q8 0 11.5 -2.5t5.5 -6t5 -9t11 -12.5l27 -27q7 -6 12 -13.5t13 -15.5l64 -44q8 -7 24 -14.5t31.5 -16.5t26 -19.5t7.5 -22.5
q-2 -10 -9.5 -17t-16.5 -12.5t-18 -10.5t-13 -11q-3 -3 -13 -10t-23 -15t-26 -16.5t-21 -15.5q-8 -6 -11.5 -6.5t-11.5 -5.5q-7 -4 -9 -8t-10 -9q-5 -3 -11.5 -6t-10.5 -6q-5 -5 -8 -9.5t-8 -9.5q-5 -6 -10.5 -7.5t-11.5 -6.5q-8 -6 -14.5 -15t-20.5 -19l-35 -36
q-12 -1 -17.5 3.5t-10.5 12.5q-2 6 4 18t15 24t18 22.5t14 15.5t8.5 7t8.5 7q4 3 7 6l6.5 6.5t8.5 7.5t13 9q5 4 7 5.5t2.5 2.5t2 2.5t4.5 5.5q3 5 9 8.5t11 6.5q6 3 8 4.5t2.5 2.5t1.5 2.5t5 5.5q5 5 9 6.5t10 6.5t7.5 7t9.5 7q11 7 19 13.5t19 12.5q11 8 22 11t14 16z" />
    <glyph glyph-name="question" unicode="?" horiz-adv-x="307" 
d="M75 451q0 20 13 41t32 39.5t40 34.5t37 27q12 9 31.5 18t41 16t42 10.5t35.5 -0.5q11 -3 21 -15.5t11 -17.5q1 -8 -3 -21.5t-9 -27t-10 -24t-7 -12.5q-3 -3 -4 -3.5t-2 -1.5t-3 -4t-6 -10l-30 -44q-4 -7 -7.5 -9.5t-9.5 -7.5q-8 -7 -7 -10t-5 -13q-8 -14 -18.5 -19
t-18.5 -18q-5 -6 -7 -12t-7 -11q-9 -12 -11.5 -17.5t-4 -9t-4.5 -6.5t-13 -8q-8 -4 -10.5 -11t-5.5 -14.5t-9.5 -15.5t-23.5 -15q-1 -11 -2.5 -16t-4.5 -8t-7 -6t-8 -11l-47 -80q-7 -6 -9 -10t-2.5 -7t0 -7t-1.5 -11q-3 -9 -10 -11.5t-13.5 -1t-12 5t-6.5 6.5q0 9 -1.5 13.5
t-2 9t-0.5 9t2 13.5q3 12 2.5 15t-0.5 4.5t2 4t10 13.5q5 8 6.5 15.5t9.5 18.5q7 9 10.5 15t8.5 17q7 15 12.5 24.5t10 16t8.5 11.5t7 11q5 8 7 11t3.5 5t4 4.5l8.5 8.5l32 44q4 4 7 6.5t6 6.5q6 7 10 14t12 15q7 6 12 13q9 12 14.5 17t9 7t6.5 4.5t8 9.5q14 19 25.5 28
t23.5 26q5 7 12 16t13.5 17.5t10 16t2.5 10.5q-3 8 -17 7.5t-30 -5t-30.5 -10t-19.5 -7.5q-34 -14 -59.5 -34t-51.5 -45q-5 -5 -11 -12t-11 -15.5t-8 -17.5t-1 -17q8 -6 12 -6.5t6 -11.5q-5 0 -11.5 0.5t-11.5 3t-8.5 9t-3.5 19.5zM37 50q9 -9 10.5 -13.5t3.5 -19.5
q1 -8 -1 -18t-4 -18q-8 -26 -23.5 -33.5t-28 -1t-17 23.5t9.5 41q8 14 19 27t31 12zM6 -24v-2q0 -6 -1 -4.5t4 -2.5q2 7 2 6t-2 6z" />
    <glyph glyph-name="at" unicode="@" horiz-adv-x="653" 
d="M29 80q-4 5 -7.5 11t-5.5 14l9 60q6 12 8 19.5t2 14t-0.5 14t1.5 19.5q1 9 5 20.5t8.5 23t9.5 21.5t10 16q6 7 7 10.5t1 5v4t2 8.5l45 69q7 13 11.5 18t7.5 7.5t7 5t11 9.5t9 11.5l4 9t6 9t13 11.5q7 5 10.5 9t6.5 8t8 8t16 10q10 5 12 8.5t9 8.5q6 4 12.5 6.5t12.5 7.5
q13 8 20.5 16.5t23.5 15.5l55 21q12 1 19.5 2t15 1t15.5 -1t20 -2q13 -2 21 -3.5t13 -4t9 -6t9 -9.5q5 -7 10 -8t11 -10l13 -25q11 -22 14.5 -46.5t2.5 -50t-6 -50.5t-11 -47q-11 -41 -36.5 -83.5t-61.5 -67.5q-9 -6 -14 -11t-19 -5q-21 0 -32.5 8.5t-17 21.5t-6 29t0.5 32
q-5 -2 -6.5 -3t-3 -2.5l-3.5 -3.5l-6 -6q-5 -5 -8.5 -8t-7.5 -8q-6 -6 -7 -7.5t-2 -3.5t-5.5 -6t-17.5 -15l-16 -16q-5 -5 -12.5 -12t-16.5 -12t-18.5 -7t-16.5 3q-5 7 -8 18t-4 22q0 15 6.5 23.5t9.5 21.5q3 10 18.5 37t34 56t35.5 53t24 29t12 12.5t12 14t18 10.5t31 3
l13.5 -13.5t6.5 -33.5q-2 -14 -6.5 -25.5t-11.5 -22.5q5 -7 9 -11t4 -14t-4 -25.5t-8 -32.5t-4.5 -33t5.5 -26q11 -2 17.5 0t10 6.5t5.5 9.5t5 8q4 4 5 4h1.5t2.5 3l10 15q4 5 6 6.5t3.5 3.5t4.5 7t8 19q9 23 16.5 48.5t12 51t3.5 51t-10 49.5q-3 7 -10.5 17t-18.5 18
t-25.5 11.5t-31.5 -1.5t-35 -13.5t-28 -18.5q-6 -6 -10 -7.5t-7 -2t-6 -1.5t-8 -6q-13 -14 -21.5 -29.5t-18.5 -25.5l-31 -42q-11 -17 -24.5 -36t-19.5 -38l-6 -18t-3.5 -8.5t-3 -3t-2.5 -3.5q-2 -4 -2.5 -9t-3.5 -10q-3 -8 -6.5 -13t-6.5 -10t-4 -12t0 -19q-8 -5 -8 -8
t-3 -12q-3 -10 -5.5 -10.5t-7.5 -8.5q-2 -5 -5 -14.5t-4 -21t0 -23t7 -20.5q-2 -6 -3 -7.5t-1.5 -2.5t-0.5 -2.5v-8.5q-1 -12 -1.5 -17t0.5 -8t4 -5t9 -7q4 -5 6.5 -8.5t6.5 -7.5q17 0 30.5 1.5t29.5 6.5q9 2 14.5 2.5t13.5 4.5q10 5 13 5.5t16 0.5q4 2 6 3.5t3.5 3t3.5 3
t7 3.5q27 9 55 22.5t53 28.5l39 21q11 6 29 18t37 25.5t35.5 26.5t25.5 22q5 4 7.5 7t6.5 7q8 3 18.5 0t16.5 -10t4.5 -17t-16.5 -21q-5 -3 -9 -9t-11.5 -14t-20.5 -19t-35 -25q-20 -13 -37.5 -28.5t-47.5 -30.5q-8 -4 -11 -8.5t-14 -9.5q-8 -4 -17.5 -7t-16.5 -7
q-5 -3 -8 -5.5t-8.5 -6.5t-16 -9.5t-29.5 -12.5q-10 -4 -16.5 -5.5t-15.5 -6.5q-6 -4 -9.5 -6t-6.5 -3t-7.5 -1.5t-12.5 -1.5q-14 -2 -18 -6.5t-15 -8.5q-11 -2 -21 -2.5t-21 -2.5q-9 -2 -21 -3t-24 0t-23.5 3.5t-18.5 7.5q-22 14 -27.5 25t-11.5 25q-5 9 -10 11.5t-8.5 5.5
t-6 10.5t-0.5 27.5zM264 261q4 3 19 17t32 31t32.5 34t19.5 25q7 14 11.5 27.5t3.5 30.5q-13 -4 -21.5 -13.5t-14.5 -19.5q-13 -19 -29.5 -43t-26.5 -42q-6 -12 -13.5 -24.5t-12.5 -22.5z" />
    <glyph glyph-name="A" unicode="A" horiz-adv-x="451" 
d="M-75 188q16 12 43 23.5t46 20.5q31 15 48 22t26 11.5t13 9t9 14t13.5 26.5t27.5 47q12 20 24.5 42t26.5 38q11 11 15.5 19t12.5 19q7 8 16 16.5t18 16.5q15 15 32 32.5t35.5 34t38.5 30t40 21.5q32 11 48 -7t16 -49q0 -30 -11.5 -67.5t-19.5 -68.5q-3 -11 -6 -17.5
t-5 -12.5q-2 -5 -2.5 -8.5t-1 -6.5t-1.5 -6t-4 -9q-6 -13 -11.5 -27.5t-5.5 -31.5h21.5h16t16.5 -1.5t24 -5.5q10 -2 15.5 -4t9 -5t5.5 -8.5t4 -15.5q-3 -5 -4.5 -7t-8.5 -5q-8 4 -8.5 5t-3.5 11q-13 5 -24 5h-48t-23.5 -3t-10 -11.5t-6.5 -25.5q0 -2 -4.5 -12.5t-10 -26
t-12 -34t-10.5 -35.5q-4 -15 -10 -25t-9 -30q-5 -27 -13 -58t-19 -57q-6 -15 -8.5 -27.5t-4.5 -31.5q-3 -14 -6.5 -33t-3.5 -32q0 -18 4.5 -22.5t8 -7t4.5 -7t-5 -21.5q-12 -3 -18.5 -3t-11 2t-7.5 6.5t-8 11.5q-14 18 -17 38.5t-0.5 42t8 44t9.5 46.5q5 28 10.5 49t11 38.5
t10.5 32.5t9 33l43 146q-11 1 -27.5 -1t-34.5 -5t-34.5 -6.5t-26.5 -6.5q-26 -7 -40.5 -9t-22.5 -4t-13.5 -6.5t-13.5 -16.5l-37 -62q-5 -8 -11.5 -25t-11.5 -35.5t-7.5 -36.5t2.5 -27q6 0 9.5 1t5.5 2.5t5 2.5t8 3q-6 -24 -35 -18q-14 16 -10.5 42.5t13.5 56t22 56.5t17 45
q-11 -1 -29 -6t-36.5 -12t-34 -14t-21.5 -13q10 -6 20 -5t17 -9l-12 -1q-21 -1 -33 -1t-17.5 2t-6.5 7t0 14zM138 279q24 5 47 11.5t49 10.5t53.5 7t52.5 8l35 102q2 5 3.5 6.5t4.5 7.5l32 85q6 13 12.5 36t5.5 37q-14 0 -32.5 -11.5t-37.5 -26.5t-35.5 -31t-24.5 -25
q-11 -13 -19 -21.5t-16 -19.5q-5 -6 -9 -9t-11.5 -10t-19 -21.5t-30.5 -42.5q-5 -8 -14 -20.5t-18.5 -26.5t-17 -26.5t-10.5 -19.5z" />
    <glyph glyph-name="B" unicode="B" horiz-adv-x="466" 
d="M366 598l2 2l1 2q3 6 4 7.5t2 2t3 1t8 3.5q7 4 10 8t8 8.5t15 11t30 15.5q5 2 6 3.5l2 3t3.5 3t9.5 4.5q9 3 20 7t22.5 5.5t22 0t19.5 -8.5q13 -10 17.5 -22t3 -25t-8 -26.5t-14.5 -25.5q-7 -10 -13.5 -22t-13.5 -21q-5 -6 -8 -9.5t-8 -9.5l-34 -39q-5 -3 -7 -4t-3 -2
t-2.5 -3.5t-4.5 -8.5q-5 -8 -17 -16.5t-20 -16.5q-9 -9 -12 -10.5t-4.5 -2.5t-5 -5t-13.5 -17q-4 -5 -8.5 -9t-9.5 -8q-5 -3 -7 -4t-3.5 -2t-3.5 -3l-6 -6q-7 -8 -12.5 -12t-10.5 -7t-9 -6t-7 -9q-5 -11 -13 -16t-23 -18q-4 -4 -5.5 -4.5t-5.5 -4.5q-4 -3 -3.5 -4t-4.5 -4
l-19 -15q-11 -10 -16.5 -14t-9 -6.5t-5.5 -5t-5 -9.5q27 0 49 -0.5t48 -5.5q6 -1 16.5 -4t21.5 -7t20.5 -8t13.5 -7q15 -12 25.5 -23.5t21.5 -28.5q8 -14 11.5 -39t-0.5 -43q-4 -21 -13 -37.5t-18 -32.5q-17 -29 -34.5 -42t-25.5 -23q-7 -9 -12 -13t-9 -6.5l-8 -5t-10 -8.5
q-7 -7 -12.5 -13.5t-13.5 -11.5q-8 -6 -24 -13t-33.5 -13.5t-31.5 -11.5t-17 -6q-31 -16 -59.5 -25.5t-58 -14.5t-60 -6t-66.5 0q-17 0 -38.5 4.5t-43 13t-39 21.5t-25.5 31t-4 41t26 52q6 8 12 12.5t20 3.5q4 -12 4.5 -16.5t-1.5 -7t-6 -5t-8 -8.5l-7 -12
q-11 -22 -9.5 -31.5t15.5 -23.5q22 -21 56.5 -26t65.5 -6q0 11 -3.5 21t-4.5 22q0 30 3.5 55t8.5 46.5t10.5 42t8.5 41.5l96 330q2 10 5 28t7 36t9.5 32t13.5 15q6 1 7.5 1t1.5 -0.5t-0.5 -1.5t0.5 -2q4 -9 2.5 -27t-6 -37.5t-10 -38t-8.5 -27.5q-5 -16 -7.5 -32t-7.5 -33
q-4 -15 -8 -30.5t-7 -31.5q1 0 6 2t11 4t10.5 4t5.5 3q3 2 5 4.5t7 6.5l11 7q15 9 21 21t16 29l32 53q5 8 7.5 14.5t7.5 14.5t9.5 11.5t9.5 11.5q6 10 7 15.5t9 13.5l56 71q10 10 12 12.5t1.5 3t0 1t7.5 6.5q10 8 11.5 12t6.5 11t12.5 9t13.5 10q5 6 6 8.5t1.5 4t3 2.5
t10.5 5zM118 172q-2 -6 -7 -18t-11 -25t-12 -24.5t-9 -17.5l-55 -129q-12 -29 -23.5 -66t-27.5 -70q23 -2 56 6t68.5 21t68 28.5t54.5 27.5q11 7 20 9.5t17 10.5q8 9 16.5 11.5t18.5 10.5q5 5 6.5 7.5t5.5 6.5q10 11 23 23t25 26.5t20.5 32t9.5 38.5q1 16 -6 30.5t-19 26.5
t-26.5 20t-29.5 11q-20 4 -29 5.5t-15.5 1.5t-14 -1t-23.5 -2q-8 -1 -28 0.5t-55 -0.5zM222 336q8 3 14 11t28 20q18 10 33 20t29 26q7 8 7.5 10.5t10.5 9.5q25 18 33.5 25t13 11.5t9.5 10.5t23 23l39 37q6 7 8.5 9t4 3t2.5 1.5t4 3.5q3 4 4 6t1.5 4t2.5 4.5t8 7.5
q8 7 14.5 23t10.5 30q-9 -2 -13.5 -3.5t-8.5 -4t-10 -6.5t-18 -11q-34 -21 -55 -41t-27 -23q-8 -5 -10 -8t-7 -13q-4 -6 -6 -7.5t-3.5 -2.5t-4 -2t-7.5 -5zM31 141q-6 -13 -8 -26t-7 -26q-5 -16 -7 -24t-2 -12t-0.5 -7.5t-2.5 -10.5q-2 -4 -5.5 -20.5t-7.5 -35t-7 -35
t-3 -19.5q5 9 10 23t10 29t9 30t8 26q3 9 9.5 24t13.5 31.5t11.5 31.5t3.5 24q-8 1 -12.5 1t-12.5 -4z" />
    <glyph glyph-name="C" unicode="C" horiz-adv-x="542" 
d="M122 -132q25 0 57.5 17.5t64.5 42.5t61 50.5t48 42.5q53 48 96.5 96t92.5 97q15 15 23 19t10.5 1t0 -11t-9.5 -17q-29 -42 -61 -83t-66 -76l-120 -119q-5 -6 -12 -10.5t-15 -9.5q-16 -13 -28.5 -23.5t-25 -20t-26.5 -19t-33 -19.5t-37 -12t-41 3q-42 8 -62.5 32t-30.5 66
q-3 13 -4 36.5t0.5 49t5 48.5t8.5 34q6 11 6 18t5 19q2 7 6.5 17t6.5 18q5 17 10.5 34t16.5 34q8 11 7.5 17.5t4.5 17.5l75 142l4 4l1.5 1.5t1 2t2.5 5.5q6 12 23.5 34.5t38 47t40 45.5t29.5 29q9 7 23.5 18t31.5 21.5t35.5 18t35.5 7.5q18 0 34 -4.5t26 -17.5
q19 -24 19 -55t-9.5 -61.5t-25 -59t-27.5 -48.5l-30 -40q-3 -3 -13.5 -16t-26 -29.5t-33.5 -33t-34.5 -26.5t-29.5 -10t-19 16q14 4 25.5 7t22 9t21.5 16.5t25 29.5l18 20q65 75 98 169q5 13 7.5 30.5t0 33.5t-12 26.5t-27.5 10.5q-14 0 -28 -5.5t-26.5 -13t-23.5 -16
t-18 -14.5q-5 -3 -13.5 -14t-18 -24t-18.5 -25t-13 -18q-19 -26 -33 -44.5t-26 -36.5t-24 -40t-27 -55q-6 -14 -12 -26.5t-8 -26.5q-1 -8 -2 -11t-2.5 -4.5l-3.5 -3.5t-5 -6l-15 -58q-2 -8 -3 -10.5t-2.5 -3.5t-3 -2.5t-3.5 -7.5l-14 -55q-2 -9 -2 -16.5t-2 -17.5
q-5 -19 -10.5 -44t-3.5 -45q2 -15 3 -31t5.5 -29t14.5 -21t29 -8z" />
    <glyph glyph-name="D" unicode="D" horiz-adv-x="587" 
d="M23 309q-3 -7 -17 -19t-28 -18.5t-23.5 -3t-4.5 27.5q2 11 8 24.5t13.5 27t15.5 25t14 18.5q16 22 24.5 33t16.5 19.5t18.5 18t30.5 27.5q9 8 15 13.5t13 10.5t14.5 10t19.5 12q34 20 73.5 38.5t82.5 28.5q21 5 49 9t50 4l90 -19q14 -6 23 -12t22 -16q34 -28 47.5 -74
t6.5 -91q-3 -19 -9.5 -41t-14.5 -43.5t-18 -41.5t-20 -35q-5 -6 -5.5 -6t-2.5 -5q-2 -4 -2 -7.5t-2 -7.5q-3 -8 -7 -11.5t-9 -8.5q-9 -9 -13 -15.5t-6 -11t-4 -8t-7 -8.5q-2 -2 -7 -7.5t-10.5 -11.5t-10.5 -11.5t-6 -8.5q-5 -11 -12 -16.5t-16 -12.5l-65 -66q-7 -5 -10 -8.5
t-5 -6t-5 -4.5t-10 -5q-8 -3 -10.5 -5.5t-4 -4.5t-4.5 -5t-11 -8q-11 -6 -15 -5t-11 -7q-6 -7 -7 -10.5t-12 -6.5q-7 -2 -10 -3t-4.5 -2.5t-3.5 -3t-7 -4.5l-78 -30q-17 -5 -34.5 -4t-31.5 -3q-2 -2 -2 -6v-8.5t-1 -9t-5 -6.5q-5 -5 -13.5 -3t-13.5 5q-8 13 -7 22t-4 21
q-3 3 -3.5 4t-1 1h-3t-8.5 2l-15 7q-35 28 -39 62t8 63t32 49t33 20q2 -10 -1 -17.5t-8.5 -15.5t-12 -20t-10.5 -31q-8 -35 1 -50t35 -27q2 36 11.5 78t19.5 75q5 17 9.5 36t10.5 36q17 56 36 106t34 101q2 9 6 14.5t7 19.5q6 21 18.5 50t18.5 51q-16 -2 -23 -8.5t-20 -12.5
q-20 -10 -37 -24q-26 -20 -50.5 -40t-47.5 -46l-16 -17q-5 -6 -14 -18.5t-17.5 -27t-14 -28t-3.5 -21.5q19 3 30 14t28 16zM77 -47q22 3 35 7t23.5 9t21.5 11.5t29 15.5q9 5 13 6.5t10 8.5q8 9 11 9.5t11 6.5q4 3 4.5 5t5.5 4q10 6 15 10t8 6.5t5 4.5t5 4q14 8 23 15t21 17
q10 9 19 19l6 7.5t3.5 3.5t3.5 2.5t6 5.5q18 15 27.5 26t16.5 19.5t13.5 16t17.5 16.5q13 11 16.5 22t14.5 24q18 23 34 48.5t27 53t16.5 57t2.5 60.5q-2 17 -7 28.5t-14 20.5t-21.5 16.5t-28.5 16.5q-3 2 -11.5 4t-17.5 4t-18 3t-13 1q-32 0 -59 -2t-55 -10
q-29 -8 -41.5 -11.5t-16.5 -7.5t-4.5 -10t-6.5 -20q-7 -16 -13 -45t-11 -48l-56 -180q-2 -8 -2 -12.5t-4 -13.5q-4 -10 -8.5 -25t-9 -30.5t-8.5 -31t-6 -27.5q-8 -35 -19 -70t-14 -71z" />
    <glyph glyph-name="E" unicode="E" horiz-adv-x="462" 
d="M200 282q-17 -2 -27.5 -8t-27.5 -10q-12 -3 -28.5 -7t-34 -6.5t-34 -1t-28.5 9.5q-9 6 -15 20t-3 29q1 11 3.5 16.5t5 8.5t5.5 6t5 8q4 12 7 14.5t5.5 3t4.5 2.5t5 11q2 7 3.5 9.5t2.5 3.5t3 2t6 6q14 17 36 34.5t39 33.5q6 6 10 9t11 8q55 41 119 83t128 67
q20 8 32.5 12.5t24 7t25.5 3t38 0.5q10 -9 19.5 -18.5t10.5 -28.5q0 -15 -5 -29t-12.5 -26.5t-17 -23.5t-17.5 -20q-5 -7 -7.5 -11.5t-9.5 -9.5q-5 -4 -10 -6.5t-11 -7.5q-6 -6 -8 -10.5t-10 -10.5q-17 -13 -38 -29t-43.5 -29.5t-44.5 -21t-41 -3.5q0 9 1 13.5t4 7.5t7.5 5
t9.5 6q8 5 16 10.5t21 6.5l-27 -30l3 -2l13 7q30 17 58 39.5t51 46.5l53 58q3 5 4.5 9.5t5.5 9.5q3 5 6.5 7t6.5 9l7 31q-2 10 -13 11.5t-25 -2t-27.5 -8.5t-18.5 -7q-11 -4 -28.5 -13t-35.5 -19.5t-33.5 -21t-24.5 -17.5q-11 -9 -15.5 -11.5t-8 -4.5t-9.5 -6.5t-21 -19.5
q-8 -8 -15 -10.5t-14 -11.5q-3 -4 -3.5 -5.5t-1 -2.5t-2 -1.5t-6.5 -3.5q-11 -6 -18.5 -12t-14 -12t-13.5 -13.5t-16 -17.5q-7 -8 -13 -10.5t-15 -9.5q-6 -5 -16.5 -15t-20 -21.5t-17.5 -23t-10 -19.5q10 -1 27 2t35.5 7.5t34.5 9.5t25 8q36 16 58.5 20t34 1.5t15 -10.5
t3 -16.5t-4 -16t-5.5 -9.5l-50 -45q-10 -10 -24 -21t-25 -25q-10 -12 -25.5 -26.5l-31 -29t-27.5 -25.5t-15 -15q-5 -8 -8.5 -12.5t-7 -8.5t-8 -7.5t-10.5 -9.5q-5 -5 -6 -5.5t-5 -6.5q-10 -14 -17 -22.5t-12 -13.5l-8.5 -8.5t-6.5 -7.5l-21 -26q-6 -5 -8.5 -6.5t-4 -3
t-3.5 -5t-6 -11.5l-8.5 -17t-3.5 -19q15 0 37 7.5t44.5 18t42.5 21t32 17.5q17 9 35 18.5t34 20.5l164 109q5 3 7 3.5t5 2t7.5 4.5t14.5 11q23 20 48.5 33.5t49.5 30.5q9 7 15.5 11t20.5 -1q5 -16 -2 -22t-15 -14l-59 -45q-21 -13 -36 -23t-28 -20t-26.5 -20t-31.5 -22
l-96 -60q-11 -5 -10.5 -5.5t-7.5 -5.5l-186 -97q-21 -9 -43.5 -13t-38.5 2t-22 24t5 54q5 14 18 33.5t23 30.5q5 5 11.5 14t11.5 15q13 18 21.5 27.5t14.5 15.5l11.5 11.5t13.5 14.5q18 22 28.5 32t18.5 16.5t18.5 14.5t28.5 27q5 5 17 15t25 21t24 21t14 16z" />
    <glyph glyph-name="F" unicode="F" horiz-adv-x="631" 
d="M356 669q5 8 10 12.5t18 -0.5q3 -8 0 -19t-7.5 -22.5t-9.5 -23t-7 -20.5l243 44q9 0 36.5 2.5t56 2.5t49.5 -5.5t18 -21.5q-1 -5 -7.5 -10t-15.5 -10.5t-17 -9.5t-12 -7l-219 -130q-8 -5 -24 -15.5t-34 -21.5t-33 -20t-19 -10q1 10 0.5 9.5t6.5 4.5l11 7l66 43
q24 14 45.5 27.5t44.5 28.5q18 12 29.5 19t21.5 12t19 10.5t22 13.5q6 3 18.5 11t26 16.5t25 16.5t14.5 12q-9 0 -22.5 -2.5t-28 -5.5t-28 -6.5t-23.5 -5.5q-27 -5 -52 -9t-53 -9q-8 -2 -12.5 -3.5t-12.5 -3.5q-22 -4 -28 -5l-9 -1.5t-9 -3t-28 -9.5q-10 -3 -23.5 -5
t-27.5 -4.5t-26.5 -5.5t-19.5 -8q-4 -5 -11 -19t-14 -30.5t-13.5 -32t-9.5 -23.5q-3 -5 -8 -16.5t-10.5 -24t-10 -23.5t-5.5 -16q-1 -8 -3.5 -13l-5.5 -11q27 4 55 11.5t58 10.5q21 2 55 5.5t69.5 4.5t66 -2.5t43.5 -13.5q12 -10 12.5 -23t-5.5 -24.5t-17 -18.5t-22 -4
q-4 8 -4 12t2 6.5t4.5 6t4.5 9.5q-8 5 -28.5 5t-44 -2.5t-44.5 -5t-28 -2.5q-20 0 -25 -1.5t-7.5 -3.5t-7.5 -3.5t-24 -2.5q-16 -1 -27.5 -5t-32.5 -5q-3 0 -11.5 -2t-18 -4t-18.5 -4t-12 -3q-12 -4 -17 -7t-7 -6.5t-3.5 -9t-5.5 -14.5l-30 -76q-2 -5 -3.5 -7t-2 -4.5
t-1 -5.5t-0.5 -10q0 -11 1.5 -18t2 -14t-1 -15t-8.5 -21q-8 -15 -17 -26.5t-15 -23.5q-5 -8 -9.5 -27t-8 -41t-6 -42.5t-2.5 -31.5l16 -6q-1 -15 -8.5 -20t-16 -1.5t-15.5 14.5t-7 29q0 15 0.5 24.5t1.5 17.5t3 17.5t4 25.5q0 1 -1 2l-5 8q8 10 11.5 14.5t6.5 20.5
q5 34 16 66t14 62q-14 4 -19.5 7.5t-12.5 6.5t-19.5 7t-39.5 10q-13 2 -25.5 3.5t-26.5 4.5q-7 2 -12.5 4t-11.5 4q-18 6 -21 15.5t2 18.5q5 11 18 21l116 33q10 3 26.5 8.5t34 11t33 9.5t24.5 4q8 13 12 21.5t6 14.5t3 9.5t4 8.5q5 8 7.5 10t6.5 14q3 8 4.5 14t6.5 14
q4 6 11 20.5t14.5 31t13.5 31.5t8 23q-23 2 -39 -6.5t-36 -15.5q-20 -5 -36.5 -10t-35.5 -13q-14 -6 -33 -14.5t-37.5 -18t-33 -19.5t-19.5 -19q12 3 25.5 9.5t27.5 13.5t28.5 12.5t28.5 5.5l-3 -6l-6 -2l-28 -11q-9 -3 -17 -8l-16 -10q-10 -7 -15.5 -9.5t-17.5 -7.5
q-7 -4 -19 -7q-14 -4 -15 -1t-2 4q-4 11 2 22t16 20.5t21 17.5t17 13q5 4 10 7.5t11 6.5l62 34q22 8 43.5 22t44.5 19q13 4 24.5 9t22.5 9.5t23 8.5t28 5zM128 157q5 8 5 11t3 12q3 11 11 27.5t13 37.5q-12 -2 -36 -6.5t-50 -10.5t-48.5 -13t-30.5 -12q16 -5 35.5 -8.5
t38.5 -9.5q17 -6 30.5 -13.5t28.5 -14.5z" />
    <glyph glyph-name="G" unicode="G" horiz-adv-x="499" 
d="M-67 30q0 3 3 14.5t3 17.5q1 11 2.5 15t2.5 5l2 2t2 7q4 21 6.5 28.5t5 10.5t5 4.5t6.5 10.5q12 30 25.5 53t25.5 40t21.5 28.5t13.5 18.5q13 25 30 45l34 40q8 9 13 17.5t19 24.5l142 157q6 6 10.5 8.5t10.5 8.5q26 26 51 44.5t55 37.5q12 7 26 12t29 5q25 0 36 -13
t11 -33.5t-6.5 -45t-16.5 -47.5t-19.5 -41t-13.5 -26q-11 -19 -18 -30t-13 -19t-13 -17t-19 -24l-23 -26q8 6 25 19t35 25.5t32.5 21.5t18.5 8q14 -10 13.5 -21.5t-8.5 -27.5l-3.5 -7t-2.5 -6q-14 -41 -35 -77.5t-45 -76.5q13 7 29 10.5t31 3t26.5 -5.5t15.5 -15
q2 -4 1.5 -8t-4.5 -3q-5 1 -6 6.5t-10 5.5q-28 -1 -52 -12t-40 -22q-6 -4 -20 -18t-22 -33q-5 -11 -8.5 -16.5t-7 -10t-7 -9.5t-9.5 -14q-12 -18 -15.5 -23.5t-4 -7.5t-1.5 -4.5t-7 -13.5l-41 -64q-3 -5 -7.5 -8.5t-7.5 -7.5q-5 -6 -5 -10t-4 -10q-3 -5 -11.5 -13t-18 -16.5
t-19 -16.5t-14.5 -11q-17 -11 -33.5 -12.5t-37.5 12.5q-12 8 -13 23t4.5 31t13.5 30.5t13 21.5q2 3 14.5 18t26.5 31.5t27 31t17 16.5q9 6 10.5 7.5l3 3l4.5 4.5t15 12q10 7 21.5 20t28.5 25l18 11q13 10 31 32.5t36 48.5t34 52t26 43q6 10 9.5 14.5t6 7l5 5t5.5 8.5
q-14 -1 -21 -8l-15 -15q-5 -5 -7 -6t-9 -6q-6 -5 -7 -6.5t-6 -6.5q-27 -23 -51.5 -45t-52.5 -41l-188 -162q-9 -9 -25.5 -23.5t-35.5 -28t-37.5 -23.5t-31.5 -10q-17 0 -28 11t-11 29zM-2 73q0 -9 0.5 -11.5t-4.5 -9.5q-5 -5 -7.5 -6.5t-0.5 -10.5q8 -2 14 2.5t13 11.5
q17 17 38.5 32t47.5 38q4 4 6 5.5l6 4.5l24 20q8 8 12.5 11t11.5 10l47 43q5 4 12 8.5t14 9.5l69 64q3 2 4.5 2.5t2.5 1t2.5 1.5t4.5 4l60 53q-8 -4 -13.5 -7.5t-16.5 1.5q-1 7 -2 9t-0.5 2.5t3.5 0.5t9 3q8 4 8.5 5.5t8.5 5.5q5 3 8 5t5.5 4.5t5.5 7l9 13.5q11 15 22 33
t22 37q11 20 19 37t16 39q2 6 8.5 23.5t10 36t2 33.5t-15.5 16q-5 1 -13.5 -2t-13.5 -5q-35 -14 -62.5 -41t-54.5 -52q-8 -8 -14.5 -18.5t-15.5 -18.5q-17 -13 -26.5 -27.5t-20.5 -30.5q-4 -5 -8.5 -9t-8.5 -9q-8 -7 -8.5 -10t-5.5 -11l-26 -25q-4 -4 -3.5 -5t-1.5 -5
q-3 -7 -6.5 -10.5t-8.5 -10.5l-15 -20q-5 -6 -7 -13t-5 -10q-3 -4 -4.5 -4.5l-3 -1t-3 -3t-4.5 -11.5q-4 -11 -5.5 -12l-10.5 -7q-1 -1 -8.5 -12.5t-18 -29t-23 -38.5t-23.5 -40t-19.5 -33.5t-10.5 -19.5l-10 -26t-17 -18zM132 -103q12 0 15 4.5t9 11.5q7 9 10.5 10t11.5 12
q4 6 7 14t8 13q4 4 6 6.5t3.5 4.5t3.5 5t5 10q5 11 7.5 14t8.5 11q3 3 10 14.5t14.5 25t14 25.5t6.5 17q-8 -9 -12.5 -13t-7.5 -6t-5.5 -3.5t-6.5 -5.5l-32 -35q-11 -10 -27.5 -26t-30 -35t-20 -38.5t1.5 -35.5z" />
    <glyph glyph-name="H" unicode="H" horiz-adv-x="653" 
d="M575 525q0 13 6.5 29.5t16 33.5t20 33t17.5 27t11.5 18t21.5 6q4 -17 1.5 -26t-9.5 -24l-35 -89q-4 -9 -5.5 -14t-2.5 -8.5t-3 -8t-6 -12.5l-35 -89q-2 -6 -7 -19t-11 -26.5t-11 -25t-6 -14.5q12 -2 32.5 1t44 5t46 2t39.5 -6l-5 -23q-19 -5 -41.5 -6.5t-42.5 -3.5
q-10 -1 -19 -3t-20 -4q-11 -1 -20.5 -1.5t-20.5 -2.5q-13 -2 -14 -8.5t-5 -19.5q-3 -8 -6.5 -17t-5.5 -16l-48 -134q-5 -17 -14 -48.5t-18 -64.5t-15.5 -62.5t-6.5 -42.5q0 -23 5 -31t9.5 -11.5t7 -6.5t-2.5 -16q-11 -4 -21 -0.5t-17 12t-11 20t-4 23.5q0 45 9 92t23 94.5
t30.5 94t31.5 88.5q2 6 4 8.5t3.5 5.5t4 9.5t5.5 21.5q-64 -10 -130.5 -21.5t-131.5 -22.5q-14 -49 -32.5 -95t-32.5 -95q-8 -26 -13 -51t-15 -49q-9 -23 -15.5 -39.5t-22.5 -16.5q-11 0 -13.5 6.5t0.5 18.5t9.5 29t12.5 37q7 21 14.5 38.5t9 33.5t-6 29.5t-29.5 25.5
q-32 16 -64.5 19.5t-58.5 5t-43 6.5t-17 26q0 5 12 13t17 11q22 13 39.5 16.5t34.5 11.5q14 6 21.5 9.5t14.5 5.5t15.5 4t24.5 6q9 2 21 5t20 6q22 8 41 10.5t40 10.5q4 19 11.5 39t13.5 40q6 18 17.5 54t22.5 74.5t18 72t5 46.5l-28 -66q-3 -3 -3 -2.5t-5 1.5q2 10 7.5 26
t10.5 26q9 23 13.5 32.5t18.5 9.5q4 -15 2 -41.5t-8.5 -59.5t-15.5 -69.5t-18.5 -70t-18 -61.5t-13.5 -44q9 -1 29.5 2t43 7.5t44 9t33.5 6.5q39 6 61 7.5t34 4.5t18.5 10t14.5 25q14 32 25.5 63.5t26.5 62.5q4 8 12 25.5t16.5 36.5t15.5 36t9 24q-7 -8 -10 -14t-7 -16
t-6.5 -18t-11.5 -13zM-47 148q26 -4 52 -8.5t51 -9.5q19 -4 32 -11t21 -14.5t13 -13.5t8 -8q3 5 10 23t14.5 39t14 40t7.5 25q-8 0 -23.5 -3t-33 -6.5t-34 -7.5t-26.5 -7q-16 -5 -29 -8.5t-25.5 -7.5t-25 -9t-26.5 -13z" />
    <glyph glyph-name="I" unicode="I" horiz-adv-x="248" 
d="M-1 511q1 6 2 8.5t3 3.5t5.5 2t8.5 3l54 22q33 10 71.5 22t73.5 14q6 0 27 2t48 2.5t56.5 -1t52.5 -7.5t34 -17t3 -30q-8 2 -14 6t-14.5 8.5t-22.5 8t-39 3.5q-9 0 -26 1t-35 0t-32.5 -4t-18.5 -10l-19 -63q-5 -18 -10.5 -37.5t-11.5 -36.5q-8 -21 -19.5 -52.5
t-16.5 -54.5q-2 -8 -6 -14.5t-8 -15.5l-25 -71q-4 -21 -7.5 -30t-7 -13.5t-5.5 -8.5t-3 -16t-1.5 -17.5t-1 -7.5t-2 -4.5t-5.5 -8.5q-5 -9 -5 -20t-3 -21q-1 -5 -2 -6t-1.5 -2t-1 -3t-1.5 -9q-2 -8 -2 -8.5t-2 -8.5q-2 -9 -3.5 -19.5t-0.5 -20.5l102 18q12 1 27 2.5t28 0
t22 -7.5t10 -19q-5 -7 -6 -8t-9 -5q-8 6 -13 8t-10.5 1.5t-14.5 -2.5t-25 -4l-136 -29l-140 -54l-8 -5l-3 -10l-22 2q-4 8 3.5 18t22.5 20.5t34.5 20t37.5 17t33 13t22 7.5q-3 30 -3 41t0.5 16t2 10t2.5 22q0 7 0.5 11t1 7t1.5 7l3 12q3 12 3.5 22t2.5 19t7.5 17t7.5 19
q1 7 2 11.5t1.5 8t1.5 7.5t4 11q6 13 12 33.5t13 41.5t13 40t12 30l15 32q2 7 1 10t4 11t16 29.5t22.5 45.5t19.5 45t8 28q-20 -7 -49 -13t-52 -11q-18 -4 -32.5 -8.5t-26 -7.5t-20.5 -3.5t-15 4.5z" />
    <glyph glyph-name="J" unicode="J" horiz-adv-x="358" 
d="M-73 520q-3 17 10.5 25.5t27.5 14.5q26 10 53.5 23.5t63.5 24.5l61 22q8 3 16 4t17 4q14 5 21.5 7t13.5 3t12.5 2l19.5 3q18 3 41 12t60 11q12 1 19 3t16 4t23 4t41 2q9 0 14 -5.5t5 -12t-5 -12.5t-17 -7q-8 -1 -12 -1t-7 -0.5t-6.5 -1.5l-10.5 -3q-11 -3 -17 -3t-17 -2
q-10 -2 -27 -6t-35 -9.5t-34.5 -10.5t-26.5 -9q2 -6 4 -10l4 -8t3.5 -9t3.5 -13q4 -20 5 -32t1 -22.5t-1 -22t-1 -29.5q0 -14 -3.5 -23.5t-3.5 -17.5q0 -17 -1.5 -29.5t-4 -24t-5.5 -24t-7 -28.5q17 3 38 11t39 14q8 3 26 7t37.5 6t37.5 1t26 -10q-2 -16 -19.5 -19.5
t-37.5 -3.5q-10 0 -26 -4.5t-33.5 -10t-33 -11.5t-24.5 -10q-13 -6 -28 -13t-22 -16q4 -11 1.5 -20.5t-7 -18.5t-10 -18.5t-6.5 -19.5l-41 -96q-11 -15 -13.5 -23.5t-3.5 -14.5t-4 -12.5t-14 -17.5q-20 -19 -26.5 -37.5t-12.5 -24.5q-5 -6 -7 -8t-7 -10q-6 -10 -11.5 -16.5
t-10.5 -12t-12 -10.5t-16 -12q-10 -7 -14 -12t-9 -9.5t-14.5 -8.5t-28.5 -7q-14 -2 -25.5 3.5t-19.5 13.5q-17 16 -22.5 43t-2.5 57.5t12 60t20 51.5q9 17 14.5 26t16.5 11q2 15 14.5 26t32.5 31q15 15 39 32.5t51 34.5t54 31.5t47 22.5q3 28 14.5 61t20.5 60q4 10 4.5 15.5
t1 10.5t2 13t6.5 23q0 1 2 18t2.5 38.5t-0.5 42t-6 28.5q-7 0 -17 -1.5t-21.5 -4.5t-22 -6.5t-17.5 -5.5q-10 -3 -20 -6.5t-19 -5.5l-40 -8q-17 -5 -38 -12.5t-37 -11.5q-13 -3 -22.5 -7t-18 -7t-16 -4.5t-16.5 1.5zM-85 -42q0 -18 4 -36t18 -26q10 3 12.5 5.5l7.5 7.5
q12 12 15.5 14.5t3.5 3t1 3.5t9 17l40 62q5 5 9.5 7t7.5 7l20 48q1 2 12 15t28 46q7 13 13 22t12 21l23 47l-96 -58q-20 -20 -41.5 -36t-38.5 -39q-7 -10 -14 -17.5t-14 -18.5q-5 -8 -10.5 -20t-10 -25t-8 -26.5t-3.5 -23.5z" />
    <glyph glyph-name="K" unicode="K" horiz-adv-x="642" 
d="M273 324q-6 -5 -14 -14.5t-7 -20.5q12 -2 16 1t10 9q6 -3 12.5 -1.5t14 5t14.5 8t14 7.5l63 24q10 4 15 8t13 8q5 2 8 3t7 3q18 9 33.5 15.5t31.5 13t32.5 14.5t35.5 21q22 15 41 24t38 28q6 6 13 10t12 9q48 23 64 23t13 -12.5t-18 -31t-30 -31.5l-33 -31
q-15 -11 -36 -28t-37 -23q-7 -2 -9.5 -3.5t-3 -3t-1.5 -3t-6 -4.5q-7 -4 -10 -4t-11 -5q-8 -6 -9.5 -8t-3 -3.5t-6 -4t-19.5 -9.5q-11 -5 -20 -10.5t-20 -11.5l-84 -43q-11 -5 -21.5 -11t-20.5 -11q-7 -3 -10 -3.5t-6 -1.5t-8 -3.5t-16 -11.5l-83 -41q-11 -5 -12.5 -7.5
t-8.5 -5.5q-9 -3 -11 -2.5t-8 -8.5q-1 -1 -4 -6.5t-6.5 -12t-6 -12.5t-2.5 -7l78 5q16 0 26 -2t15 -1q5 0 7 1t3.5 1.5t4.5 0.5t10 -1q13 -2 24 -1t24 0q19 -2 27.5 -2t14 -1t13 -2.5t24.5 -4.5q8 -2 10.5 0t10.5 0q1 0 8 -1.5t15 -4t15 -4l7 -1.5q4 -3 5 -4.5t2 -2l3 -1.5
t9 -3q32 -12 47 -30t17 -33.5t-6.5 -24.5t-23.5 -3l-4.5 3t-9.5 7t-9 7.5t-5 4.5q-17 14 -49.5 22t-70 12t-74 5t-60.5 1l-124 -3q-15 -18 -21 -32t-9 -27t-5.5 -25.5t-11.5 -26.5q-8 -12 -10 -16t-1.5 -5.5t2 -3t-0.5 -9.5q-1 -5 -3 -7l-4 -4t-4 -4.5t-3 -8.5
q-2 -7 -1 -14.5t0 -15.5q0 -25 -11.5 -37t-24.5 -10.5t-23 17t-7 44.5q1 8 3 13t4.5 9.5t4 9.5t2.5 14q1 14 5 23t7 22q6 27 10.5 40t8 19.5t6 11t4.5 15.5l-99 -13q-12 -1 -17 2.5t-11 2.5q-5 -1 -7 -2.5t-3.5 -2t-5 0.5t-11.5 4q-11 4 -18.5 13t-10 21t2.5 26t19 28
q5 4 6 5t1.5 1t2 0.5t7.5 3.5q1 0 2 1q10 5 13 5.5t3.5 0.5t1.5 1.5t9 8.5l18 17q1 1 12.5 5.5t13.5 5.5q6 3 8.5 3h4t4 1.5t8.5 6.5q11 9 20.5 10.5t17.5 9.5q6 6 8.5 4.5t11.5 2.5q4 2 5.5 3.5t4.5 3.5q5 2 7.5 1.5t3.5 -1t2 1t4 8.5l25 -2q4 10 9.5 19.5t8.5 18.5
q2 7 8 21.5t9 19.5q4 6 7.5 8.5t6.5 5.5t5 8t3 14q3 17 4 22.5t2.5 6t3.5 1t6 7.5q5 10 6.5 20.5t9.5 20.5q3 4 4.5 5.5l2.5 2.5t1.5 3t1.5 8q2 12 5.5 18.5t7.5 11t8.5 9.5t9.5 15q2 4 6.5 17.5l6.5 19.5q2 4 4 10q2 3 4 9l3 6q2 3 3 6.5t3 6.5l3 3l6 9l6 11l5 7q5 9 12 25
t15.5 32.5t17 30.5t16.5 19q10 6 16 5.5t8.5 -6t2 -15t-2.5 -19.5q-5 -25 -19 -60h1q-1 -1 -1 -2t-1 -3l-4 -10t-3 -10q-10 -12 -10 -28q-10 -6 -9 -13t-3 -16q-3 -9 -4.5 -8.5t-5.5 -5.5l-24 -63q-2 -11 -5 -17.5t-6.5 -12.5t-7 -13.5t-5.5 -20.5q-2 -11 -5.5 -17
t-7.5 -11.5t-7 -13t-2 -20.5zM85 100q11 2 11.5 4t2.5 11q-14 -3 -20.5 -6t-16.5 -10z" />
    <glyph glyph-name="L" unicode="L" horiz-adv-x="464" 
d="M78 297q2 5 2 6.5t8 4.5q5 2 8 2.5t7 2.5q6 2 17.5 7.5t24 12t23.5 13t17 9.5q30 18 40 25.5t12 15t2 19.5t10 38q7 19 18.5 39.5t25.5 39.5t30.5 34.5t34.5 25.5q6 3 9 4t5 2l5 2.5t8 5.5q7 5 14 6.5t16 1.5q25 0 31.5 -20t-4.5 -41q-9 -17 -12.5 -24t-6.5 -11.5
t-8 -9.5t-16 -17q-10 -11 -16.5 -18t-12 -12.5t-11 -10.5t-12.5 -12t-14 -12.5t-17 -10.5q-6 -4 -16 -10t-14 -11q-5 -6 -10 -30t-9 -52.5t-7.5 -55.5t-5.5 -40q-3 -14 -6.5 -20t-4.5 -23q0 -17 -5 -35.5t-11.5 -35.5t-12 -30.5t-7.5 -21.5q20 -2 41 -5.5t40 -4.5
q9 -1 19.5 -3t18.5 -4q16 -5 20.5 -6t5.5 -1t2 0.5t9 -0.5q6 -1 8 -3t5 -3.5t7.5 -3.5t15.5 -3t18 -2t13 -11q2 -4 2 -5.5t0.5 -2t2 -1t6.5 -2.5t8.5 -3t7.5 -3q13 -4 18.5 -6t7.5 -14q-21 0 -32.5 4t-29.5 6q-8 1 -17.5 0t-17.5 0q-10 1 -11.5 3t-13.5 2q-21 0 -35 1.5
t-24.5 3.5t-20 4t-22.5 4q-9 2 -18.5 1t-18.5 1q-12 1 -20 3t-14 1.5t-10.5 -5t-10.5 -14.5q-5 -9 -7.5 -11t-7.5 -12t-15.5 -23t-19.5 -22q-5 -5 -9 -9.5t-11 -8.5q-9 -5 -14.5 -9.5t-9.5 -9t-7.5 -8.5t-9.5 -8q-6 -3 -8 -3t-3.5 -0.5t-5 -2t-11.5 -7.5q-5 -5 -13 -6
t-15 -4q-14 -6 -30.5 -10t-33.5 -4t-33 4.5t-28 15.5q-8 8 -15.5 24.5t-7.5 31.5q0 21 8.5 38.5t21.5 32.5t29 27.5t31 21.5q14 9 35 16t44.5 12.5t47.5 8t44 2.5q16 0 24 0.5t13 16.5l41 112q5 16 9 34.5t7.5 36t6 32.5t5.5 24t4 20.5t3 22.5q-11 -3 -31.5 -15.5t-43 -24
t-43 -18.5t-30.5 1zM92 -17q10 4 12.5 4.5t6.5 11.5q-9 2 -24.5 -1.5t-30.5 -1.5q-16 1 -27 -4t-31 -4q-5 -5 -7.5 -7t-10.5 -6q-20 -10 -31 -15t-26 -21q-6 -6 -14 -16.5t-11 -22.5q-3 -15 3.5 -21.5t17 -8t23 0t20.5 3.5q7 2 23.5 10.5t33 19t30.5 21.5t17 17
q7 13 11 16.5t6.5 5t4 4.5t4.5 15zM290 429q10 4 25.5 17.5t32 29t30.5 31.5t21 25q9 12 13.5 23.5t6.5 29.5q-27 -3 -47.5 -21t-34.5 -39q-12 -18 -27 -44.5t-20 -51.5z" />
    <glyph glyph-name="M" unicode="M" horiz-adv-x="670" 
d="M222 386q5 6 12.5 18t15.5 24l15 22.5t11 14.5q8 8 9.5 9t8.5 9q8 10 25.5 28t37.5 35.5t38.5 29.5t28.5 12q12 -1 20.5 -12.5t6.5 -24.5q-1 -7 -3 -19t-5 -24.5t-5.5 -24t-5.5 -17.5l-24 -75q-3 -10 -3 -13.5t-5 -13.5l-4 -11.5t-10 -29t-13 -38t-14 -39.5t-12.5 -33.5
t-7.5 -19.5q-5 -9 -11 -23t-8 -24q9 7 19 22t25.5 36t39 46t59.5 54q16 14 34.5 16t29.5 -18q5 -10 6 -28t-0.5 -37.5t-5.5 -38t-8 -29.5t-4 -21t-2 -21q-1 -8 -3 -18.5t-5 -21.5t-5.5 -21.5t-5.5 -17.5q-3 -6 -5 -17.5t-3.5 -23.5t-3 -23.5t-2.5 -18.5l82 98l10.5 17.5
t11.5 16.5q6 9 13.5 16.5t12.5 18.5q9 17 23.5 36t27.5 33q8 9 12.5 16.5t21.5 7.5q9 0 9 -7.5t-4.5 -17.5t-10.5 -19l-8 -12q-12 -18 -26.5 -36t-25.5 -36l-67 -95q-5 -5 -8.5 -12t-8.5 -13q-7 -9 -17 -22.5t-22 -24t-25.5 -15t-28.5 3.5q-6 3 -10 12t-6 19t-3 18t-1 9
q0 19 4.5 49.5t11.5 62.5t16 62t17 49q7 14 9.5 39t0.5 43q-23 -6 -43 -25.5t-35 -36.5l-16 -18q-4 -5 -8 -9t-9 -10q-8 -11 -15 -20t-15 -19q-18 -22 -34.5 -48t-30 -51t-24 -44.5t-17.5 -27.5q-8 0 -14 1.5t-6 12.5q0 1 2.5 11.5t5.5 23.5t6 24.5t4 14.5q11 34 23.5 68
t27.5 66q4 9 9 22.5t10 28.5t9.5 28t7.5 20q5 10 11 26.5t11 32t9 28t6 14.5q6 10 12.5 28t12.5 38t10.5 39t6.5 32q-4 -4 -7.5 -6t-8.5 -7q-6 -6 -8 -8.5t-7 -9.5q-2 -4 -6.5 -8t-8.5 -8l-15 -17q-6 -8 -8 -9t-3.5 -2t-4 -5.5t-11.5 -19.5q-8 -14 -19.5 -26.5t-23.5 -23.5
q-10 -10 -17 -26.5t-17 -31.5l-26 -38q-11 -14 -17.5 -24.5t-11 -19.5t-8.5 -16.5t-10 -16.5l-23 -41q-6 -15 -11.5 -23t-10.5 -15.5t-9.5 -17t-8.5 -27.5q-2 -6 -6 -16t-9.5 -22.5t-11.5 -25.5t-10 -24q-6 -15 -10.5 -21t-12.5 -19q-7 -11 -12 -19t-18 -13q-13 1 -20 4.5
t-10 9.5t-3.5 15.5t-0.5 22.5q6 6 8 16t2.5 21t1 22.5t3.5 20.5q2 6 5 8.5t5 13.5q4 22 15.5 44t19.5 45q2 6 3 12t3 13q4 11 5.5 11.5t6.5 8.5q4 7 4 11.5t4 12.5q2 6 5 10t5 11q1 6 1.5 8.5t0.5 4.5t1.5 4t5.5 7q7 9 9.5 21t9.5 23q3 5 4.5 6.5t1.5 3t-0.5 4.5t-0.5 9
q1 4 3.5 6.5t4.5 5.5t4.5 8t4.5 15q1 4 8 20.5t14 38t9.5 44t-5.5 39.5q-18 1 -40 -11t-38 -22l-71 -79q-5 -7 -10 -14.5t-10 -16.5q-9 -15 -18 -33.5t-4 -41.5q12 -1 20.5 3t16 8.5t16 9t20.5 4.5q-5 -8 -12 -12t-18 -10l-14 -7t-11.5 -4.5t-12 -2t-15.5 1.5
q-10 25 -2.5 47.5t18.5 43.5q7 12 10.5 20t10.5 19q8 14 16 22t15 21q14 23 39 41.5t47 34.5q25 18 46.5 15.5t36 -20t19 -46.5t-4.5 -63q-3 -12 -1.5 -15t0.5 -11q-1 -6 -3.5 -14.5t-4.5 -16.5t-4 -15t-2 -11z" />
    <glyph glyph-name="N" unicode="N" horiz-adv-x="588" 
d="M123 140q3 4 5 6t3.5 3t3.5 2t5 5l65 100q3 6 5 8.5t5 5.5l7.5 7.5t11.5 13.5q11 14 16.5 20.5t9 10.5t7.5 8t12 14q5 5 9.5 6t10.5 6q5 4 9 8.5t9 8.5q6 6 10 7t9 6q2 2 2.5 3t0.5 1.5t1 1t4 2.5t6 2t7 1q6 3 9 6.5t8 8.5q17 0 29.5 -1t21 -6t13.5 -15t7 -28
q3 -27 -3 -69.5t-13.5 -88t-12 -87.5t1.5 -68q15 1 22.5 5t12.5 9t10 11t14 12q10 6 14.5 9.5t12.5 11.5l65 78q4 4 8.5 12.5t10.5 15t13 8t16 -7.5q4 -14 -3.5 -21.5t-13.5 -15.5q-5 -8 -9.5 -17t-10.5 -17l-7.5 -7.5t-6.5 -7.5l-10 -15q-7 -10 -11 -17t-12 -14
q-11 -11 -14 -13.5t-3.5 -3.5t-1 -2.5t-6.5 -9.5q-5 -5 -7.5 -6.5t-10.5 -4.5q-7 -2 -8.5 -2.5t-1.5 -1t-0.5 -2t-3.5 -5.5q-5 -5 -14 -11t-20.5 -10t-23.5 -5t-22 4q-16 8 -22 30.5t-6 49.5t3 52.5t5 39.5q5 23 7.5 47.5t7.5 46.5l7 46q1 27 -1.5 36.5t-9 8.5t-16 -9
t-21.5 -16q-5 -4 -9.5 -6t-9.5 -6l-32 -29q-10 -14 -15 -18t-13 -15l-40 -49q-9 -10 -22 -29.5t-31 -37.5q-7 -8 -12 -18t-11 -20q-10 -14 -15.5 -21t-10 -13.5t-10 -15t-14.5 -24.5q-8 -15 -21.5 -35.5t-26.5 -42t-24 -42t-15 -35.5q-2 -13 -6.5 -23t-9.5 -21
q-7 -17 -7.5 -25.5t-2.5 -25.5q-17 -7 -28.5 -2.5t-17 15.5t-6 26.5t3.5 30.5q8 26 14.5 52t22.5 51l51 147q4 7 4 5.5t2 4.5q1 3 2 8.5t3 12t7 12.5t14 10q0 11 3.5 28.5t9.5 25.5q4 6 5.5 9t1.5 5v4.5t2 8.5q1 2 5.5 9.5t6.5 10.5l30 71q2 6 3.5 8t3 3t3.5 2.5t4 4.5
l17 50q9 18 17 34.5t15 33.5t11.5 36t6.5 44q-22 -5 -45.5 -22t-44.5 -39t-38.5 -46t-28.5 -42q-14 -23 -22.5 -40t-0.5 -33l45 -1q-1 -2 -11 -6t-21.5 -5.5t-21 3t-10.5 20t10.5 45t42.5 78.5q15 24 25.5 36.5t18.5 21t16.5 16t20.5 21.5q8 9 24 18.5t33 13t32 -1.5t21 -26
t4.5 -40.5t-6.5 -37.5t-11 -35.5t-8 -33.5l-68 -177l-10 -25q-2 -5 -3.5 -7.5t-3 -4t-3 -3.5t-3.5 -8q-3 -11 -2.5 -14t-6.5 -11q-3 -4 -5 -5.5t-2.5 -3.5t-1 -5zM123 140q-5 -2 -5 -1t-2 -4q-4 -8 -1 -6t5 0z" />
    <glyph glyph-name="O" unicode="O" 
d="M13 164q-3 31 4 54t13 52q2 8 1.5 12t1.5 11q1 4 3.5 9t4.5 11l32 92q5 20 15.5 35.5t15.5 25.5q3 6 2.5 10t3.5 12q6 10 15.5 26.5t20 33.5t20.5 32t16 21l60 61q22 16 40 22t32 5.5t25 -6t19 -14.5q18 -20 26 -57q12 -8 20 -8.5t14.5 -1t13.5 -5.5t17 -21q8 -12 14 -35
t5 -40q-2 -30 -4 -43.5t-4 -19.5t-4 -10t-3 -16q-1 -8 -2.5 -22t-4.5 -21q-4 -11 -5.5 -17t-2.5 -9l-1.5 -4.5t-1.5 -5.5q-5 -11 -7.5 -18.5t-5.5 -19.5l-40 -110l-17 -34q-3 -4 -6 -7t-5 -7t-3 -8t-3 -9q-15 -32 -36.5 -63t-40.5 -60q-21 -32 -43.5 -57.5t-53.5 -45.5
q-16 -11 -36 -16.5t-44 2.5q-38 13 -58 46.5t-28 69.5q-2 7 -3 22.5t-1.5 32.5t-1 32.5t-0.5 23.5t2 10.5t4 9.5q2 8 0 10.5t-2 10.5v6t0.5 1.5t2 1.5t4.5 7zM385 563q-5 -15 -11.5 -45t-16 -62.5t-22.5 -60t-30 -36.5q1 9 11.5 32.5t22.5 52.5t20 58t5 49
q-7 -8 -10.5 -10.5t-7.5 -6t-11 -11t-20 -26.5q-6 -8 -9 -10t-8 -11q-9 -17 -15.5 -27.5t-12 -20t-10.5 -21t-11 -29.5q-3 -9 -11 -34t-11.5 -53t1.5 -50.5t29 -25.5q10 -1 17 0.5t13 4t13 4.5t16 2l7 -8q-4 -10 -20 -18.5t-35.5 -10t-38.5 6t-28 30.5q-7 17 -9 38t0 42.5
t6.5 41.5t10.5 36l61 126q7 10 9.5 13.5t10.5 11.5q7 7 10.5 12t11.5 13q13 12 24.5 24t28.5 18q0 14 -5 27t-13.5 22.5t-21 13.5t-28.5 -1q-27 -9 -49 -30.5t-40 -48.5t-32.5 -56.5t-26.5 -53.5q-9 -19 -12 -26t-3.5 -9t-0.5 -4t-4 -11q-3 -8 -8.5 -21.5t-11 -28.5
t-10 -28.5t-4.5 -20.5q-1 -7 -1 -9.5t-0.5 -4.5t-1.5 -4t-4 -7q-3 -8 -3.5 -14.5t-2.5 -14.5l-25 -144q-1 -10 1.5 -14.5t0.5 -15.5q-1 -6 -1 -23.5t0.5 -36.5t1 -35.5t2.5 -20.5q4 -11 9 -23.5t12 -23t17.5 -16t26.5 -1.5q12 2 24.5 9t20.5 13l48 54l87 151q3 5 9.5 20
t14.5 35t16.5 43t16 43t12.5 35.5t6 20.5l12 53q5 14 9 25t5 27q2 33 5 63.5t-13 56.5z" />
    <glyph glyph-name="P" unicode="P" horiz-adv-x="495" 
d="M88 368q7 5 9.5 8.5t4 7t2.5 8t4 13.5q6 17 8 21.5t3 5t2 0.5t5 9q3 6 3.5 9t5.5 11q13 19 18.5 31.5t9 22t7.5 18t15 19.5q4 4 4.5 4h0.5l0.5 2.5t3.5 12.5l49 84q16 0 21 -3.5t4 -10t-5 -15.5t-7 -19q-3 -11 -10 -30t-13 -29q-7 -10 -7 -16t-5 -17q-3 -7 -6.5 -13
t-7.5 -14q-3 -8 -4.5 -16t-5.5 -16q-3 -7 -6.5 -13.5t-6.5 -14.5q7 7 12.5 13.5t13.5 14.5l120 84q9 4 25 10.5t33.5 11.5t33.5 9t26 4q20 0 37 -1t31 -6.5t25.5 -16.5t20.5 -31q3 -5 3.5 -13.5t0.5 -17.5t-1.5 -17t-3.5 -14q-4 -12 -10.5 -24.5t-13.5 -21.5l-8 -10t-7 -10
q-5 -8 -5 -12.5t-7 -9.5l-35 -36q-11 -12 -17.5 -18.5t-11.5 -10.5t-10.5 -8t-14.5 -13l-95 -77q-18 -11 -33 -21.5t-30 -20t-31.5 -18.5t-37.5 -18q-9 -4 -12 -6.5t-5 -4.5t-7 -5t-20 -9l-27 -9q-5 -3 -6 -4.5t-1.5 -2.5t-3.5 -2.5t-11 -3.5t-13.5 -5t-10.5 -5t-11 -4
t-16 -2q-5 -14 -6 -21.5t-5 -21.5l-10 -47q-2 -3 -5.5 -15t-7 -26.5t-6.5 -27.5t-5 -19q-1 -5 0.5 -17t0 -24.5t-8 -21t-23.5 -6.5q-19 3 -21.5 18.5t-1.5 44.5q0 8 2 10.5t1 13.5q0 6 1 19.5t2.5 28.5t3.5 29t4 22q2 11 7.5 20t2.5 20q-1 2 -13.5 3t-26.5 6.5t-26 18
t-12 37.5q0 24 7.5 36.5t16.5 15.5t16 -2t6 -15q-2 -12 -5 -16.5t-4 -18.5q10 -9 12 -12t9 -3q14 1 21 1t10.5 0.5t4 2t2.5 5.5q3 10 5.5 18t5.5 15.5t6 16.5t6 22q2 8 5 10.5t7 10.5q4 9 1.5 11.5t0.5 11.5q3 7 5 8t4 14q3 12 3 24q4 6 6.5 7t3.5 2t1.5 4t2.5 12
q2 10 6.5 18t9.5 16t9.5 18.5t6.5 24.5zM75 126q8 5 15.5 9t18.5 9q25 10 43.5 18t34.5 17t32.5 20t38.5 25q5 4 6 3.5t1.5 -0.5t3.5 2t12 10q10 9 16 13t10.5 6.5t10 5.5t15.5 9l43 33q6 5 6.5 6t8.5 5q3 2 10.5 8.5t16 14t16 14.5t11.5 10l26 26q30 29 46.5 61.5t12 56.5
t-34 34t-92.5 -6q-13 -3 -36.5 -13.5t-49 -24t-47 -27t-30.5 -22.5q-5 -4 -5.5 -6.5t-6.5 -7.5q-3 -2 -6.5 -5.5t-7.5 -5.5q-26 -20 -39 -38t-20 -33.5t-10 -28t-9 -22.5t-7 -20.5t-6 -18.5q-2 -5 -4 -6.5t-3 -4.5t-2 -8.5t-1 -18.5q-9 -6 -12.5 -11t-4.5 -10.5t-2.5 -11
t-7.5 -13.5t-4.5 -12t-3.5 -14q-3 -6 -3.5 -8.5t-0.5 -4t0.5 -4t0.5 -10.5z" />
    <glyph glyph-name="Q" unicode="Q" horiz-adv-x="491" 
d="M47 279q0 16 3.5 22.5t10.5 17.5l63 96l66 96q2 3 5 8t5 7q5 6 6.5 5.5t7.5 6.5q10 13 23 27.5t27.5 28.5t29.5 26.5t29 21.5q19 12 40 22t39 11t31.5 -11.5t16.5 -43.5q20 -8 33.5 -16t21.5 -27q11 -28 11.5 -61.5t-10.5 -63.5q-3 -8 -5.5 -16.5t-6.5 -18.5
q-9 -23 -17 -38t-16.5 -28t-17.5 -26.5t-19 -31.5l-61 -85l-121 -121q-8 -7 -12 -11.5t-14 -10.5q-14 -9 -23 -16.5t-18 -14.5t-20 -13.5t-28 -13.5q-11 -4 -19 -7.5t-16.5 -5.5t-18 -1t-22.5 6q-33 13 -49 50q-7 16 -6.5 41.5t1.5 42.5l13 65q2 4 3.5 6.5t3.5 8.5
q8 21 13 40.5t17 25.5zM357 528q-29 -23 -56 -49.5t-50 -57.5t-39.5 -65.5t-23.5 -71.5q-6 -31 1 -46.5t19 -23.5t26 -12t22 -11q-1 -16 -7.5 -19.5t-23.5 1.5q-8 2 -18.5 6.5t-18.5 9.5q-17 11 -27.5 27.5t-10.5 44.5q-1 31 3 51t10.5 35t14 28t13.5 29l27 53q6 11 12.5 16
t12.5 14l50 58q14 11 27 24t33 24q10 5 19 7.5t20 7.5q9 4 14 5.5t9 2l8 1t12 2.5q4 3 2 15.5t-15 18t-40 -4t-72 -51.5l-19 -16q-6 -6 -6 -9t-7 -9l-45 -54q-6 -10 -17 -23t-25 -33q-5 -8 -8 -10.5t-8 -8.5l-49 -82q-9 -13 -12 -19t-3.5 -9.5t-1.5 -6.5t-5 -10
q-5 -9 -11 -21.5t-11 -23.5t-9 -23t-10 -21t-7.5 -13t-2 -7.5t-1.5 -10t-5 -20.5q-8 -26 -11.5 -57.5t5.5 -60.5q6 -17 16.5 -21.5t23.5 -2t26 8t23 9.5q12 5 27 17t29.5 26t28 27t22.5 20q17 14 32 29t25.5 27t17 20l6.5 8q4 4 5.5 5t2.5 2.5t2.5 3.5t6.5 8l53 76
q8 12 11 15.5t4 5t2.5 5.5t6.5 18q1 2 7 12.5t15 32.5q6 16 14.5 36.5t14.5 42t6 41.5t-10 35q-5 7 -10 9t-11 0.5t-13.5 -3.5t-15.5 -2zM-138 -231q-4 15 3.5 29t19.5 27.5t27 25t26 21.5q6 5 22 15.5t34 21.5t34 20t21 11q14 6 34 15.5t41.5 18.5t41.5 17t34 11q8 1 11 1
h5t4.5 1.5t8.5 5.5l52 18q14 3 22.5 5t16.5 4t20 4t33 4q41 4 63.5 -1.5t32 -16t8.5 -25t-7 -27t-14.5 -22t-14.5 -11.5q-8 -3 -14 -1t-6 10q0 6 3.5 10.5t7 10t6.5 13t2 18.5q-20 6 -43 4.5t-43 -7.5q-12 -4 -17.5 -6.5t-20.5 -5.5l-57 -17q-6 -2 -10.5 -2t-10.5 -2
l-176 -69l-130 -67q-8 -5 -7.5 -6.5t-5.5 -6.5q-5 -5 -8.5 -6.5t-7.5 -4t-9 -7.5t-14 -16l3 -11v-4h-1q-1 0 -1 -1v-2q-9 -3 -19 3z" />
    <glyph glyph-name="R" unicode="R" horiz-adv-x="655" 
d="M-12 275q0 16 13 35.5t30 38.5t35 34.5t28 24.5l44 33q15 11 23 15.5t12.5 6.5t7 3t7.5 5q10 10 15.5 13.5t10 5t10 2.5t15.5 7l16 10l17 8q16 8 36.5 15.5t29.5 23.5q5 9 12 24t14.5 30.5t15.5 28.5t16 18q13 8 19 4.5t6.5 -13t-2.5 -23.5t-7 -27t-7.5 -22l-3.5 -9
q28 6 44.5 10t28 7t21 4.5t23 2.5t33 1.5t52.5 0.5q14 0 25.5 -2t24.5 -5q12 -1 24 -5q4 -1 11.5 -5t15.5 -9t15 -10.5t10 -9.5q6 -8 12 -15.5t6 -21.5q0 -30 -9.5 -53t-31.5 -43l-31 -29q-14 -11 -33.5 -27t-36.5 -21q-7 -3 -9 -4.5t-2.5 -2.5t-1.5 -2.5t-5 -4.5
q-6 -4 -9 -4t-11 -5t-9.5 -7t-3 -3.5t-6 -4t-18.5 -9.5q-18 -8 -37 -20l-80 -41l-39 -20q-7 -3 -10 -3.5t-6 -1.5t-7.5 -4t-14.5 -11l-79 -39q-11 -5 -11.5 -7t-8.5 -5t-10 -2.5t-8 -7.5q-1 -1 -3.5 -6t-5.5 -11.5t-6 -12t-3 -6.5l74 4q15 1 24 -1t14 -2t7 1t3.5 2t4.5 1
t10 -1q12 -2 22.5 -1.5t23.5 -0.5q18 -1 26 -1.5t13 -1t11.5 -2t23.5 -4.5q8 -2 10 0t10 1q0 -1 6.5 -2.5t14.5 -3.5q9 -3 21 -6q4 -3 5 -4t2 -1.5l3 -1.5t8 -3q30 -11 44.5 -28t16.5 -31.5t-6 -23.5t-23 -3l-4 3t-8.5 6.5t-8.5 7t-5 4.5q-15 13 -46.5 20.5t-67 11.5t-70 5
t-56.5 1l-118 -3q-15 -17 -20.5 -30.5t-8 -25.5l-5 -24t-11.5 -25q-8 -11 -9.5 -15t-0.5 -5.5t2 -3.5t-1 -9q-2 -8 -6.5 -10t-6.5 -12q-2 -7 -1.5 -14t0.5 -15q0 -24 -11 -35t-23.5 -9.5t-21.5 16t-6 41.5q1 8 2.5 12.5t4 9t4 9.5t2.5 14q1 13 4.5 21.5t6.5 20.5
q5 26 9.5 38t8 18t5.5 10.5t4 14.5l-93 -12q-11 -1 -16 2.5t-11 1.5q-5 -1 -6.5 -2t-3 -1.5t-5 0.5t-10.5 4q-10 4 -17.5 12.5t-9.5 19.5t2 24t18 27l5.5 5.5t2 1.5h2t6.5 2l2 2q10 5 12.5 5.5t3 0.5t1.5 1.5t9 7.5l16 16q1 1 12 5t13 5q6 3 8.5 3h4t3.5 1.5t8 6.5
q10 8 19 9t17 9q6 6 8 5t10 2q4 2 5.5 3.5t4.5 3.5q5 2 7 1t3 -1t2 1.5t4 7.5l24 -2q3 10 8.5 19t8.5 18q2 6 7.5 20t8.5 19q7 10 13 13t8 20q3 16 4 21.5t2.5 6l3 1t5.5 6.5q5 10 6.5 20t8.5 19q3 4 4.5 5.5l2.5 2.5t1.5 3t1.5 8q2 12 5 17.5t7 10t8.5 9.5t8.5 14
q2 4 7 18.5t6 18.5q-10 -3 -13 -5t-11 -6q-5 -2 -11 -4t-13 -4q-14 -5 -37 -17t-47 -27t-46 -30t-35 -25l-36 -30q-9 -10 -18 -19.5t-16.5 -19.5t-12 -20.5t-3.5 -21.5q11 -4 24.5 -5.5t18.5 -6.5l-2 -9q-10 -2 -20 -1.5t-18.5 4t-14 10.5t-5.5 18zM297 297
q-6 -4 -13.5 -13.5t-6.5 -19.5q11 -2 15.5 1t9.5 9q5 -3 11.5 -2t13.5 5l14 8t13 7l60 23q9 4 13.5 7.5t12.5 7.5q5 2 7.5 2.5t6.5 2.5q16 9 31 15l30 12t31 13.5t34 20.5q20 14 38.5 22.5t36.5 26.5q6 5 12.5 9t11.5 9q4 5 8 13t5.5 17t-0.5 18t-10 15q-21 15 -58.5 19
t-79 1.5t-81 -9.5t-64.5 -14q-12 -3 -16.5 -6.5t-6 -8t-1.5 -9t-2 -10.5q-3 -8 -4.5 -7.5t-5.5 -5.5l-23 -59q-2 -11 -5 -17t-6 -11.5t-6 -13t-5 -19.5q-2 -10 -5.5 -16t-7.5 -11.5t-6.5 -12.5t-1.5 -19zM118 85q11 2 11.5 4t2.5 11q-14 -3 -19.5 -6t-15.5 -10z" />
    <glyph glyph-name="S" unicode="S" horiz-adv-x="446" 
d="M254 233q-17 11 -30.5 19t-27 14.5t-28 13t-32.5 14.5q-16 8 -31.5 14t-27.5 16q-9 7 -13 10t-13 9q-18 13 -33 36t-10 49q6 31 12.5 49t15.5 31t23 25t35 31q7 7 27.5 18.5t43 23.5t43.5 21.5t30 11.5q15 4 35 8.5t41 7t40.5 1t34.5 -9.5q21 -12 23.5 -27.5t-4.5 -31.5
t-19.5 -29.5t-20.5 -22.5q-9 -10 -14.5 -14.5t-9.5 -8t-9.5 -7t-14.5 -11.5q-12 -10 -19.5 -14.5t-13 -8t-8.5 -7.5t-6 -11l-27 2q1 11 4 13t12 7l62 50q5 3 15.5 13t21 23t17.5 26t5 24q-4 8 -16.5 10t-28 1t-30.5 -4t-24 -6l-81 -36q-30 -18 -54.5 -37t-47.5 -42
q-26 -25 -36.5 -44.5t-10 -34.5t9.5 -26.5t22 -21t28 -18t28 -17.5l82 -36q27 -14 42 -28t27 -21q21 8 45.5 19.5t50.5 20.5t51.5 14t46.5 1q-1 -5 -1 -6.5t-1.5 -2t-5.5 -1.5t-13 -4q-11 -4 -30.5 -16.5t-30.5 -18.5l-80 -46q2 -13 6 -21.5t6 -21.5q4 -39 -8.5 -67
t-27.5 -58q-7 -14 -12.5 -18t-11.5 -13q-5 -8 -6 -10.5t-2.5 -4t-4.5 -4t-11 -10.5l-14 -15q-7 -6 -7 -7.5t-4 -6.5l-94 -68q-7 -4 -18 -9t-18 -10q-6 -5 -9.5 -7t-6.5 -3.5t-7.5 -2.5t-13.5 -4q-19 -5 -25 -8t-10.5 -5.5t-13.5 -5t-34 -6.5q-14 -3 -24.5 -5.5t-20.5 -3
t-21 0.5t-25 6q-42 15 -42 66q0 12 4.5 24.5t11.5 24.5t15 22.5t15 18.5q10 13 15.5 15.5t13.5 9.5q16 16 27.5 24.5t15.5 12.5q8 9 14 13t15 12q5 5 14.5 10.5t17.5 11.5l24 17q3 2 4 2t5 2q15 7 21.5 12t11.5 9.5t11 9.5t20 13l50 33q5 3 8.5 4t8.5 4q7 4 8 6t9 6z
M-103 -123q15 -8 37.5 -7.5t40.5 5.5q11 4 19.5 5.5t16 3t16 4t19.5 8.5t19 8t15 5q4 2 4.5 3t2 2.5t5.5 4.5t15 8q9 4 15 7.5t11.5 7.5t12 8.5t17.5 10.5q9 5 23 16.5t27.5 24.5t25.5 26.5t18 22.5q4 5 17 22.5t18 34.5q5 21 4 40t-6 39q-12 -3 -15 -7t-14 -9
q-18 -6 -29.5 -14t-26.5 -19l-133 -86l-55 -34q-5 -4 -6.5 -6t-3 -3.5t-4.5 -4t-11 -6.5l-48 -41q-17 -17 -33.5 -36t-13.5 -44z" />
    <glyph glyph-name="T" unicode="T" horiz-adv-x="372" 
d="M129 540q7 8 10 10t15 6l28 9q7 2 9 3.5t5.5 4t12.5 5t30 7.5l48 13q11 3 14.5 7.5t6 11t6.5 14.5t16 17q14 -4 16 -12t0 -22q24 -1 31.5 -1t8.5 1t1.5 2.5t11.5 2.5q18 2 42.5 7.5t65.5 2.5q19 -1 25.5 -0.5t8.5 1t3.5 1.5t10.5 1q11 0 23.5 -3.5t23 -9t18 -13
t9.5 -16.5q2 -11 -1.5 -22.5t-11 -20.5t-18 -13.5t-21.5 0.5q-2 10 -0.5 15.5t4.5 9.5t7 7.5t7 10.5l-36 3t-21.5 1t-20.5 -2t-31 -5q-8 -2 -23.5 -3t-32 -2.5t-31 -3.5t-18.5 -4q-16 -8 -22 -9.5t-9 -1.5h-5.5t-9.5 -3q-10 -5 -13.5 -9.5t-5 -11.5t-3.5 -17t-8 -24
q-3 -8 -3 -12t-2 -12l-56 -182q-4 -10 -4.5 -13.5t-1 -6t-2 -7t-7.5 -16.5q-8 -14 -6.5 -25.5t-4.5 -24.5q-7 -16 -8.5 -20t-0.5 -4.5t1 -2.5t-4 -14q-3 -11 -5.5 -13t-5.5 -8q-5 -9 -3.5 -13t-0.5 -12q-2 -7 -4 -9t-6 -10q-2 -5 -2.5 -7t-1 -3t-2 -2t-4.5 -5v-16.5t-1 -9
t-2.5 -7.5t-5.5 -13l-22 -88q-1 -17 -4.5 -22t-5.5 -19q2 -8 6.5 -8t13.5 -5q2 -14 -4.5 -28t-16 -22t-21 -9t-20.5 10q-8 10 -9 23t0 25.5t3.5 22.5t2.5 13q-1 22 -0.5 28t1 7t2 2.5t2.5 16.5q1 18 2.5 21.5t2.5 5t2 6.5t2 25q0 6 1 8.5t2 3.5t1.5 3t0.5 8q0 11 1 14t7 11
q5 7 5.5 12t0.5 11.5t1.5 17t8.5 29.5q3 8 2.5 15.5t1.5 15.5t4.5 10t7.5 10q4 9 4 15t2 14q2 5 5 10.5t5 10.5q2 7 3.5 14.5t3.5 14.5t5 11t5 9q4 14 6.5 27t7.5 27q3 8 9.5 16.5t11.5 29.5q4 19 10 26.5t9 21.5q2 7 1.5 9.5t-1 3t0.5 2l5 7.5q5 8 5 11.5t4 11.5q1 4 2.5 6
t3 3.5t2.5 4l3 7.5q4 10 4 13t5 11q-20 -4 -37.5 -10.5t-37.5 -10.5q-19 -5 -40 -11.5t-37 -5.5q-6 -9 -12.5 -11.5t-18.5 -4.5q-7 -2 -9 -2.5t-2.5 -1.5t-0.5 -2t-4 -4q-8 -7 -23 -8t-27 -12q-14 -12 -30 -16.5t-30 -15.5q-6 -4 -8 -7t-3.5 -5.5t-4 -5t-8.5 -6.5
q-13 -8 -20.5 -14.5t-12.5 -10.5t-10 -5t-12 2q-3 14 2.5 22.5t12.5 14.5q10 10 15.5 16.5t10.5 11t12.5 9t21.5 11.5q8 5 14.5 12t15.5 12q12 7 14 7.5t2.5 0.5t2.5 2t13 12q16 13 30 14t27 12q4 4 5.5 5t2.5 1h2.5t6.5 2q6 2 8.5 4.5l5 5t8 4t18.5 1.5z" />
    <glyph glyph-name="U" unicode="U" horiz-adv-x="449" 
d="M95 46q10 6 24.5 27t29 46.5t28 50t21.5 39.5q12 23 23 44t23 43l53 81q12 20 24.5 42t24.5 42q8 11 13.5 20t12.5 21q7 15 11.5 23t12.5 20q14 18 25 41.5t25 42.5q20 25 35.5 45t36.5 17q23 -8 24.5 -28t-7.5 -43t-22 -46t-18 -36q-15 -41 -31 -79.5t-30 -81.5
q-4 -11 -6 -22.5t-5 -24.5q-2 -12 -6 -20t-7 -21q-4 -17 -4.5 -24.5t-1 -14t-3.5 -17t-12 -34.5q-8 -20 -15.5 -40.5t-13.5 -41.5q-3 -11 -6 -29t-6 -38t-6 -38.5t-6 -29.5q-7 -23 -14 -44.5t-12 -44.5q-3 -11 -3.5 -25t-2.5 -26t-7.5 -20t-18.5 -7q-25 1 -34.5 29t-9 70.5
t9 93.5t19.5 99.5t21 88t15 58.5q3 13 10 29.5t14 34t12.5 33t7.5 27.5q-7 -6 -18 -22.5t-22 -35.5t-21 -37t-16 -27q-19 -31 -36 -62t-34 -63q-12 -21 -20 -34.5t-16 -25.5t-17 -25t-24 -32q-5 -6 -10.5 -13t-13 -12t-17 -6.5t-21.5 2.5q-33 11 -44.5 46.5t-9 85t16 106.5
t30.5 110.5t34 97.5t28 67q9 20 16 34t18 31q8 12 19.5 22t22 12t18.5 -5t8 -29q1 -9 -1 -19.5t-4 -18.5q-6 -22 -15.5 -46t-19 -49.5t-18 -50.5t-11.5 -49q-5 -38 -18.5 -69.5t-23.5 -64.5q-3 -12 -7.5 -32.5t-6.5 -43t-1 -43t7 -31.5z" />
    <glyph glyph-name="V" unicode="V" horiz-adv-x="396" 
d="M129 -96q9 24 14 43.5t11 40.5t14 45.5t23 59.5q2 6 4 11.5t4 12.5q3 11 4 12t6 10q4 7 6 14t5 16.5t8.5 22.5t18.5 33q7 10 10 20.5t9 21.5q15 28 24.5 46t18.5 34t20.5 33t31.5 43l105 144q5 7 14.5 15.5t17.5 15.5q11 11 17.5 22t18.5 21q20 15 37 33.5t35 35.5
q5 5 8 8.5t7 7.5q9 7 14 10t8.5 4t6.5 3t7 8q7 9 16.5 14.5t20.5 11.5q7 4 20.5 8.5t28 6.5t26.5 -1t15 -15q3 -10 -0.5 -13.5t-9.5 -3.5t-13.5 1t-12.5 0q-8 0 -19.5 -6t-23.5 -13.5t-21.5 -14.5t-13.5 -11l-124 -124q-21 -21 -37 -41l-36 -45l-29 -34q-5 -8 -5.5 -9
t-5.5 -9q-7 -11 -12 -19.5t-13 -19.5q-3 -5 -5.5 -9.5t-7.5 -9.5q-33 -47 -57.5 -95.5t-46.5 -80.5l-39 -84q-15 -45 -32.5 -90.5t-32.5 -93.5l-7.5 -22.5t-9.5 -26.5t-11 -24t-11 -15q-13 -9 -26 -9.5t-24.5 4t-21 12t-15.5 15.5q-14 18 -22.5 42.5t-12 52t-4 56t1.5 55.5
q3 30 4 59t4 58q1 8 3 13.5t3 12.5l2 30l12 113q2 12 1.5 28t0.5 29q0 11 1 26.5t-0.5 30.5t-6 28t-13.5 20q-10 -2 -20.5 -9.5t-18 -18t-11 -23t0.5 -24.5q-9 -4 -13 -1.5t-5 8t0 13t3 14.5q8 33 30.5 48t47 10.5t46.5 -29t30 -70.5q4 -26 4.5 -54.5t-1 -58t-4.5 -58.5
t-7 -54l-8 -111q-1 -10 0 -15t1 -12q0 -8 -1.5 -13t-0.5 -16q1 -14 1.5 -36t2 -46t5.5 -45.5t12 -33.5z" />
    <glyph glyph-name="W" unicode="W" horiz-adv-x="667" 
d="M370 612q-4 17 4 25t19 18q12 11 24 16t22 6.5t17.5 1.5h11.5q21 3 29.5 4.5t14.5 0.5t14 -5t28 -11q10 -3 15.5 -4t10 -2.5t9 -4.5t11.5 -12q4 -5 8.5 -9t8.5 -9q7 -11 12 -18t8.5 -14.5t6.5 -16.5t5 -24q1 -8 2 -11.5t2 -5.5t2 -3t3 -5t2 -5t-0.5 -1t-1 -1t0.5 -6
q5 -17 6 -37t-7 -38q-5 -11 -6.5 -15.5t-1.5 -8.5t1.5 -10t3.5 -18t1 -19t-3.5 -13t-5 -11.5t-2.5 -12.5q-1 -5 -0.5 -8.5l1 -7t0 -7.5t-2.5 -10q-2 -7 -4.5 -12.5t-4.5 -13.5q-4 -16 -5 -28.5t-9 -27.5q-3 -7 -5.5 -12t-4.5 -13q-3 -20 -4.5 -26t-3 -8.5t-3.5 -4.5t-6 -14
q-3 -8 -4 -14.5t-3 -13.5q-7 -20 -18.5 -48.5t-23.5 -45.5q-11 -15 -13 -23.5t-9 -24.5q-4 -10 -7 -12.5t-8 -8.5q-8 -9 -17 -26t-20.5 -34t-26 -32.5t-32.5 -21.5q-6 -2 -13 -4.5t-13 -1.5q-12 1 -22 8.5t-18.5 18t-15 23t-10.5 24.5q-20 60 -18.5 124.5t8.5 130.5
q1 10 3 16.5t4.5 12.5t3.5 12.5t0 16.5q-2 13 -0.5 20t3.5 12.5t4.5 11t2.5 16.5q0 30 9 57.5t9 58.5l-46 -72q-5 -8 -8 -9.5t-8 -12.5q-7 -16 -13.5 -27.5t-13.5 -25.5q-7 -13 -12.5 -25.5t-12.5 -25.5l-79 -160q-4 -9 -6 -16t-5.5 -12t-10 -7.5t-18.5 -2.5q-10 13 -14 23
t-4.5 19t1 19.5t1.5 25.5q0 6 1 8t3 7q3 18 5.5 30.5t5 24.5t5.5 25t9 32q4 11 5.5 18t3.5 19l16 53q4 7 6 13t3 11.5t2 12.5t3 16l34 106q8 30 15 57t7 58q-17 -6 -30.5 -24t-26.5 -31q-3 -3 -5 -5.5t-5 -6.5q-4 -5 -9.5 -11.5t-8.5 -11.5q-3 -4 -4 -7.5t-3 -7.5l-19 -26
q-11 -15 -25.5 -40.5t-29.5 -56t-29 -64t-24 -64t-14.5 -56t-0.5 -39.5q10 0 16.5 3.5t11.5 8.5t11 10t16 8q-2 -8 -8.5 -16t-15.5 -14.5t-19 -10.5t-18 -4q-12 16 -13.5 28t2.5 36q4 27 12.5 58t19 62.5t22.5 61.5t25 54q5 8 6 14t5 14q3 8 7 12.5t8 11.5q3 5 5 12t7 16
l46 69q6 7 15.5 18.5t21.5 23t25 19t26 6.5q22 -2 30 -7.5t14 -28.5q5 -18 3 -34.5t-4 -35.5q-1 -11 -2.5 -19.5t-1.5 -18.5l-34 -160q-2 -5 -5.5 -12t-6.5 -15t-3.5 -16t2.5 -14q4 3 10 14t13 24.5t13 26.5t10 20q6 11 9 13.5t8 10.5t8 14t8 15q8 15 18.5 24t22.5 21
t23.5 12.5t19 -6.5t11 -20t0.5 -28l-3 -15t-3.5 -21.5t-2.5 -22t-1 -15.5q1 -12 -0.5 -21.5t-3.5 -18t-3.5 -17t-1.5 -19.5q0 -13 1.5 -19.5t-2.5 -20.5q-2 -6 -4 -8.5t-2.5 -5t-0.5 -6t1 -11.5l-2 -123q-3 -26 -2 -58.5t5 -60.5q3 -21 8.5 -34t10.5 -30q9 1 13.5 2.5
t7.5 3.5t5 6t6 9t6.5 7t4.5 4t4.5 5t5.5 11q2 6 4.5 9t5 5.5t5 6t5.5 10.5q5 9 6.5 17.5t6.5 17.5q4 10 9 15t10 16q4 8 6.5 18.5t4.5 18.5q3 12 9.5 26t12.5 28.5t10.5 28t4.5 25.5q0 10 0.5 13.5t1.5 5.5t3 4.5t4 10.5q9 29 14 60.5t9 62.5q1 11 4 21.5t3 19.5q0 7 -1 11
t-1 7.5t0.5 7.5t3.5 13q7 18 9.5 25.5t2.5 10.5t-2.5 4t-5.5 7t-6 19.5t-4 41.5q0 6 1 9t1 8t-2.5 16.5t-10.5 34.5t-24.5 33t-39.5 17t-45.5 2.5t-42.5 -17.5q-11 -6 -18.5 -10t-19.5 7zM209 256q-4 -3 -5 -3t1 -8q5 4 6 4.5t-2 6.5z" />
    <glyph glyph-name="X" unicode="X" horiz-adv-x="560" 
d="M51 232q-2 -3 -2 -4.5t-0.5 -2t-2 -1.5t-6.5 -3q-11 -5 -25 -4.5t-25 4.5q-24 9 -29.5 34.5t-1.5 56t13.5 59.5t16.5 45q3 7 6.5 11.5t5.5 11.5q9 20 19 36.5t23 33.5q4 5 7 9.5t8 10.5q8 12 13 17l13 13l28 27q9 8 15 12t10.5 6t9 3.5t10.5 6.5q6 4 9.5 6.5t11.5 7.5
q12 7 27.5 8t30.5 -2t28 -9.5t22 -15.5q17 -17 26 -49t11 -60q1 -20 0.5 -35.5t-2 -30.5t-3.5 -30.5t-4 -33.5q8 7 9 11t6 9q4 3 6 3.5t3.5 1.5t3.5 3t5 7q5 8 5.5 9.5t7.5 8.5q6 5 8 7.5t7 9.5l168 160q8 10 14.5 17t24.5 8q4 -7 5.5 -9t3.5 -10q-1 -8 -12.5 -21.5
t-26 -28.5t-28.5 -29t-20 -22q-7 -11 -14.5 -15.5t-16.5 -13.5t-14.5 -18t-13.5 -18q-5 -5 -8.5 -8t-7.5 -8t-5.5 -8t-6.5 -8q-7 -6 -10.5 -10t-6 -7t-5.5 -6.5t-10 -8.5q-9 -7 -13 -16.5t-12 -18.5q-5 -5 -8.5 -8t-7.5 -8q-3 -3 -7.5 -8.5t-6.5 -9.5q-12 -18 -18.5 -27.5
t-9.5 -17t-4 -17t-2 -27.5q-2 -15 -3.5 -26.5t-2.5 -27.5q0 -4 -1.5 -11.5t-3 -16t-3 -16.5t-2.5 -12q-2 -9 -2 -14.5t0.5 -10t1.5 -10t1 -14.5q0 -28 2 -54.5t19 -46.5q6 5 11 8t12 9q6 5 18.5 15t26 21t24 20.5t13.5 13.5q5 8 7.5 13t7.5 11l35 41q7 8 10 9t10 10
q5 7 14.5 16.5t21.5 20.5t24 23.5t21 24.5q9 11 15 10t7.5 -8.5t-2.5 -19.5t-16 -24q-25 -27 -50 -55t-40 -54q-10 -18 -22 -26.5t-23 -23.5q-11 -16 -22.5 -27.5t-22.5 -25.5q-4 -5 -10.5 -11.5t-14.5 -13t-15.5 -11.5t-13.5 -6q-28 -6 -45.5 -3t-28.5 14t-18 28.5
t-13 38.5q-4 14 -4.5 21t0 11.5t0.5 8t-2 10.5q-3 10 -3 16t1 10.5t1.5 10t-0.5 13.5q-2 13 -2.5 26t4.5 27q-5 -4 -12 -11t-10 -12q-5 -9 -5.5 -12t-1.5 -4t-3.5 -2t-11.5 -5q-4 -18 -12.5 -31t-17.5 -28q-15 -23 -27 -42.5t-21 -42.5q-3 -8 -7.5 -14.5t-9.5 -14.5
q-6 -14 -7 -23t0 -16.5t2.5 -14.5t-0.5 -17l-22 -5q-14 17 -15.5 38t4 43t15 43t17.5 38l39 72q4 9 6 13t3.5 6t4.5 4t9 8l22 33q4 5 5 9.5t3 10.5l34 49q3 5 9.5 13.5t13.5 18t12.5 18.5t7.5 15t1.5 12.5t1.5 13.5l5 13q1 1 1 3v3q1 12 4 21.5t5 23.5q3 21 7.5 46t6.5 50.5
t0 49.5t-11 44q-10 23 -31.5 24t-44.5 -5q-10 -2 -17.5 -8t-15.5 -13q-5 -5 -9 -6t-7.5 -2.5t-7 -4t-7.5 -9.5q-7 -11 -13.5 -14.5t-14.5 -11.5q-15 -14 -26 -29.5t-24 -31.5q-4 -5 -13 -16t-11 -15l-19 -35q-6 -11 -12 -28.5t-10 -37t-5.5 -37.5t0.5 -30q3 -14 10.5 -19.5
t18 -6.5t22.5 0t25 1z" />
    <glyph glyph-name="Y" unicode="Y" horiz-adv-x="649" 
d="M144 445l1.5 9t1 4.5t2.5 3t5 5.5l35 47q5 7 7 7t7 7q11 12 18 23.5t20 21.5q5 4 8 7.5t8 9.5t14 14.5t27 22.5q8 6 16 14t16.5 14t18.5 8.5t22 -0.5q3 -8 -6 -26t-22.5 -38t-27.5 -38.5t-21 -27.5q-8 -10 -13.5 -22.5t-18.5 -14.5q0 9 0.5 13t2 7t3.5 6.5t5 10.5
q-9 -8 -15.5 -19t-12.5 -23.5t-12 -25.5t-13 -24l-18 -20q-4 -5 -4.5 -13t-3.5 -14q-5 -11 -15.5 -23.5t-13.5 -20.5q-6 -13 -12.5 -25.5t-8.5 -26.5q-3 -14 -5.5 -15.5t-6.5 -11.5q-3 -8 -3.5 -12.5t-4.5 -13.5q-5 -10 -11.5 -23.5t-12 -28.5t-10 -29.5t-4.5 -24.5
q-14 -11 -17.5 -24t-5.5 -37q14 7 25.5 20t21.5 24q7 8 9 14t7 14t10.5 10t11.5 13q4 8 6.5 10.5l4 4t3.5 3t7 6.5q5 6 7 14.5t7 15.5q9 13 20.5 23t17.5 25q3 7 5 10.5t4.5 5l5 3t6.5 4.5q6 6 11.5 17.5t18.5 20.5q8 6 12 11t6 9.5t4.5 8.5t7.5 7q14 10 23.5 20.5
t23.5 21.5q8 6 10 12.5t9 12.5q6 5 9 5.5t4.5 0.5t3.5 2.5t5 10.5q4 1 6.5 1t6.5 2q11 5 14.5 10t13.5 10q11 7 20 13t23 7q12 1 27 -3t23 -10q12 -9 16.5 -30t3.5 -44t-5 -44.5t-8 -32.5q-5 -9 -4 -13.5t-1 -12.5q-5 -20 -11 -37.5t-10 -37.5q20 7 39 18t37 21q3 1 16 4.5
t28 7.5t28 6.5t18 2.5q19 0 25 -5.5t5 -22.5l-64 -21q-11 -4 -16 -7.5t-14 -7.5q-15 -7 -29.5 -13.5t-27.5 -15.5l-55 -31q-10 -11 -14 -13.5t-6 -4.5t-4.5 -8.5t-9.5 -24.5l-98 -205q-10 -19 -21.5 -32t-15.5 -20q-3 -6 -4 -9t-2.5 -5.5t-4 -4.5t-7.5 -7q-14 -14 -17 -19.5
t-12 -15.5q-5 -6 -6.5 -4.5t-7.5 -3.5q-7 -5 -8 -10.5t-13 -10.5q-6 -3 -9 -5t-4.5 -4t-4 -4.5t-7.5 -5.5q-16 -8 -34 -8q-32 0 -43 19t-10 44.5t10 52t17 41.5q5 10 11 19t13 21q4 10 7 15t5.5 8t4.5 6t5 9l4 8t2 2.5t2.5 2l5.5 5.5q4 3 8 8t7 9q10 11 14.5 19t13.5 16
l102 87q14 8 18.5 14.5t15.5 14.5q8 6 11.5 8.5t6 5.5t4 8l4.5 15q8 21 18.5 44.5t15.5 45.5q3 16 10.5 36t14 40.5t9.5 40t-2 33.5q-16 -6 -32 -17.5t-31 -21.5q-5 -3 -8.5 -7.5t-6.5 -9.5q-9 -14 -18 -17t-18 -14q-8 -10 -14 -19.5t-16 -17.5q-8 -6 -10.5 -6t-9.5 -9
l-28 -39q-9 -10 -20.5 -20.5t-19.5 -21.5q-4 -7 -3.5 -5t-4.5 -3q-8 -8 -13 -18.5t-15 -19.5q-17 -15 -25.5 -28t-21.5 -27q-3 -4 -5 -5t-3.5 -2t-3.5 -2.5t-5 -5.5q-14 -21 -26.5 -40t-32.5 -34l-37 -31q-8 -8 -24.5 -7.5t-27.5 5.5q-8 4 -16.5 17.5t-12.5 21.5q0 1 -1 9.5
t-2 19t-2 20t-1 11.5q0 8 3 11.5t7 6.5q0 4 2 16.5t5 26.5t6 26t5 15q3 4 4 6.5t2 4.5t1.5 5.5l1.5 10.5q7 5 9.5 7t3 4t0.5 5.5t3 11.5q3 6 8.5 14t8.5 13q6 11 6.5 15t8.5 15l42 66q3 4 4 5t1 1.5v2.5t2 7q2 7 3 7.5t6 5.5t7 9.5t3.5 9t4.5 8.5t11 8zM174 -207
q21 6 27 11.5t8 17.5q8 2 9.5 2t6.5 5q2 3 4 8.5t4 8.5q11 18 29 38.5t33 52.5q3 7 6.5 12.5t7.5 12t9 16t11 24.5q7 18 17.5 32t15.5 37q-4 -2 -9.5 -7.5t-11.5 -12l-12 -13t-11 -10.5q-8 -6 -8.5 -7t-7.5 -8l-11.5 -11.5l-7 -7t-8.5 -9t-14 -17.5q-5 -5 -8 -10t-7 -7
q-13 -11 -15.5 -14.5t-2 -4.5t0.5 -2.5t-8 -10.5q-3 -4 -9.5 -15t-13.5 -23.5t-12.5 -23.5t-6.5 -14q-7 -17 -6.5 -24.5t1.5 -25.5zM277 540q5 4 13 14t16.5 21.5t16 22.5t10.5 18q-13 -5 -18 -13.5t-12 -21.5q-5 -8 -8.5 -10.5t-6.5 -5.5t-5.5 -8t-5.5 -17z" />
    <glyph glyph-name="Z" unicode="Z" horiz-adv-x="642" 
d="M654 519q-4 -7 -4.5 -10.5t0 -6t1.5 -5t0 -8.5t-2.5 -7.5t-3.5 -6.5t-1 -8.5t-1 -8.5l-52 -106q-9 -14 -14 -18.5t-7.5 -6.5t-4.5 -5t-5 -14q10 -6 22 -9.5t21.5 -9t14.5 -14t2 -23.5q-8 0 -12.5 2t-8 4.5t-7 6t-10.5 6.5q-8 4 -20.5 5.5t-21.5 2.5q-5 -2 -10.5 -7.5
t-10.5 -12.5t-8.5 -13t-4.5 -7q-8 -10 -20 -18.5t-18 -16.5l-49 -62q-6 -6 -11 -7t-3 -10q10 -3 22.5 -1t26.5 -1q15 -3 26 -4.5t20 -3.5t19 -5.5t24 -11.5q11 -6 16.5 -13.5t-2.5 -20.5q-4 -3 -8.5 -2t-14.5 5l-19 6q-23 7 -39 9.5t-31 2t-31.5 -2t-39.5 -2.5
q-20 0 -36.5 -13t-30.5 -27l-7 -7t-8 -7q-14 -8 -19 -12.5t-7.5 -7.5t-5 -5.5t-10.5 -8.5q-8 -5 -16.5 -11t-14.5 -12l-12 -12t-4.5 -3.5t-4 -1t-10.5 -6.5q-15 -10 -18 -14.5t-11 -9.5q-10 -7 -19.5 -9.5t-17.5 -7.5q-11 -7 -30 -20.5t-38 -20.5q-3 -1 -9.5 -2.5t-13 -3.5
t-12 -3.5t-8.5 -1.5q-32 -7 -42 -1.5t-18 23.5q-7 15 -0.5 30t18 28.5t24.5 25.5t21 21q10 12 36.5 30t57.5 35.5t61.5 31.5t47.5 18q7 2 10 3l4.5 1.5t3 2t6.5 4.5q21 1 29 3.5t12 6t8.5 9.5t16.5 14q8 5 14 11t14 12l26 21q6 7 10.5 15t12.5 14l50 48q11 5 14.5 8.5
t6.5 14.5q-16 1 -34 -2t-35 -5t-41 -5.5t-49 -8t-47.5 -11.5t-36.5 -17q-12 -8 -10.5 -6.5t-1.5 2.5l-1 18q32 20 72.5 35t84.5 24q33 6 55.5 6.5t38.5 0.5t26.5 2.5t18.5 12.5t12.5 15t8 8t7 7.5t9.5 15.5q5 8 6 7.5t6 6.5q5 8 9 16.5t11 17.5q12 15 20 34t11 43
q2 19 0 30.5t-7 18t-13 10.5t-17 8q-11 5 -21 7.5t-22 1.5q-9 0 -9.5 1t-7.5 3q-12 1 -18.5 0.5t-10.5 -2t-6.5 -3.5t-6.5 -3l-61 -15q-14 -4 -31.5 -11.5t-36.5 -16.5t-37 -18t-31 -16q-33 -17 -53 -36t-32 -28q-17 -12 -26.5 -20t-16 -15t-14 -16t-19.5 -22
q-6 -7 -18.5 -21.5t-24.5 -32t-21 -34.5t-8 -29q0 -4 0.5 -5.5t0.5 -2.5q0 3 2 -1l36 -2q-3 -6 -10.5 -9.5t-16 -3.5t-16 2.5t-10.5 7.5q-2 16 1.5 31.5t9.5 30t14 27t15 24.5q8 15 20.5 33.5t27 38t29.5 37t29 30.5q4 5 4 5.5t5 4.5q5 7 10 9t11 8q6 7 7.5 11t10.5 10
q17 11 22 17t10 8q16 11 31 22t30 21t31.5 19t36.5 16q27 9 40.5 14t20.5 7t9.5 2h7t14 0.5t30.5 4.5q15 2 22 1.5t12 -2t11 -4t18 -3.5q28 -3 49.5 -24t34.5 -44q8 -14 10.5 -28t7.5 -25v-10zM90 -35q5 2 9.5 6.5t8.5 7.5q5 4 8 7.5t8 7.5q5 5 10 7t9.5 3.5t8.5 4.5t8 9
q-11 -4 -24 -11t-26.5 -15t-26 -16t-21.5 -15q-6 -4 -9 -8t-8 -7q-7 -5 -11 -6.5t-7.5 -3t-7 -5t-7.5 -12.5z" />
    <glyph glyph-name="bracketleft" unicode="[" horiz-adv-x="270" 
d="M155 595q9 9 30 19.5t46 19.5t50.5 14.5t42.5 5.5q9 -10 6.5 -17t-10 -12t-19 -8t-20.5 -4q-15 -2 -26 -5.5t-23 -11.5q10 -27 5 -47.5t-10 -45.5q-2 -8 -3.5 -16.5t-3.5 -15.5q-2 -8 -4.5 -14.5t-4.5 -14.5t-3 -16.5t-3 -16.5t-5.5 -13.5t-6.5 -11.5q-3 -7 -3.5 -12.5
t-1.5 -12t-3 -14.5t-9 -20q-6 -11 -6.5 -14t0 -6t-1.5 -10.5t-12 -26.5q-4 -6 -5 -14t-4 -16l-24 -51q-3 -9 -6 -14.5t-5.5 -11t-4.5 -12.5t-3 -18q-13 -10 -15.5 -20.5t-9.5 -26.5q-2 -7 -4 -9.5t-4 -4t-4 -3.5t-3 -7q-4 -12 -5.5 -14t-5.5 -11q16 3 41 15.5t52.5 24.5
t53 18.5t42.5 -2.5q-3 -10 -5.5 -14t-9 -6t-18.5 -5.5t-34 -13.5q-12 -5 -27 -13t-30 -17.5t-29 -19t-23 -17.5q-10 -8 -29 -15.5t-33 -2.5q-12 6 -13 22t3.5 35t11 37t8.5 27q3 13 3.5 22t6.5 19q6 9 7 13.5t0.5 8t0 7t5.5 9.5q7 9 8.5 12.5t1.5 6.5t0.5 6t6.5 10t6 8.5
t-0.5 3t0.5 6t9 17.5q5 8 7 19t7 18q4 5 6 6.5t4 9.5q3 13 4 17t2 5t3 2.5t7 9.5t3.5 10t2.5 10q2 6 4.5 6t4.5 10q4 15 5 17.5t2.5 4t4.5 7t11 25.5q7 19 14 37l14 36q6 15 13.5 39t10.5 41q-11 -1 -19.5 -2.5t-14 0.5t-8.5 8.5t-2 21.5z" />
    <glyph glyph-name="backslash" unicode="\" horiz-adv-x="453" 
d="M427 -37q-8 -2 -13 -4t-10 0t-11 9.5t-16 22.5q-6 10 -8 15t-3 8t-3.5 6t-9.5 11q-2 2 -5 7.5t-6 12.5t-6 13t-4 9q-3 7 -6.5 10t-6.5 6t-7 7.5t-9 15.5q-2 5 -5 11l-5 10q-5 8 -7.5 8t-7.5 9q-11 16 -23.5 32.5t-14.5 24.5q-2 7 -2.5 9.5t-1 3t-2 1.5t-5.5 7q-5 7 -7 9
l-8 8q-6 5 -7.5 8.5t-2 6.5t-1.5 6t-5 7q-3 3 -3 2t-4 4q-7 8 -7 14t-8 16q-2 3 -3 4t-1.5 2t-1 3t-0.5 7l-14 2q-4 13 -7 19t-7 11.5t-9.5 14t-13.5 26.5q-6 13 -11.5 16t-11.5 16q-11 23 -18 31t-12 18q-2 6 -2 9.5t-5 11.5q-5 9 -10 17t-11 17q-5 7 -10 17.5t-8.5 22.5
t-3 23.5t7.5 20.5q12 3 20.5 -3.5t15.5 -18t12.5 -24t10.5 -19.5q7 -11 8 -14.5t2 -6t3.5 -6t11.5 -12.5q6 -7 9.5 -12t7 -11t9 -13.5t16.5 -19.5l25 -39q5 -7 7 -8.5t7 -11.5l54 -80q8 -11 12 -19t10 -22q3 -8 6.5 -9.5t7.5 -9.5q4 -10 3.5 -13.5t7.5 -10.5q8 -6 9.5 -6
t6.5 -9q3 -5 5.5 -11t4.5 -11q4 -7 7 -10t6 -9q5 -9 4.5 -13.5t7.5 -9.5l9 -7.5t5 -6.5t4.5 -9.5t7.5 -14.5q8 -15 11.5 -24t11.5 -20q9 -13 12.5 -20.5t9.5 -23.5q1 -4 4.5 -11.5t6.5 -15t5 -14.5t1 -11z" />
    <glyph glyph-name="bracketright" unicode="]" horiz-adv-x="189" 
d="M110 588q5 13 21.5 15.5t29.5 5.5q10 3 26.5 7.5t34 9t33 8.5t23.5 4q24 2 28 -7.5t-1 -29.5q-2 -10 -7 -23.5t-11.5 -28t-13.5 -28t-11 -22.5l-69 -150q-2 -3 -8.5 -17.5t-14.5 -34.5t-17.5 -42.5t-17 -42t-13 -32.5t-5.5 -14l-50 -131q-2 -3 -7.5 -6t-11.5 -3
t-10.5 5.5t-4.5 20.5q-11 -3 -27 -9.5t-32 -13.5t-30.5 -11.5t-23.5 -3.5q-4 16 3.5 22t17.5 13q20 13 40 23t43 15q15 4 22.5 7.5t11.5 19.5q11 47 28 91.5t34 88.5q10 23 19 40.5t20 40.5q5 11 10 21l10 20l100 197q-15 3 -39 -2.5t-48.5 -12.5t-47 -11.5t-34.5 1.5z" />
    <glyph glyph-name="asciicircum" unicode="^" horiz-adv-x="453" 
d="M111 470q-2 8 -1 10t5 7q10 10 26.5 21t29.5 19q5 4 6 6t5 5q5 4 7.5 4t7.5 4l63 54q6 6 11 13t10.5 13.5t12.5 11t16 5.5q10 1 19.5 -3.5t11.5 -12.5q3 -13 3 -24.5t1 -25t5 -29.5t15 -37q3 -5 5.5 -6.5t6.5 -6.5l6 -16q4 -9 6.5 -12.5t4 -5l3 -3t4.5 -6.5q1 -3 5.5 -12
t9.5 -19.5t9 -19.5t4 -11q-3 -6 -3 -5.5t-5 -5.5q-12 0 -17.5 3.5t-9.5 9t-8 11.5t-11 11q-11 8 -17.5 19.5t-15.5 23.5q-5 7 -12.5 23t-14.5 33t-12.5 32t-8.5 20q-11 -2 -23.5 -12t-21.5 -18q-12 -9 -29.5 -21.5t-36 -23t-37.5 -18t-35 -5.5z" />
    <glyph glyph-name="underscore" unicode="_" horiz-adv-x="409" 
d="M20 -61q1 10 8 15.5t16.5 8t20 3.5t18.5 3q20 4 39 6t39 3q30 0 41 1t19.5 1.5t22 0t46.5 -2.5l64 -2q17 -2 24.5 -7t3.5 -22q-3 -5 -15.5 -9.5t-28.5 -8t-30 -5t-20 -0.5q0 11 2 12t7 8q-12 1 -17 1.5t-8.5 0t-7.5 -1.5t-13 -1l-231 -4v0z" />
    <glyph glyph-name="grave" unicode="`" horiz-adv-x="216" 
d="M99 652q15 1 18.5 2t6.5 -1t9.5 -7.5t26.5 -16.5q12 -7 14 -8.5t4 -6.5q-6 -2 -6.5 -1.5t-8.5 2.5q8 -15 18.5 -31.5t16.5 -35.5q2 -6 0.5 -14.5t-9.5 -10.5q-6 -2 -9 2t-7.5 12.5t-13 20.5t-24.5 26q-8 7 -16.5 14t-14.5 15.5t-8 17.5t3 21z" />
    <glyph glyph-name="a" unicode="a" horiz-adv-x="226" 
d="M68 166q-28 -38 -49.5 -43.5t-30 10.5t-0.5 50t40 76q31 41 57 57t43 14t23 -20t-2 -45q-8 -23 -12.5 -33t-8 -13.5t-6 -3.5t-5.5 -4q-3 -11 -7 -27t-6.5 -33.5t-2 -34t6.5 -28.5q3 -4 10 -0.5t13 11.5l61 75q3 4 9.5 12.5t14 17t14.5 14t11 3.5q2 -1 4 -1t2 -8
q-1 -5 -6 -10l-92 -112q-11 -14 -22 -20.5t-20.5 -6t-17.5 6.5t-11 17q-8 26 -0.5 52.5t11.5 49.5zM28 155q9 4 18 13.5t17.5 20.5t16 22t13.5 18q13 11 29 6q6 14 9.5 22t6 15t2.5 14.5t-1 19.5q-10 4 -22.5 -4t-25.5 -23t-25 -34.5t-21 -38t-14 -32.5t-3 -19z" />
    <glyph glyph-name="b" unicode="b" horiz-adv-x="336" 
d="M-12 -25q-10 4 -14 9t-4.5 11.5t0.5 15t1 18.5q2 45 11.5 97.5t18.5 96.5q6 29 16 55.5t19 58.5l48 101q4 5 12 19.5t18 29t20 24.5t18 7q6 -3 5.5 -11t-4 -16.5t-8 -16.5t-6.5 -11q-6 -14 -11 -26t-10 -26q-5 -8 -6 -13.5t-4 -14.5q-3 -10 -5.5 -15t-5.5 -11.5t-7 -19.5
t-10 -38q-6 -28 -16.5 -54.5t-14.5 -58.5q11 18 23.5 39t26.5 41t30.5 37t36.5 28q37 21 60.5 20.5t35.5 -16t13.5 -44t-4.5 -63.5q27 4 43 0.5t34 -14.5q8 -5 3.5 -12.5t-15.5 -2.5q-17 8 -32 11q-13 2 -24.5 -0.5t-16.5 -16.5l-4 -13q-3 -13 -10.5 -33.5t-16.5 -41.5
t-18 -40t-15 -28q-9 -15 -13 -22.5t-8 -13.5t-10 -13t-18 -19q-5 -5 -14 -12.5t-20 -13.5t-23 -7.5t-23 6.5q-14 10 -16.5 32t5.5 49.5t24.5 57.5t40 57t52 48t61.5 29q2 12 6.5 27.5t7.5 31t1 28.5t-12 21q-17 7 -32 -0.5t-24 -15.5q-18 -15 -32 -28t-25.5 -26.5
t-22.5 -29.5t-24 -38q-14 -26 -27 -48t-25 -53q-5 -14 -11.5 -28.5t-6.5 -29.5q-1 -22 -2.5 -33.5t-19.5 -17.5zM85 -30q12 -1 25 11.5t25 30t21 36t14 28.5q3 6 9.5 18t14 26t15 29.5t10.5 29.5q-10 -3 -23 -13.5t-26.5 -23.5t-25 -26.5t-17.5 -22.5q-10 -14 -13.5 -18.5
t-5 -7.5t-3.5 -8.5t-10 -21.5q-3 -7 -7 -15.5t-6.5 -17.5t-2 -17.5t5.5 -16.5z" />
    <glyph glyph-name="c" unicode="c" horiz-adv-x="181" 
d="M176 208q4 6 8.5 9.5t8.5 0.5q4 -4 0.5 -9.5t-6.5 -10.5q-4 -5 -14.5 -19.5t-25.5 -32t-32.5 -36.5t-35.5 -33.5t-34.5 -22.5t-28.5 -3q-23 8 -31.5 29.5t-7 49t12 58.5t26 57.5t34 45.5t37.5 24q14 4 24.5 -1.5t15.5 -14.5q5 -10 3.5 -25t-3.5 -25q-5 -19 -10 -27.5
t-15 -5.5q-7 2 -4 15.5t7 28t4 25.5t-13 9q-5 -1 -7.5 -2.5t-6.5 -3.5q-8 -5 -18 -21.5t-19 -38.5t-16.5 -47t-11.5 -47t-2.5 -37.5t9.5 -18.5q12 -5 34.5 11.5t46.5 40t44 46.5t27 32z" />
    <glyph glyph-name="d" unicode="d" horiz-adv-x="201" 
d="M117 273q9 9 18 27.5t18.5 40t19.5 44t19.5 39t19 24.5t18.5 1q6 -5 2.5 -20.5t-11 -35.5t-16 -40.5t-12.5 -35.5q-2 -6 -1.5 -9.5t-1.5 -9.5q-2 -9 -3 -8t-5 -6q-5 -9 -5 -18.5t-3 -18.5q-9 -21 -13 -34.5t-6 -22.5t-2.5 -16t-2.5 -14t-8.5 -22.5t-7.5 -27.5
q-2 -20 -9 -36t-10 -35q-1 -10 -5.5 -30t-11 -40.5t-16 -36.5t-19.5 -16l-14 3q-9 5 -8.5 24.5t5.5 43.5q3 16 5 33t7 31q2 7 7.5 24.5t10.5 37.5t9 37t3 23q-3 -4 -13.5 -19.5t-23 -32.5t-25 -30.5t-20.5 -14.5q-18 -2 -26 11t-7.5 34t8 47t20 50.5t28 44t31.5 28.5
q13 7 21.5 6.5t14.5 -4.5t11 -10t10 -10zM5 105q17 14 28 32t24 39l49 76q-16 23 -29.5 17.5t-26.5 -25.5q-7 -11 -15.5 -30.5t-16 -40.5t-11.5 -40t-2 -28z" />
    <glyph glyph-name="e" unicode="e" horiz-adv-x="168" 
d="M185 220q4 -3 2 -9.5t-7 -14t-11 -15.5t-9 -13q-16 -20 -34.5 -41t-41.5 -35q-30 -21 -51 -19t-33.5 17t-16 39t2.5 48q13 50 38.5 77t47.5 32.5t32 -9.5t-9 -50q-15 -27 -27 -40.5t-21 -20t-14 -10.5t-6 -13q-1 -22 7 -29t20.5 -4t27 12.5t26.5 21.5q8 8 18 18.5
t18 21.5q11 14 21.5 27t19.5 9zM34 183q7 3 17 13t18.5 21t12 21t-0.5 13q-6 2 -12.5 -4.5t-13.5 -17t-12.5 -23t-8.5 -23.5z" />
    <glyph glyph-name="f" unicode="f" horiz-adv-x="210" 
d="M61 138q9 -4 18.5 -8.5t16.5 -13.5t11 -25t1 -43q-2 -23 -10 -51.5t-18.5 -58t-23 -56t-24.5 -44.5q-3 -5 -8.5 -17.5t-13 -26.5t-16.5 -25.5t-19 -14.5q-8 -2 -15 0t-12.5 6.5t-9.5 10t-6 10.5q-4 10 -4 30.5t-2 33.5q-5 27 -4 48t6 48q2 12 5 14t4 14q3 34 4.5 45
t3 14.5t3.5 7t7 21.5q2 10 1.5 17t1.5 15q2 10 4.5 14t4.5 8t3 10t1 20q0 11 1.5 13.5t4.5 5t6 8.5t6 24q1 7 2.5 9.5t3 4t3 4t3.5 8.5q4 15 7 20t6 9.5t6.5 13.5t9.5 32q3 12 6 17.5t6 9t6.5 7t7.5 11.5q5 10 4.5 15.5t2.5 12.5q2 5 6 8.5t9 11.5q8 14 12 25t15 21
q10 11 13.5 16t4.5 8.5t2.5 6.5t8.5 10q6 5 15.5 14.5t21 18.5t24.5 15t26 4q12 -2 22 -13.5t10 -27.5q0 -18 -6 -38t-15.5 -40t-20.5 -38t-20 -31l-92 -122q-9 -9 -14.5 -13.5t-9 -8t-5.5 -7.5t-3 -11q11 3 20 7l18 8q10 4 18 6.5t18 5.5q11 4 32 10t37 7q10 1 14 -2t3 -7
t-5 -8t-9 -5q-6 -1 -12.5 -2.5t-13.5 -3.5q-11 -3 -30.5 -9t-39 -13t-35.5 -15.5t-21 -15.5zM78 220q7 3 18 16t24 31t26.5 39t25.5 41t20.5 36.5t12.5 24.5q8 20 16.5 40t1.5 43q0 2 -3 3q-6 2 -19 -6q-8 -5 -16 -15t-15.5 -21t-13.5 -22t-9 -18l-29 -75q-7 -12 -9 -17
t-6 -20q-5 -20 -13 -40t-12 -40zM3 -146q9 12 22 39.5t25 59.5t20.5 62.5t8.5 48.5q0 25 -5.5 34.5t-12.5 10.5t-12.5 -3t-6.5 -5q-1 -11 0 -21.5t-4 -19.5l-4.5 -7.5t-3 -5.5t-2 -7.5t-0.5 -13.5q0 -16 -2 -22.5t-3 -16.5q-1 -19 -3.5 -21t-4.5 -5.5t-4 -17t-2 -54.5
q0 -9 -1 -12.5t-2.5 -6t-2 -5.5t-0.5 -11z" />
    <glyph glyph-name="g" unicode="g" horiz-adv-x="397" 
d="M243 222q-14 2 -32.5 -5.5t-37 -19.5t-35 -25t-26.5 -23q-5 -5 -7.5 -5.5t-7.5 -5.5l-89 -85q-23 -18 -36 -11t-16.5 25.5t1 43.5t15.5 44q12 19 15.5 35.5t18.5 33.5q5 6 6 5.5t6 7.5q4 7 6 13t3.5 11t5 10.5t11.5 12.5q2 1 7 8.5l11 16.5t13 18.5t13 14.5q3 3 4.5 3.5
t3 0.5t3 1t4.5 5t3.5 6t0.5 3t1 2.5t5 4.5q6 5 6.5 6t5.5 7q13 14 30.5 31.5t35.5 26.5q10 6 14 11t15 11q8 4 17.5 6.5t17.5 5.5q14 5 20 7.5t20 -4.5q9 -4 16.5 -9t12.5 -13q8 -17 2.5 -41.5t-17.5 -50t-27 -48.5t-25 -37q-5 -7 -10.5 -14t-8.5 -15q19 -6 27 -14.5
t10.5 -19.5t2.5 -23.5t3 -27.5q9 3 22.5 10.5t29.5 16.5t31.5 17t29.5 13q7 3 12.5 1t7.5 -6t-0.5 -9t-9.5 -9t-16.5 -8.5t-21.5 -13.5q-15 -11 -28.5 -19.5t-27.5 -19.5q-9 -7 -15.5 -11t-11 -9.5t-7.5 -13.5t-6 -22q-4 -20 -9 -36.5t-10 -36.5q-5 -21 -20 -55.5t-34.5 -70
t-41.5 -66.5t-43 -45q-8 -6 -21.5 -13.5t-27.5 -10.5t-25.5 2t-15.5 25q-2 11 -1 21.5t1 20.5q1 14 9.5 38.5t20 49.5t23.5 46t19 30q7 7 12 11t10 15q8 16 17.5 26.5t23.5 24.5q23 24 46.5 47.5t53.5 40.5q4 23 1.5 42.5t-15.5 35.5zM26 115q12 9 31.5 27t41 36t41.5 33
t31 19l27 11q13 7 21 13.5t14.5 15.5t13 21.5t17.5 32.5q6 11 13 25t12 29.5t6 30.5t-5 29q-16 0 -29 -6.5t-24 -15.5t-19.5 -19t-15.5 -17q-18 -19 -30 -33.5t-22 -28.5t-19.5 -29t-22.5 -34q-7 -10 -6.5 -13.5t-3.5 -11.5q-2 -5 -8 -10.5t-10 -9.5q-7 -7 -10 -14t-4.5 -13
t-3.5 -12t-6 -11q-1 -2 -5 -6.5t-9 -10.5t-9.5 -13.5t-6.5 -14.5zM48 -204q0 -20 9.5 -20t22 9t24.5 22.5t17 21.5q13 20 25.5 35.5t23.5 36.5q8 15 18.5 36.5t21 44.5t19 46t12.5 42q-6 -3 -14.5 -10t-17 -15.5t-16 -17t-12.5 -14.5t-8.5 -8t-6.5 -5q-6 -6 -5 -8.5t-7 -8.5
q-9 -7 -14.5 -12.5t-10 -12.5t-10.5 -16t-16 -22q-7 -9 -16.5 -25.5t-18 -34t-14.5 -34t-6 -26.5v-4z" />
    <glyph glyph-name="h" unicode="h" horiz-adv-x="278" 
d="M152 211q-6 -2 -13.5 -9t-14.5 -16t-13.5 -18.5t-11.5 -16.5q-5 -8 -14 -22.5t-18.5 -31.5t-17.5 -32.5t-12 -24.5q-9 -22 -15 -42t-13 -32.5t-16 -14.5t-23 12q-7 7 -8.5 10.5t-1.5 7t0.5 8.5t-0.5 14q-3 14 -3.5 24.5t2.5 24.5q13 66 25 112.5t25.5 83.5t30 69.5
t38.5 70.5q7 14 20 32t28 35.5t31 31.5t31 20q10 4 20.5 4t17.5 -6t9 -18.5t-4 -32.5q-7 -24 -21.5 -54t-33 -59.5t-40.5 -56.5t-45 -46q-3 -3 -6.5 -12t-6.5 -20.5t-5 -21.5t-3 -14q8 7 16 19t18 23t21 20t25 11q15 2 23 -10.5t14 -28.5t11.5 -31t14.5 -18q7 -3 17 3.5
t19.5 17t17.5 21.5t11 17q6 10 11.5 13t9 1.5t4.5 -6t0 -8.5q-2 -7 -10 -18.5t-18.5 -23.5t-22.5 -23t-21 -16q-20 -12 -31.5 -4t-19 23.5t-13.5 33t-15 25.5zM101 275q16 15 34 41.5t33 56t25 57.5t12 46q-17 -8 -33.5 -34t-31 -57.5t-25 -62t-14.5 -47.5z" />
    <glyph glyph-name="i" unicode="i" horiz-adv-x="154" 
d="M21 48q-26 0 -34.5 18.5t-8.5 43.5t6 50.5t11 39.5q5 16 10 27t22 11q11 0 19.5 -8t8.5 -18q0 -19 -6 -33.5t-12.5 -29.5t-9.5 -31.5t3 -39.5q15 0 24 6.5t21 19.5q7 7 18 20.5t22.5 29t21.5 30.5t15 24q6 12 14 11.5t0 -21.5q-5 -14 -15.5 -31t-22.5 -33t-23.5 -29.5
t-19.5 -22.5l-5 -5l-5 -4q-11 -8 -23 -16.5t-31 -8.5zM34 264q-8 12 -9 24.5t7 27.5t15 18.5t25 -4.5q4 -3 7.5 -15t1.5 -24.5t-12.5 -21t-34.5 -5.5z" />
    <glyph glyph-name="j" unicode="j" horiz-adv-x="137" 
d="M-205 -238q0 15 5.5 34t13 37.5t16.5 36t15 29.5q8 16 17 30.5t17 28.5l39 53q5 7 9.5 14t9.5 15q6 9 12 15t11.5 15t11 23t11.5 38q5 20 8 36t7 39q1 10 3.5 22.5t5.5 23.5t6 19.5t7 10.5q3 2 9.5 1t8.5 -3q9 -5 10 -18t-1.5 -28.5t-6 -30.5t-3.5 -24q0 -12 -2.5 -20.5
t-3.5 -19.5q5 5 7 6t8 6t17 14.5t24.5 20t27 20t25.5 14.5q9 3 12.5 -3.5t-3.5 -11.5q-8 -7 -21.5 -15.5t-29.5 -21.5q-27 -21 -42.5 -34.5t-24 -22.5t-11.5 -15.5t-5 -14t-4 -17.5t-9 -26q-9 -23 -12.5 -33t-4.5 -16t-2 -12.5t-6 -24.5q-4 -14 -8 -21t-6 -22
q-5 -22 -14.5 -40.5t-10.5 -20.5q-2 -8 -1.5 -11t-4.5 -12l-26 -56q-2 -6 -3 -8.5t-2.5 -3.5t-3 -1.5t-3.5 -3.5q-2 -4 -3.5 -10.5t-3.5 -11.5q-3 -8 -11 -21t-18 -25t-21 -19t-20 -3t-13.5 16.5t-6.5 28.5t-2 31v24zM-174 -278q6 5 10 14.5t7 19.5t4.5 18t2.5 10l24 65
q3 11 6.5 16.5t5.5 11.5q5 25 17 50.5t16 50.5q-7 -6 -17.5 -23t-15.5 -27q-11 -19 -22 -43t-20 -50t-14.5 -52t-5.5 -49zM20 309q-5 12 -3.5 30t9.5 29q3 4 8.5 7.5t11.5 5t12.5 0.5t10.5 -7q5 -7 5 -20t-5 -25.5t-14.5 -20.5t-24.5 -5z" />
    <glyph glyph-name="k" unicode="k" horiz-adv-x="343" 
d="M231 555q8 -6 12 -8t7 -13q6 -23 -3 -50.5t-17 -46.5q-24 -58 -58 -103.5t-76 -87.5q-5 -5 -12 -17t-14 -27.5t-13 -33t-9 -33.5q-1 -6 4 0t13 16.5t16 22t13 17.5l102 102q5 4 13.5 9.5t19 10t21.5 6.5t20 -1q19 -7 14.5 -28t-19.5 -45.5t-35 -47.5t-33 -33
q-21 -18 -44.5 -32.5t-50.5 -22.5q21 -19 44 -22.5t46 2.5t44.5 19.5t39.5 28.5t31 29.5t20 23.5q4 6 8.5 13t9 11.5t10.5 6.5t14 -1q2 -11 1 -16t-7 -12l-41 -48q-37 -43 -69.5 -64.5t-59.5 -28.5t-50 -3t-40 11t-29.5 14t-19.5 6q-8 -1 -17.5 -21t-17.5 -40
q-5 -14 -6 -24.5t-1.5 -20t-2 -18t-5.5 -17.5q-4 -8 -11 -9.5t-14 0.5t-13 7t-8 10q-5 10 -3.5 13.5t1.5 13.5q0 6 -2 11.5t-1 13.5q13 93 33 171t53 153q3 7 5 11t3.5 7.5t3.5 8t5 13.5q2 6 11 21.5t20 33t21.5 33t15.5 22.5l12 17l42 44q11 8 17.5 11.5t17.5 10.5h18z
M97 276q8 4 21.5 20t28.5 39t30 50t26 53t15.5 47.5t0.5 33.5q-9 -6 -18.5 -19.5t-19 -30t-18 -34t-14.5 -29.5zM110 157q10 3 25 12.5t30 22.5t28.5 26.5t21.5 22.5q7 8 15 16.5t8 22.5q-11 -3 -30.5 -18.5t-39.5 -35t-36.5 -39t-21.5 -30.5z" />
    <glyph glyph-name="l" unicode="l" horiz-adv-x="223" 
d="M246 220q2 -4 -2.5 -13.5t-11.5 -20t-15 -20.5t-12 -14q-14 -16 -20.5 -24t-10 -13.5t-6.5 -10t-10 -13.5l-64 -79q-9 -11 -16.5 -25t-19.5 -28q-6 -7 -12.5 -14t-17.5 -10q-25 -6 -38.5 17.5t-18.5 58.5t-2 73.5t12 63.5q4 11 7 27.5t7 28.5l45 98l14 23q7 13 12 23.5
t10.5 20t12.5 20.5t19 26q5 6 8 8.5t8 10.5q8 12 15.5 20t17.5 18q5 5 15 14t22 18.5t24 17.5t20 11q20 9 28 1t9.5 -23t-2.5 -32t-8 -27q-11 -27 -24 -49t-27 -43q-24 -36 -41.5 -56t-31 -32.5t-24.5 -21.5t-22 -22q-8 -9 -14.5 -31.5t-16.5 -46.5q-5 -11 -4 -16.5
t-1 -13.5q-1 -2 -5 -12t-6 -12q-6 -13 -5 -25t-5 -31q-5 -13 -6.5 -29.5t1.5 -28.5q7 5 17 16.5t20.5 25.5t20.5 28t19 24l13 16l12 13l77 95q12 17 19.5 21.5t14.5 -1.5zM105 261q10 4 15.5 10t12.5 14q5 5 6 7t5 7q2 3 5.5 5.5t5.5 5.5q12 15 29 40.5t32 53.5t25.5 55.5
t9.5 45.5q-6 -3 -14 -10.5t-15 -15t-12 -14t-6 -9.5l-40 -71q-3 -4 -4.5 -5t-2.5 -2.5t-2.5 -5t-4.5 -12.5q-5 -17 -13 -30.5t-15 -24.5t-12 -21.5t-5 -22.5z" />
    <glyph glyph-name="m" unicode="m" horiz-adv-x="432" 
d="M72 224q4 4 5 6t2 4.5t4.5 8.5t13.5 18l41 54q4 3 7.5 5.5t8 6t11 9t15.5 14.5q3 3 9 7t13.5 8t15 7t12.5 4q20 3 27 -9.5t5.5 -35t-9 -50t-16 -53t-16.5 -45.5t-9 -27q6 4 5 2.5t4 4.5q5 5 16 18t24.5 26.5t27.5 22.5t26 5q16 -11 21 -24.5t5 -29.5t-1 -33.5t4 -35.5
q10 1 22 11t23 23.5t20 28t15 23.5q7 11 10 19t17 6q4 -9 -2 -24.5t-16.5 -31.5t-22.5 -29.5t-20 -19.5q-4 -3 -10.5 -11t-15 -15t-19 -10.5t-21.5 1.5q-9 4 -12.5 20t-4 35.5t0.5 37.5t0 26q-16 -3 -26.5 -16t-18.5 -24q-5 -5 -10.5 -10t-10.5 -11l-54 -70
q-6 -9 -15.5 -26.5t-15.5 -24.5q-7 -3 -14 0t-11.5 13t-5 26.5t5.5 39.5q5 20 10 39.5t13 39.5q6 15 15.5 34t19 39.5t16.5 40t8 34.5q-8 -5 -17.5 -14.5l-17.5 -17.5q-5 -5 -7 -9t-7 -9q-9 -10 -12 -11.5t-5 -4t-7 -9.5t-18 -29q-6 -10 -13.5 -17.5t-14.5 -18.5
q-9 -14 -18 -33.5t-17 -38.5t-15 -35t-11 -22t-5.5 -11.5t-4 -9.5t-7 -7t-13.5 -5q-14 8 -21 14.5t-10.5 14.5t-4 20.5t0.5 33.5q1 28 7 50t15 45q3 8 4 9t2.5 2t5 6t10.5 21l36 53q3 4 8.5 11.5t12.5 13.5t14 9.5t13 -0.5q5 -6 2.5 -19.5t-8 -28.5t-12 -30t-7.5 -25z" />
    <glyph glyph-name="n" unicode="n" horiz-adv-x="311" 
d="M-35 64q0 14 3 25.5t6 23.5q4 18 6.5 32.5t6.5 30.5t10.5 35.5t18.5 45.5q6 14 15.5 38t21.5 46t25.5 34.5t28.5 2.5q8 -6 8 -18.5t-4.5 -27.5t-10.5 -31t-9 -28q-7 -24 -14 -52t-10 -52q3 2 13.5 14t24 26.5t29.5 28t31 18.5q15 4 24.5 0t14.5 -11.5t7.5 -15.5t3.5 -11
q5 -14 7 -25t3.5 -19.5t2.5 -16t5 -13.5q7 1 17.5 8.5t22 17t20.5 20t13 17.5q5 8 10.5 11.5t16.5 -3.5q3 -13 -9.5 -31.5t-32 -36t-41 -29.5t-36.5 -12q-17 0 -25 11.5t-11.5 28t-4 33.5t-1.5 28q-14 -2 -19 -5.5t-9 -8.5t-9 -12.5t-17 -17.5l-41 -55q-5 -8 -9.5 -14
t-9.5 -14l-31 -65q-4 -9 -14 -15t-20.5 -2.5t-19 19t-8.5 47.5z" />
    <glyph glyph-name="o" unicode="o" horiz-adv-x="237" 
d="M-23 122q0 24 10.5 58.5t27.5 67t38.5 55t42.5 22.5q9 0 15 -11t5 -21q-1 -13 -0.5 -16.5t3 -5t5.5 -3.5t6 -11q2 -8 2.5 -13.5t7.5 -10.5q19 -15 36.5 -17.5t32.5 0.5t26.5 7t18.5 3q2 -14 -2 -17t-14 -8q-16 -8 -30.5 -10t-27 -1t-23 3t-19.5 3q-3 -18 -10 -45
t-18.5 -52t-28 -43t-39.5 -18q-16 0 -28 7t-20.5 19t-12.5 27t-4 31zM49 81q10 9 14.5 13.5t12.5 20.5q8 19 15.5 47.5t9.5 49.5q1 12 -1 13.5t-8 7.5q-5 5 -5.5 8.5t-3.5 9.5q-1 -1 -1.5 -1t-3.5 -3l-11 -34q-8 -35 -14.5 -64.5t-3.5 -67.5z" />
    <glyph glyph-name="p" unicode="p" horiz-adv-x="388" 
d="M-83 -139q0 23 2 40.5t5 32.5t6.5 29t6.5 31q2 12 1.5 21t3.5 21q6 20 9 27t4.5 11.5t2.5 12t4 28.5q1 5 2 7.5t2.5 5t4 7.5t5.5 16q3 10 6 18t7 18t7 18t8 18q3 7 3 10.5t2 9.5q2 7 4 7t5 7q2 5 2.5 8t3.5 10l83 140q5 9 11.5 11t18.5 -3q4 -17 -3 -27.5t-12 -23.5
q-4 -12 -11.5 -34t-15 -45.5t-13.5 -44.5t-7 -30q6 3 15.5 16t22.5 30t29 37t35 38q10 10 26.5 25t35 29t37.5 24t35 10q30 0 33.5 -18.5t-5.5 -43.5t-24 -49t-22 -36q-5 -7 -4.5 -9t-4.5 -7q-4 -4 -6.5 -5.5t-4.5 -6.5q-9 -17 -15 -24t-10 -10.5t-7 -7t-6 -13.5q4 1 16.5 6
t29.5 10.5t37.5 10t40.5 4.5q33 0 39 -3.5t6 -18.5q-22 1 -39 0.5t-32.5 -3.5t-31.5 -9.5t-37 -17.5q-6 -3 -12.5 -4.5t-12.5 -5.5q-7 -4 -9 -7t-10 -7q-20 -10 -27.5 -15t-11 -8t-6 -7t-10.5 -13l-49 -49q-4 -4 -14.5 -13.5t-23.5 -18.5t-24.5 -14.5t-17.5 -1.5
q-7 5 -5.5 12.5t6 15.5t11 15.5t9.5 11.5q12 14 20 22t22 19q6 5 18 16.5t24.5 25t23.5 25.5t15 17l37 49q7 7 18.5 19.5t22.5 26t20.5 25.5t13.5 20q6 11 15 28t9 29q0 11 -11 7.5t-28 -15.5t-37.5 -29t-39 -34t-32.5 -30t-18 -17q-5 -4 -19.5 -23t-31 -41.5t-30.5 -43
t-18 -28.5q-7 -14 -8.5 -24.5t-5.5 -19.5q-6 -11 -10.5 -19.5t-6.5 -25.5q-1 -9 -1 -14t-1 -9.5t-3 -9t-6 -11.5q-13 -21 -16.5 -44t-8.5 -49q-2 -8 -4.5 -21.5t-6 -27.5t-7 -26.5t-7.5 -17.5q-23 -2 -32.5 10.5t-9.5 34.5z" />
    <glyph glyph-name="q" unicode="q" horiz-adv-x="307" 
d="M-45 109q0 15 11 40.5t26.5 52.5t32 50t27.5 34l7.5 7.5l6.5 6.5q18 19 36 30.5t32.5 12.5t23.5 -8.5t9 -31.5v-15.5t-0.5 -12t-2 -11.5t-2.5 -16q10 5 14.5 8.5t19.5 0.5q1 -5 -4.5 -21t-13.5 -36.5t-16.5 -41t-12.5 -33.5t-10 -31.5t-12 -38t-11.5 -37.5t-6.5 -30
q7 7 15.5 21t18 29t19.5 29.5t20 22.5q1 1 7.5 9t15 18.5t16.5 20.5t13 14l30 27q5 5 8 6.5t8 6.5q6 5 12.5 11t13 10t12.5 5t12 -4q-2 -9 -3.5 -10t-7.5 -7l-73 -83q-9 -13 -13 -16.5t-6.5 -6t-5.5 -6t-9 -16.5q-6 -12 -11 -16t-10 -14q-11 -23 -25 -41t-28 -40
q-3 -5 -5 -8.5t-4 -7.5q-8 -11 -9 -18t-7 -18q-3 -5 -6 -9t-5 -7l-23 -54q-4 -10 -10 -25.5t-12 -32.5t-10.5 -33.5t-6.5 -27.5q-2 -7 -3.5 -22t-7.5 -20q-14 -5 -20.5 -3t-9 8.5t-3.5 16.5l-2 20q-5 30 -5 47t2.5 28t5.5 19.5t4 23.5l16 73q3 8 6 15t5 15q11 31 22.5 65
t26.5 60q7 12 10.5 19.5t5.5 13.5l4 12t7 14q7 11 17 27t13 30q-12 -5 -13.5 -10t-8.5 -13q-8 -8 -20 -18t-24.5 -20.5t-24.5 -21t-19 -17.5q-13 -12 -25.5 -13.5t-22 4t-15.5 16.5t-6 23zM58 159q8 7 17 18t20 18l40 30q8 8 12.5 31t1.5 41t-15 19.5t-38 -32.5
q-9 -12 -20.5 -34t-23 -46t-20 -45.5t-9.5 -32.5z" />
    <glyph glyph-name="r" unicode="r" horiz-adv-x="233" 
d="M-16 35q-13 9 -15.5 27t0.5 39.5t9 44t10 42.5l55 135q5 8 10.5 20.5t13 23t17 16t22.5 -0.5q3 -9 1.5 -18t-5 -18t-8 -18t-7.5 -17q-3 -10 -4 -13.5t-1.5 -5.5t-1.5 -5.5t-3 -13.5q42 32 73.5 49.5t50.5 22.5q7 2 15 5t16 4.5t15 0t10 -10.5q-9 -7 -23.5 -11.5
t-25.5 -11.5l-94 -71q-34 -26 -50 -60.5t-27 -63.5q-5 -14 -9.5 -26.5t-10.5 -26.5t-12 -25t-21 -13z" />
    <glyph glyph-name="s" unicode="s" horiz-adv-x="209" 
d="M58 175q-3 4 -6 5.5t-7 3t-10 4.5t-16 9q-9 6 -15.5 11.5t-10.5 19.5q-4 13 -1 24t9 20t13.5 16.5t13.5 15.5q8 10 14.5 16t13.5 11.5t15 10.5t19 13q33 22 55 28t32.5 -1t9.5 -24t-15 -40q-9 -16 -14 -26l-8 -16t-7 -8.5t-11 -3.5q3 13 10 26t13.5 25.5t11 24.5t1.5 25
q-9 2 -22.5 -5t-28 -19t-29.5 -27.5t-27 -31t-19 -29.5t-6 -23q1 -14 13 -20.5t25 -11.5q15 -7 27.5 -2.5t24.5 9.5q13 6 24 10.5t25 7.5q5 1 13 3t15.5 2.5t14 -1t9.5 -7.5q3 -8 2 -10.5t-4 -2t-7.5 2.5t-7.5 2q-7 1 -19.5 -3t-25.5 -10.5t-24.5 -13t-16.5 -10.5
q1 -11 4.5 -18.5t5.5 -15.5t1 -18.5t-9 -28.5l-38 -61q-11 -14 -22.5 -26t-28.5 -21q-14 -8 -32 -17t-36 -10q-23 -1 -34.5 15.5t-6.5 41.5q4 21 15 39t23.5 32.5t23.5 25.5t17 18q3 4 4 5.5t2 1.5t2 0.5t6 3.5q7 5 6.5 5.5t4.5 5.5q8 8 13.5 11t12.5 11zM-43 -5q17 1 31 7
t26 15t22 19l18 18q7 8 17.5 18t18.5 22.5t11.5 27.5t-1.5 32q-7 -1 -20 -10.5t-29 -23.5t-33 -31.5t-30.5 -34.5t-22 -33t-8.5 -26z" />
    <glyph glyph-name="t" unicode="t" horiz-adv-x="183" 
d="M-19 421q0 4 -1.5 6t-1.5 2.5t2 1t7 2.5l46 12q34 8 51 10.5t26 4.5t14 7.5t15 20.5q8 11 16.5 20.5t25.5 10.5q2 -10 1 -16.5t-3.5 -12l-5 -11t-3.5 -12.5q18 -2 35.5 -2t35 -0.5t33.5 -3.5t30 -10l-1 -19q-11 1 -19.5 3t-17.5 3q-32 5 -59.5 2t-56.5 -5
q-9 -14 -13.5 -25.5t-7 -21.5t-5 -19t-6.5 -16q-5 -8 -7 -14t-2.5 -10.5t-0.5 -9t-3 -10.5q-3 -8 -5.5 -11t-4 -6t-2.5 -8.5t-1 -16.5q-12 -11 -12 -23.5t-5 -28.5q-2 -6 -3 -8t-1.5 -4.5t-1 -6l-1.5 -10.5q-1 -13 -3 -13.5t-10 -7.5q-1 -12 -0.5 -16t0 -6t-2 -5t-6.5 -14
l-33 -131q2 3 5.5 6t7.5 8q9 12 27 38t36.5 53t34 49t20.5 27t11.5 13t14 15.5t15 12.5t15.5 5q5 -7 4 -13t-5 -12t-10 -11t-10 -9q-38 -38 -67.5 -86t-60.5 -91q-9 -12 -18 -26.5t-19 -26t-20 -17.5t-21 -1q-17 8 -21 31.5t-1 52t9.5 55.5t9.5 41l24 90q4 9 5 11.5t0.5 3.5
t-1 3t1.5 8q5 14 12 24t12 29q4 17 11.5 29.5t11.5 22.5t6.5 14.5l5 9t5.5 10.5t8 18q6 16 14 25.5t13 24.5q-10 0 -27 -3t-35 -5.5t-33.5 -3.5t-22.5 3z" />
    <glyph glyph-name="u" unicode="u" horiz-adv-x="258" 
d="M8 88q8 8 28.5 38t44 65.5t47 69.5t37.5 51q8 9 14 17.5t14 17.5q8 11 13.5 18.5t23.5 4.5q4 -10 2 -20.5t-6.5 -21t-10.5 -20t-10 -18.5q-14 -27 -21.5 -46t-13 -37t-11 -36.5t-13.5 -43.5l-23 -88l74 100q4 5 4.5 7t4.5 6q5 7 16 22t22.5 27.5t21 18t12.5 -5.5
q-1 -16 -12.5 -31t-19.5 -26l-109 -151q-18 -20 -30.5 -17t-20 17.5t-10 35.5t0.5 39q2 16 8.5 35.5t14 37.5t14 32.5t8.5 21.5q-15 -17 -29.5 -40t-29 -45.5t-29 -42t-30.5 -31.5q-19 -1 -26.5 10.5t-7.5 30.5q0 24 8.5 57.5t20.5 64t26.5 52t26.5 20.5q10 0 10 -10
t-4.5 -24.5t-11 -31t-10.5 -29.5q-4 -14 -8.5 -25l-9 -22t-7.5 -23.5t-3 -30.5z" />
    <glyph glyph-name="v" unicode="v" horiz-adv-x="219" 
d="M19 105q8 6 12 19.5t9 22.5q20 37 48 77t60 69l51 44q8 7 15.5 12.5t14.5 8.5t14 2t13 -8q-2 -11 -5.5 -12t-11.5 -8q-6 -6 -18 -20t-25.5 -30t-25.5 -30.5t-19 -21.5q-6 -6 -9 -11t-8 -11q-5 -5 -9 -8.5t-8 -9.5l-87 -142q-8 -16 -14.5 -24t-28.5 -4q-11 6 -11.5 31.5
t3 55.5t8.5 56.5t7 35.5q3 12 5.5 29t6.5 32.5t9.5 28t13.5 15.5q11 -8 10 -30t-6 -50.5t-10.5 -60t-3.5 -58.5z" />
    <glyph glyph-name="w" unicode="w" horiz-adv-x="396" 
d="M120 18q13 4 28 23.5t30 43.5t27.5 48.5t20.5 40.5t14.5 27.5t11 22t6.5 21t2 25.5q0 29 6.5 53.5t23.5 45.5h22q10 -17 9.5 -34.5t-5.5 -37.5q-2 -10 -9 -28t-9 -35.5t5 -30.5t34 -13q12 0 23.5 5.5t21 11t17 9t11.5 0.5q3 -6 1.5 -10.5t-5 -8t-8.5 -6.5t-9 -6
q-20 -17 -35.5 -22.5t-28 -3.5t-24 9t-24.5 15q-11 -16 -15.5 -29t-7.5 -18q-3 -4 -5 -5.5t-5 -6.5q-9 -16 -24 -39.5t-32.5 -45.5t-36 -38t-34.5 -16q-10 0 -17 6t-12 15.5t-7.5 20.5t-3.5 20q-3 26 4 47t6 41q-14 -22 -27 -43.5t-29 -44.5q-6 -9 -13 -22t-15 -24
t-18.5 -19t-23.5 -8q-10 9 -13.5 18t-4.5 27q0 25 7 56t18.5 64t26 64.5t29 56t27.5 40.5t21 17q17 2 18 -7t-6 -20q-15 -23 -25.5 -42.5t-20.5 -48.5q-11 -30 -23.5 -69.5t-18.5 -72.5l57 102q16 24 24 32t11 13q5 8 8.5 13t7.5 9t10 7t16 6q8 -6 12.5 -12.5t4.5 -17.5
t-8 -36.5t-15.5 -55t-10.5 -57t7 -42.5z" />
    <glyph glyph-name="x" unicode="x" horiz-adv-x="366" 
d="M102 224q12 15 22 31t21 31q7 9 20 25t27.5 33t28 32t22.5 22q5 4 12 11t15 13.5t17 11t19 3.5q3 -13 -5 -25t-14 -20q-7 -10 -9 -9.5t-3.5 1.5t-5.5 -2.5t-16 -21.5q-7 -10 -14.5 -21.5t-13.5 -17.5q-5 -6 -21.5 -29t-34 -50t-32 -50t-16.5 -29q-2 -7 -0.5 -13t5 -11
t7 -9.5t5.5 -9.5q4 -12 5.5 -15t1.5 -2.5t0.5 0.5t3.5 -6q1 -3 4.5 -11t9 -17t13 -16.5t17.5 -8.5q21 -3 38 6t31 23t25 29.5t20 24.5q8 9 14 19t12 19q19 25 31.5 47t26.5 21q5 -14 2.5 -18t-8.5 -13q-15 -25 -27.5 -45t-26 -38.5t-29 -37t-37.5 -40.5q-11 -11 -21.5 -20.5
t-22.5 -14.5t-27.5 -4.5t-36.5 10.5q-13 5 -25 13.5t-20 20.5l-31 49l-39 -63q-3 -6 -6 -10.5t-5 -9.5q-6 -11 -11 -22.5t-11 -22.5q-4 -9 -10 -19.5t-12 -18t-12 -11t-11 2.5q-10 15 -4 35.5t13 36.5l45 89q5 8 8.5 11.5t8.5 15.5q11 25 21 37.5t9 18.5q-4 8 -5.5 12
t-1.5 7.5t0.5 8t-0.5 13.5q-2 13 -3.5 19.5t-2.5 22.5q-6 -4 -10.5 -12t-9.5 -16.5t-12.5 -15.5t-18.5 -7q-12 0 -12.5 5.5t4 12t11 13.5t8.5 10q7 8 12.5 17.5t10.5 20.5q10 22 10 36t-3 23.5t-4 17t8 18.5q11 -2 14 -8.5t8 -20.5q3 -11 7.5 -29t9.5 -36.5t9.5 -33.5
t7.5 -19z" />
    <glyph glyph-name="y" unicode="y" horiz-adv-x="385" 
d="M31 98q3 1 3.5 0.5t1.5 0t2 3.5t5 10l105 175q10 16 16 23t10 11.5t8 8.5t12 13q11 14 26 26.5t35 14.5q23 2 35 -12.5t17 -37.5t4 -52t-4.5 -55.5t-7.5 -48.5t-6 -31l88 63q8 7 13.5 9.5t15.5 -5.5q0 -11 -12 -23t-28 -23.5t-31.5 -22t-24.5 -17.5l-38 -42l-41 -112
q-7 -24 -16.5 -53.5t-22.5 -58.5t-30 -54.5t-39 -40.5q-8 -5 -17 -10.5t-18.5 -8t-18.5 -1t-16 11.5q-12 15 -10 36t10 42t19 40t19 30q25 37 47 70.5t51 67.5q6 7 9 11.5t4.5 9.5t3.5 12t6 20q9 28 22 59.5t22.5 64t12 64.5t-8.5 61q-14 4 -22.5 -3t-16.5 -16
q-14 -15 -24 -28l-20 -26t-19.5 -26.5t-21.5 -31.5q-10 -15 -23.5 -38t-28 -47t-28 -45t-23.5 -31q-14 -14 -24.5 -12.5t-17.5 11.5t-10.5 25.5t-3.5 30.5q0 25 5.5 52.5t13.5 54.5t18 52.5t21 46.5q4 7 11 19.5t15.5 23t18 16t17.5 0.5q3 -8 1.5 -17t-5 -17.5t-8 -17
t-6.5 -15.5q-7 -17 -12 -33.5t-10 -34.5q-3 -11 -8.5 -30.5t-10 -41t-8 -41t-3.5 -29.5zM106 -171q6 7 14.5 19t16.5 26t14 28t8 25q-14 -22 -31 -44.5t-22 -53.5z" />
    <glyph glyph-name="z" unicode="z" horiz-adv-x="294" 
d="M34 206q-18 -1 -31 10.5t-18 29.5t-0.5 39t20.5 39q13 14 23.5 25t22.5 20.5t26.5 18t34.5 17.5q52 21 71 2t-11 -75q-19 -35 -39.5 -56t-39.5 -50q17 -2 34.5 2t35.5 -4q14 -7 20 -18.5t12 -25.5q11 2 22.5 8l23 12t23 11t22.5 7q20 3 24.5 0.5t7.5 -9.5q-7 -4 -16 -6.5
t-17 -5.5q-23 -10 -47 -26t-40 -21q-2 -20 -10.5 -43.5t-19.5 -40.5q-7 -11 -9 -12.5t-3 -3t-4.5 -7t-13.5 -24.5q-3 -6 -4.5 -7t-2.5 -2l-3 -3t-6 -10q-3 -4 -4 -5l-2.5 -2.5t-3.5 -4.5t-6 -11t-6 -11t-9 -8t-9 -8.5t-4.5 -7.5t-6.5 -9.5t-16 -15.5q-6 -5 -9.5 -7
t-11.5 -10q-14 -13 -24 -20t-17.5 -11t-13.5 -6.5t-12 -6.5q-4 -3 -11.5 -6t-15.5 -3.5t-15.5 2t-11.5 8.5q-7 10 -5 24.5t8.5 29t15 28t15.5 23.5q11 17 26.5 35.5t33 36.5t35.5 34t35 28q5 3 7.5 6t8 8.5t15.5 14t30 22.5q7 5 12.5 8t9 7.5t4.5 12t0 19.5q-11 11 -21 11.5
t-28 -1.5q-11 -1 -23 -4t-21.5 -2.5t-14.5 7t-1 25.5q1 4 9.5 15.5t21 27t26.5 33t25.5 34t18.5 30t6 21.5q-15 4 -39 -6t-47.5 -27.5t-42.5 -41t-25 -46.5q-4 -17 0 -24t10.5 -11.5t12 -9t3.5 -16.5zM-40 -90q7 2 17 11t21 21t22.5 24.5t20.5 22.5l17.5 17.5t21 22t20 23.5
t14.5 23q-8 -5 -25 -21t-35.5 -35t-35.5 -36.5t-24 -25.5q-8 -8 -19.5 -22.5t-14.5 -24.5z" />
    <glyph glyph-name="braceleft" unicode="{" horiz-adv-x="414" 
d="M403 632q22 7 33 3t13 -15.5t-5.5 -27t-23.5 -31.5q-10 -10 -19.5 -20.5t-29.5 -10.5q3 8 9.5 15t15 15t16 19t12.5 27q-9 -3 -17.5 -10t-16.5 -16t-15 -18t-13 -15q-8 -8 -16.5 -20t-17 -25t-15.5 -26t-11 -22q-3 -8 -5.5 -9.5t-7.5 -9.5q-6 -8 -11 -19t-10 -20
q-11 -23 -22 -40.5t-22 -34.5q7 -10 19 -18.5t19.5 -22t6.5 -35t-19 -57.5q-7 -14 -13.5 -27.5t-11.5 -27.5l-28 -51q-3 -5 -6 -14.5t-5 -15.5q-4 -8 -6.5 -14.5t-0.5 -14.5q13 -3 34 4t44 17.5t44 22t33 18.5q15 9 21 13.5t9 6.5t5 1.5t9 -2.5q0 -9 -4 -14.5t-10 -10
t-14 -9.5t-15 -13l-4 -3q-12 -3 -20 -13q-1 0 -1 -0.5t-1 -0.5q-10 -4 -24.5 -12t-30.5 -17t-31.5 -17t-25.5 -11q-15 -5 -35.5 -1t-30.5 12q-5 4 -8.5 11.5t-6 16.5t-4 18.5t-1.5 16.5q0 8 5 22.5t12 30.5t14 30.5t12 22.5q12 23 17.5 32t9 16t7 17t10.5 35q-14 0 -18 -1
t-5.5 -2.5t-3 -5.5t-9.5 -10q-4 -3 -5 -3t-2 -0.5t-3 -2.5l-8 -8q-5 -6 -17 -12.5t-22 -11.5q-22 -11 -43 -10.5t-34.5 9t-15 23.5t16.5 35q10 10 15 13.5t8.5 4t6.5 1t9 5.5q7 6 13.5 9.5t13.5 6t16.5 5t23.5 7.5q7 2 14.5 2t15.5 1q3 1 9.5 10.5t15.5 23.5t19 31t19 33
t16.5 29t11.5 20q5 8 9.5 12t7.5 9q5 7 5 12t7 14q6 8 9 11t8 14q4 8 13.5 19.5t20.5 23.5t22.5 22.5t19.5 16.5q5 4 12 7.5t13 5.5z" />
    <glyph glyph-name="bar" unicode="|" horiz-adv-x="155" 
d="M58 668q2 2 10 1.5t11 -2.5q6 -5 9.5 -17.5t4 -27.5t0 -29.5t-1.5 -21.5l4 -75q0 -15 0.5 -26t2.5 -25l1.5 -15t0.5 -8.5t-0.5 -8.5t-1.5 -14q-1 -8 -0.5 -13.5t1 -10t0 -9.5t-2.5 -13q-1 -5 -1 -7t1 -3t2.5 -2t2.5 -5l4 -113q0 -9 -1 -26.5t-2.5 -36t-2 -35t1.5 -22.5
q2 -7 1.5 -10.5t-1.5 -6.5t-2 -6.5t-1 -9.5q1 -10 3 -16t0 -18q-2 -11 -4 -15t-1 -18q1 -12 1.5 -30.5t0.5 -37.5t-1.5 -36.5t-5.5 -27.5q-5 -7 -10 -9t-17 -2q-15 19 -16 36t0 40q1 14 -0.5 23.5t-0.5 18.5q4 34 1.5 52.5t-1.5 25.5q1 8 1.5 11.5t0.5 5.5t-0.5 5.5
t-1.5 11.5q-2 12 1.5 16t2.5 17q-2 16 -1 25.5t0 23.5l-2 152q0 8 2.5 14.5t2.5 10.5q-1 7 -3.5 11.5t-1.5 11.5q1 18 1 26t-0.5 15.5t-1 17.5t1.5 33q2 21 1 36t0 34q0 9 2 17.5t1 17.5q-1 13 -2 24.5t-1 23t1.5 24t6.5 27.5z" />
    <glyph glyph-name="braceright" unicode="}" horiz-adv-x="423" 
d="M396 282q7 -6 9.5 -19.5t-4.5 -26t-26 -21t-55 -4.5q-2 -8 -3.5 -11t-6.5 -10q-3 -5 -7 -9.5t-6 -9.5q-5 -10 -8.5 -21t-9.5 -22q-2 -5 -5.5 -10t-5.5 -10q-3 -5 -4 -11t-4 -11q-3 -6 -2.5 -4.5t-4.5 -3.5q-15 -19 -18.5 -26l-6.5 -13t-13 -16.5t-39 -36.5
q-8 -8 -19.5 -11t-21.5 -8q-23 -11 -51.5 -13t-56 7t-49.5 28.5t-31 52.5q-2 4 -3 7t-3 7v2q1 1 1 2l3 6q1 1 2 1q1 1 2 1.5t2 2.5h5l6 2l6 -3q1 -3 2 -5.5t3 -5.5q10 -38 35.5 -54t64.5 -16q15 0 25 3t18 8t15.5 11.5t17.5 14.5q11 9 23 28t21 36q11 20 19 36.5t17 39.5
l35 73q-6 8 -14.5 19.5t-13.5 22.5q-12 24 -9 57t14 57q5 8 5.5 13.5t3.5 13.5t6.5 9.5t6.5 11.5q3 11 9.5 24.5t14.5 21.5q3 3 4 3h1l0.5 1.5t2.5 6.5q3 8 5.5 11t5 5.5l5 5t5.5 8.5q6 10 11 24t13 22q9 8 14.5 18.5t2.5 26.5q-29 6 -58.5 -3.5t-52.5 -23.5q-8 -5 -13 -9.5
t-5 -18.5q8 -8 13.5 -8t16.5 -3q-3 -4 -1 -3.5t-5 -1.5h-20q-9 2 -11 4.5t-8 8.5v7q0 15 10.5 27.5t26 23t34 17.5t33.5 12q45 13 64.5 -0.5t21.5 -38.5t-9 -53t-26 -42q-5 -5 -7 -8.5t-2.5 -6.5t-1 -7.5t-3.5 -11.5l-16 -28q-6 -13 -17 -37t-18.5 -50t-7 -49t15.5 -34
q5 1 6.5 2t2 1.5t2 2.5t5.5 5l9 0.5t20 -0.5t22.5 -4t17.5 -9z" />
    <glyph glyph-name="asciitilde" unicode="~" horiz-adv-x="518" 
d="M207 308q9 -1 20.5 -6.5t23 -12.5t21.5 -15t16 -15q17 -19 27 -32.5t19.5 -19.5t23.5 -4t38 16q22 12 33 26.5t16.5 28t8 24.5t7.5 15q3 3 5 3h3q1 2 4 3q2 0 5 -1.5t8 -7.5q3 -5 3 -6v-6q1 -7 2 -16t0 -16q-2 -17 -11.5 -34t-23 -31.5t-30 -24.5t-32.5 -13
q-36 -7 -59.5 7t-42 35t-35.5 41t-40 26t-51 0.5t-52 -16.5t-40 -27t-14 -31q2 -9 -3 -16.5t-15 -5.5q-21 3 -26 16.5t2 30.5t23.5 34.5t37.5 27.5q20 9 34 15t27 9t28.5 2.5t38.5 -3.5z" />
    <glyph glyph-name="exclamdown" unicode="&#xa1;" horiz-adv-x="152" 
d="M135.003 474.007q16.999 -2 21.999 -13.5q4.99902 -11.499 2.99902 -30.498q-2 -13.999 -4.49902 -27.998q-2.5 -13.999 -8.5 -25.998q-7.99902 -15.999 -6.99902 -27.999q0.999023 -11.999 -5 -25.998q-4 -9.99902 -6 -11.499t-3.99902 -12.499q-4 -17.999 -5.5 -23.499
t-2 -7.99902q-0.5 -2.5 -2 -5.5t-5.5 -14.999q-1.99902 -7 -2.99902 -14.499q-1 -7.5 -3 -12.5q-3 -5.99902 -3.5 -5.49902t-1 0.5t-1.5 -3t-4 -15.999l-26.998 -56.9961q-3 -4 -4 -11l-32.998 -68.9951q-0.999023 -6 -8.99902 -22.499t-17.999 -34.498t-19.499 -32.998
q-9.49902 -14.999 -14.499 -16.999q-15.999 -7.99902 -23.498 1q-7.5 9 -1.5 25.999q5.99902 15.999 17.499 43.9971q11.499 27.998 23.498 57.9961q12 29.998 21.499 55.9971q9.49902 25.998 11.499 36.9971q8 5 10.5 8q2.49902 3 2.99902 6.49902q0.5 3.5 0.5 8.5
t3 12.999q4 10.999 7.5 16.499q3.49902 5.5 7.49902 19.499q3 9.99902 8 21.499q4.99902 11.499 9.99902 21.998q5 10.5 8.99902 18.499q4 7.99902 5 11.999q2 9 2.5 13.499q0.5 4.5 1 7.5t2 7.49902q1.5 4.5 5.5 13.5q8.99902 19.998 12.999 37.9971
q3.99902 17.999 6.99902 31.998t7.5 24.999q4.5 10.999 14.499 17.999zM133.003 553.002q-3 16.999 1 31.998t11.999 23.998q8 9 17.999 9.5t18.999 -10.5q8.99902 -9.99902 7.99902 -21.498q-1 -11.5 -5.99902 -21.499q-5 -9.99902 -10.5 -16.499
q-5.49902 -6.5 -6.49902 -7.5q-3 -3.99902 -4 -5.99902l-1.5 -3t-3 -1.5q-2.49902 -0.5 -8.49902 -1.5q-6 8 -6.5 11.499q-0.5 3.5 -11.499 12.5z" />
    <glyph glyph-name="cent" unicode="&#xa2;" horiz-adv-x="181" 
d="M61 369q0 2 3 1.5t4 -1.5q5 -4 6 -20t-1 -23l1 -17q6 5 13 6q14 4 24.5 -1.5t15.5 -14.5q5 -10 3.5 -25t-3.5 -25q-5 -19 -10 -27.5t-15 -5.5q-7 2 -4 15.5t7 28t4 25.5t-13 9q-5 -1 -7.5 -2.5t-6.5 -3.5l-7 -6q0 -10 1 -14q1 -9 1 -10.5t-1 -10.5q-1 -8 0 -10.5t-1 -9.5
q-1 -5 0 -5t2 -4l2 -51q0 -4 -0.5 -12t-1 -16.5t-1 -15.5t0.5 -10q1 -5 0.5 -6t-0.5 -3q15 12 30.5 27.5t29.5 30.5t24 27.5t15 18.5q4 6 8.5 9.5t8.5 0.5q4 -4 0.5 -9.5t-6.5 -10.5q-4 -6 -15.5 -20.5t-27 -33t-33.5 -37.5t-36 -34v-6q1 -11 1.5 -31t-3.5 -29q-3 -5 -10 -5
q-6 9 -6.5 16.5t-0.5 18.5q1 6 0.5 10t-0.5 9v4q-24 -15 -40 -9q-30 10 -36 42t3 70.5t29.5 76t44.5 58.5v10q0 5 1 8.5t1 8.5q-1 12 -1.5 21t3.5 23zM24 78q5 -2 13 1t19 9v3l1 8l-1 8q0 5 1 7t1 8q-2 8 -1 12t0 10l-1 69q0 4 1.5 7t1.5 5q-1 2 -2 4.5t-1 5.5q1 8 0.5 11.5
t-0.5 7.5q-11 -22 -21 -50.5t-15.5 -55.5t-5 -46.5t9.5 -23.5z" />
    <glyph glyph-name="sterling" unicode="&#xa3;" horiz-adv-x="380" 
d="M171 235q-17 -2 -35 -7t-35 -10q-10 -2 -19.5 -3.5t-17 0t-12 7.5t-2.5 19l105 31q18 4 25 5.5t9 7t2 18t5 38.5l6 28t5 28q-1 0 -13 -4.5t-25.5 -7t-23 0.5t-4.5 18q10 1 13.5 0.5t6.5 -1t7.5 1t15.5 7.5q9 5 17.5 12t12.5 15q7 11 8.5 20t6.5 23q8 26 15.5 39.5
t9.5 20.5q6 18 12.5 29t17.5 27l27 31q22 15 35.5 13t17.5 -14t-0.5 -32.5t-17.5 -43.5q-6 -10 -12 -19t-13 -20q-5 -8 -7 -9.5t-7 -7.5l-27 -34q-3 -4 -8.5 -9t-7.5 -7q-1 -1 -2 -6.5t-2 -12.5t-2.5 -14t-2.5 -11q-7 -26 -11 -55t-5 -56q13 2 32 6t35 4t25.5 -7t4.5 -28
q-11 0 -17 1t-11 1t-11.5 -0.5t-18.5 -3.5q-12 -2 -27.5 -6t-24.5 -9l1 -22q13 0 23 2.5t19 4.5t18.5 1t21.5 -9q1 -13 -1 -17.5t-13 -7.5q-3 4 -4.5 7.5t-6.5 4.5t-15 -1.5t-30 -10.5l-12 -4.5t-6.5 -3.5t-3.5 -6.5t-4 -13.5q-7 -26 -17.5 -45t-14.5 -33q17 2 24 -0.5
t22 -4.5q7 -1 25 -1.5t38 -3.5t36 -8.5t18 -15.5v-13q-26 -5 -54 -2t-54 3q-17 0 -25 -3.5t-24 -1.5q-9 1 -22 -1t-26 -3q-8 -12 -29.5 -27t-47 -26t-50.5 -16t-40 3q-21 11 -17.5 31t26 40t61 35t88.5 17q6 11 10.5 16t8 11t7.5 16.5t9 31.5q-11 -2 -29 -10t-29 -13
q-17 -8 -33.5 -11t-36.5 2q0 10 6 16t15.5 9.5t22.5 7.5t27 10q12 5 19 9t21 8t21 6.5t10 15.5q2 4 3.5 5t1.5 2t-1 2.5t-3 6.5q-11 0 -9 -0.5t0 -2.5zM288 514q4 4 11 14.5t13.5 22.5t11.5 23.5t6 19.5q-9 -11 -13 -15.5t-11 -21.5l-10 -22q-5 -7 -7.5 -8.5t-0.5 -12.5z
" />
    <glyph glyph-name="currency" unicode="&#xa4;" horiz-adv-x="287" 
d="M257 398q9 8 14 14t10 10t11.5 4.5t17.5 -1.5l1 -9q1 -5 -8.5 -17.5t-22 -25.5t-25 -24t-17.5 -12q2 -17 3.5 -28.5t1.5 -22t-2 -22t-7 -27.5q-3 -8 -7.5 -19.5t-10.5 -22t-12.5 -19.5t-12.5 -13q3 -22 11.5 -42t17 -36t15.5 -27t7 -14v-7t0 -0.5t-0.5 1.5t-1.5 -1
q-11 -3 -22 7.5t-21 27t-18 33.5t-12 28q-9 -3 -12 -6.5t-12 -6.5q-24 -9 -34 -11t-15 -1t-10 3.5t-20 2.5q-5 -9 -8 -12t-9 -12q-5 -8 -10.5 -12.5t-9.5 -9.5q-3 -6 -3.5 -9t-0.5 -5.5t-2 -5t-8 -7.5q-7 -5 -12 -7.5t-15 -0.5q-10 5 -7 16t11 23.5t17 23t11 13.5
q13 16 17.5 23.5t4 13t-4 12.5t-6.5 23q-4 23 2 49.5t15.5 50.5t18 41.5t9.5 23.5q-9 6 -21 13t-22 16t-15.5 19.5t-0.5 22.5q10 1 21.5 -4.5t22 -14t20 -17.5t14.5 -13q8 4 11.5 8.5t11.5 10.5q12 11 23.5 11t19.5 -17q21 0 29.5 -1t12 -3.5t6.5 -5t13 -5.5zM129 336
q-7 -4 -8 -12t-2 -14.5t-4 -8.5t-15 6q-6 -14 -8.5 -16.5t-3.5 -4t-2.5 -7t-5.5 -25.5q-4 -14 -7 -32t-3 -35q0 -16 7.5 -24.5t18.5 -16.5q12 -4 31 7t36 32t29.5 49t12.5 58q0 15 -6 33t-19 22q-15 4 -22.5 1.5t-11.5 -8t-7 -12t-9 -10.5z" />
    <glyph glyph-name="yen" unicode="&#xa5;" horiz-adv-x="376" 
d="M285 426q-6 -3 -20 -20t-30.5 -38.5t-32 -42.5t-24.5 -32q-6 -8 -18.5 -21t-26 -27.5t-26 -26.5t-19.5 -16q-8 -5 -17.5 -7.5t-18.5 0.5t-16 12t-8 27q-4 43 5 80t24 74l21 56q10 22 17.5 36t14.5 24t13 18.5t12 20.5q29 52 47.5 72.5t28 22t11 -9.5t-4.5 -21
q-9 -16 -19 -30t-20 -32q-23 -40 -36.5 -75t-30.5 -68q-8 -16 -9.5 -22t-1.5 -9t-1.5 -8t-8.5 -20q-3 -7 -7 -21.5t-7 -31t-5 -31t-1 -21.5q21 13 43.5 36t44.5 50t41.5 54t36.5 48l41 48l38 51q11 14 20 23.5t20 26.5q15 23 29.5 18.5t14.5 -25.5q0 -8 -5 -21.5t-9 -20.5
q-3 -6 -4 -8.5t-1 -4v-3.5t-2 -7t-4.5 -7t-4.5 -9t-1.5 -11t-4.5 -12q-7 -14 -9.5 -18.5t-3.5 -7.5t-2.5 -8.5t-7.5 -20.5q-6 -17 -10.5 -26.5t-8 -16.5t-6.5 -14.5t-6 -20.5q-3 -10 -8.5 -18.5t-9.5 -18.5q-3 -8 -6.5 -19.5t-5.5 -21.5q9 2 20 6.5t22 7t20.5 1t15.5 -11.5
q-4 -17 -11.5 -23.5t-15 -7t-13.5 1.5l-6 2q-5 -2 -13 -5l-16 -6t-15 -6.5t-9 -5.5l-3 -6l-7 -14t-7 -16t-3 -13q13 2 21.5 4.5t16.5 5t17 4t24 1.5q12 0 18.5 -4t7.5 -8.5t-4 -8.5t-15 -5q-11 -1 -18 -1.5t-17 -3.5q-32 -9 -45.5 -13t-18.5 -8.5t-6 -11t-7 -20.5
q-7 -16 -10 -31.5t-5 -28.5t-6 -22t-14 -11q-17 -3 -22 10.5t-3.5 31.5t5.5 35t5 20q-12 -4 -29.5 -13t-35.5 -18t-35 -15.5t-28 -6.5q-4 17 6 23.5t23 14.5q14 8 22 15t23 14q24 11 39 18t23.5 13t11.5 13.5t4 20.5q-12 -2 -22 -6.5t-20 -10t-20.5 -9.5t-22.5 -4
q-2 14 3.5 19.5t13.5 11.5q6 5 17.5 12.5t24.5 15t25 14t20 11.5q2 9 2 15t3 15q3 12 5.5 13.5t6.5 9.5q2 6 3 12t5 14t6 13t5 12q5 9 12.5 24.5t9.5 22.5q5 16 11 26t11 24z" />
    <glyph glyph-name="brokenbar" unicode="&#xa6;" horiz-adv-x="157" 
d="M58 249q2 2 10 1.5t11 -2.5q6 -5 9.5 -17.5t4 -27.5t0 -29.5t-1.5 -21.5l5 -149q1 -12 1.5 -30.5t0.5 -37.5t-1.5 -36.5t-5.5 -27.5q-5 -7 -10 -9t-17 -2q-15 19 -16 36t0 40q1 14 -0.5 23.5t-0.5 18.5q2 14 2.5 13t0.5 -5t-0.5 -7t-0.5 8v40t1 88q0 9 2 17.5t1 17.5
q-1 13 -2 24.5t-1 23t1.5 24t6.5 27.5zM61 679q2 2 10 1.5t11 -2.5q6 -5 9.5 -17.5t4 -27.5t0 -29.5t-1.5 -21.5l2 -93q1 -12 1.5 -38t0.5 -54t-1.5 -53t-5.5 -35q-5 -7 -10 -9t-17 -2q-15 19 -16 36t0 40q2 42 2.5 70t0 50t-1 41.5t0.5 43.5q1 27 1 48t10 52z" />
    <glyph glyph-name="section" unicode="&#xa7;" horiz-adv-x="519" 
d="M194 382q-2 6 -4.5 8t-6 4.5t-7.5 7.5t-10 16q-4 8 -3.5 21t4.5 27t10 27t12 21l63 61q10 9 24 20t29.5 21t31.5 18.5t30 12.5q25 8 53.5 11.5t48.5 -13.5t19 -40.5t-15 -46.5q-6 -9 -18 -23t-26.5 -29t-28 -27.5t-20.5 -16.5q-9 -5 -14 -9t-8.5 -6.5t-7.5 -2.5t-11 3
q0 14 10.5 22t18.5 15q7 7 19 19.5t24 27t21 28.5t12 24t3 15t-1.5 7t-3 2.5l-1.5 0.5q-8 7 -23.5 3.5t-34 -12.5t-37 -21t-34 -23.5t-25.5 -19.5l-10 -8q-5 -6 -4 -7.5t-7 -6.5q-8 -7 -10.5 -8.5t-3.5 -3t-2 -4.5t-7 -12q-3 -3 -5 -6t-6 -8q-5 -8 -10 -13.5t-7 -18.5
q13 -12 26.5 -17.5t26 -7t23 -1t17.5 0.5q6 0 16 -2.5t16 -3.5q14 -2 21.5 0t16.5 2q5 -1 12.5 -4.5t15.5 -5.5q25 -6 36.5 -9t18 -7t11 -9t15.5 -15q20 -18 22 -36.5t-19 -40.5l-47 -33q-14 -7 -26.5 -14.5t-23.5 -14.5l12 -9l11 -6q12 -6 18 -7t9.5 0t7 3.5t11.5 5.5
q0 -7 -1 -11.5t-3 -8.5q3 -5 4 -7t5 -6t4 -3t5 -7q7 -15 5 -38t-17 -41t-32 -31l-21 -18q-6 -5 -12.5 -7.5t-13.5 -7.5q-10 -7 -15 -10t-9 -4.5t-10 -4t-19 -8.5q-8 -4 -13 -7t-14 -7l-91 -29q-11 -2 -17.5 -1.5t-16.5 -3.5q-11 -3 -17 -4t-17 -3l-65 -4q-11 2 -18.5 -0.5
t-18.5 -3.5q-2 0 -12 1.5t-22 4t-22.5 4.5t-11.5 3q-4 1 -11 6t-14 11t-12.5 11.5t-6.5 7.5l-7 27q-4 13 -0.5 23t11 18.5t16.5 16.5t16 17q10 14 33.5 30t48.5 26.5t46.5 12.5t28.5 -12q-5 -11 -18 -17.5t-27 -11.5t-31.5 -15.5t-34 -24t-29 -29.5t-17.5 -32
q10 -9 27 -15.5t30 -4.5q14 3 38 2t41 0q18 2 34.5 6t36.5 6q11 1 30 8t31 10q8 2 11 1.5t8 1.5q3 1 5 2.5t5.5 3.5t11 4.5t22.5 6.5l54 25q11 5 24 13.5t25 18.5t21 21.5t12 22.5q-1 8 -14 17t-29.5 16.5t-33 11t-23.5 1.5l-53 -19q-8 -2 -16.5 -4.5t-17.5 -0.5
q-11 2 -12.5 7t0.5 16q8 5 19 6.5t13 7.5q-35 3 -68 1.5t-67 0.5q-13 1 -28.5 0.5t-29 2t-23 10.5t-9.5 25q2 9 16 25.5t31 33t34.5 31.5t27.5 21zM203 242q4 0 12 -1l16 -2t15.5 -1h10.5q8 0 10.5 1.5t14.5 -0.5q30 -5 41 -7t18 0t16.5 9t35.5 21q9 4 19.5 11t20 15
t16 17.5t6.5 19.5q-8 7 -20.5 13t-23.5 10q-7 3 -18.5 5.5t-24 4.5t-25 3t-20.5 0q-14 -2 -16.5 -0.5t-12.5 3.5l-63 7q-5 0 -13 -5.5t-16.5 -13t-16.5 -15t-12 -11.5q-5 -5 -10 -7.5t-11 -6.5q-4 -3 -14.5 -13t-21.5 -21.5t-20 -22.5t-10 -15z" />
    <glyph glyph-name="dieresis" unicode="&#xa8;" horiz-adv-x="162" 
d="M171 626q21 4 28 -5t4.5 -22.5t-12 -27t-21.5 -16.5q-18 -5 -28.5 6.5t-9.5 28.5q2 19 12 25.5t27 10.5zM80 626q21 4 28 -5t4.5 -22.5t-12 -27t-21.5 -16.5q-18 -5 -28.5 6.5t-9.5 28.5q2 19 12 25.5t27 10.5z" />
    <glyph glyph-name="copyright" unicode="&#xa9;" horiz-adv-x="716" 
d="M349 643q30 6 71.5 -4t82 -28.5t74 -42t49.5 -44.5q11 -14 14 -15t8 -5l4 -4t2 -3t2 -5.5t6 -10.5q12 -19 17 -33t6.5 -25t1 -19.5t1.5 -17.5q3 -13 2 -29.5t-6 -30.5q-8 -22 -14.5 -37.5t-14.5 -29t-19 -27t-26 -29.5l-39 -41q-7 -7 -11.5 -8.5t-14.5 -6.5
q-11 -6 -13 -9.5t-9 -7.5q-5 -3 -8 -3.5t-8 -2.5q-5 -4 -10.5 -9t-24.5 -13l-58 -22q-9 -4 -26 -10t-36 -11.5t-36.5 -10t-26.5 -5.5q-17 -2 -38 -3t-39 -1q-12 0 -29.5 4.5t-35 11t-32.5 13.5t-22 12q-6 5 -19.5 18.5t-18.5 23.5q-9 20 -15 35t-9.5 28.5t-4 28t0.5 33.5
q1 18 3 30.5t5 23t6.5 21t7.5 25.5q7 23 17.5 44t21.5 37.5t19.5 28t11.5 17.5l37 42q10 11 28.5 25.5t39 28.5t41 25.5t34.5 16.5q16 5 20.5 9.5t6.5 8t5.5 7t17.5 6.5zM387 601l7 -14t5.5 -12t3 -13.5t-0.5 -20.5q-8 -1 -11.5 6t-6.5 16.5t-7.5 18.5t-14.5 13t-27.5 1
t-45.5 -19q-17 -8 -30 -17.5t-27 -20.5q-25 -19 -48 -45.5t-42 -51.5l-33 -60q-4 -9 -6.5 -17t-5.5 -18q-4 -9 -8.5 -17.5t-6.5 -14.5l-15 -77q0 -4 1 -9t1 -13q0 -14 1.5 -28.5t8.5 -25.5l19 -29q4 -8 14.5 -16.5t24 -15.5t28 -11.5t28.5 -4.5q15 0 24 -1t17.5 -1t18.5 1.5
t25 4.5q20 4 33.5 7.5t25 7t23.5 7.5t29 10q24 8 49 22.5t47 25.5q15 7 21 10.5t8.5 5.5t4 4t8.5 7l13 10q25 21 33.5 28.5t11.5 11.5t6 10t17 25q17 23 26.5 47.5t8.5 58.5q0 2 -3 12t-6.5 22t-7.5 22.5t-5 12.5q-4 7 -5.5 8t-5.5 6l-9 13q-9 11 -12 14t-4 3.5t-2.5 0.5
t-6.5 5q-6 5 -6.5 7t-5.5 6q-3 2 -7 4l-8 4q-6 4 -7 6t-6 6q-5 2 -8.5 3t-7.5 3q-7 4 -14 9t-16 10l-23 11.5t-27 12t-28 9.5t-25 4zM263 204q27 0 47 5.5t41 16.5l17.5 7.5t21 9.5t19.5 10t13 10q8 8 12.5 16.5t17.5 10.5q9 2 12.5 -4.5t-1 -18t-18.5 -27.5t-39 -34
q-19 -13 -34.5 -21t-39.5 -17q-26 -10 -47.5 -16.5t-39.5 -6t-34 10t-31 31.5q-13 19 -8.5 49.5t16.5 61t26.5 55.5t21.5 32t10.5 13.5t7.5 13.5t11 15.5t21 19.5q8 5 13 12.5t13 15.5q6 7 14.5 11.5t16.5 12.5q8 7 13.5 12.5t16.5 11.5q9 4 19.5 8.5t22 7t22.5 1t21 -8.5
q17 -13 18 -35.5t-10 -43.5l-36 -47q-6 -7 -15.5 -17t-20 -18t-22 -11.5t-20.5 3.5q-1 9 1.5 13t8.5 8.5t15.5 11.5t22.5 21q11 11 21 30t10 39q-12 0 -24 -6.5t-22.5 -15.5t-20 -18.5t-18.5 -15.5q-11 -8 -13 -10.5t-9 -15.5l-57 -86q-2 -5 -3 -9.5t-4 -9.5t-4.5 -5.5
t-5.5 -7.5q0 -18 -4.5 -29t-5.5 -28q5 -8 11 -13.5t12 -10.5z" />
    <glyph glyph-name="ordfeminine" unicode="&#xaa;" horiz-adv-x="226" 
d="M68 450q-28 -38 -49.5 -43.5t-30 10.5t-0.5 50t40 76q31 41 57 57t43 14t23 -20t-2 -45q-8 -23 -12.5 -33t-8 -13.5t-6 -3.5t-5.5 -4q-3 -11 -7 -27t-6.5 -33.5t-2 -34t6.5 -28.5q3 -4 10 -0.5t13 11.5l61 75q3 4 9.5 12.5t14 17t14.5 14t11 3.5q2 -1 4 -1t2 -8
q-1 -5 -6 -10l-92 -112q-11 -14 -22 -20.5t-20.5 -6t-17.5 6.5t-11 17q-8 26 -0.5 52.5t11.5 49.5zM28 439q9 4 18 13.5t17.5 20.5t16 22t13.5 18q13 11 29 6q6 14 9.5 22t6 15t2.5 14.5t-1 19.5q-10 4 -22.5 -4t-25.5 -23t-25 -34.5t-21 -38t-14 -32.5t-3 -19z" />
    <glyph glyph-name="guillemotleft" unicode="&#xab;" horiz-adv-x="518" 
d="M167 316q1 5 8 11.5t15.5 12.5t17.5 11t14 8q8 5 12 11t14 11q11 6 18 11.5t12.5 11t11 10.5t13.5 11q3 2 12 10t20 17.5t22.5 18.5t21 12.5t16 -0.5t6.5 -19q0 -12 -14 -28.5t-32.5 -32.5t-36.5 -29.5t-26 -20.5q-8 -6 -18.5 -15.5t-21.5 -18.5t-22 -17t-18 -12
q-4 -2 -11.5 -6t-10.5 -7q-5 -5 -7 -9t-10 -9q-10 -8 -22.5 -13.5t-23.5 -13.5l-37 -33q10 -2 11 -2.5t8 -4.5q1 -1 26.5 -10t55.5 -23q-4 3 -7 7q-4 4 -7.5 6.5t-6 5t-4 7t-1.5 12.5q0 12 11.5 20.5t20.5 14.5q8 6 9.5 9.5t6.5 8.5l37 30q12 6 18.5 11.5t12 10.5t12 8.5
t17.5 5.5q1 5 8 11.5t15.5 12.5t17.5 11t14 8q8 5 12 11t14 11q11 6 18 11.5t12.5 11t11 10.5t13.5 11q3 2 12 10t20 17.5t22.5 18.5t21 12.5t16 -0.5t6.5 -19q0 -12 -14 -28.5t-32.5 -32.5t-36.5 -29.5t-26 -20.5q-8 -6 -18.5 -15.5t-21.5 -18.5t-22 -17t-18 -12
q-4 -2 -11.5 -6t-10.5 -7q-5 -5 -7 -9t-10 -9q-10 -8 -22.5 -13.5t-23.5 -13.5l-37 -33q10 -2 11 -2.5t8 -4.5q1 0 13.5 -5t31 -12.5t40 -17t39.5 -19.5l57 -48q13 -15 18 -26q4 -10 0.5 -18t-24.5 -7q-5 5 -6.5 8.5t-3.5 7t-5 6.5t-10 8q-15 9 -25.5 13.5t-19 7.5t-15 5
t-13.5 6q-14 8 -23.5 11.5t-19.5 6t-21.5 6.5t-28.5 13q-3 0 -6 1q1 0 1.5 -0.5t1.5 -0.5l57 -48q13 -15 18 -26q4 -10 0.5 -18t-24.5 -7q-5 5 -6.5 8.5t-3.5 7t-5 6.5t-10 8q-15 9 -25.5 13.5t-19 7.5t-15 5t-13.5 6q-14 8 -23.5 11.5t-19.5 6t-21.5 6.5t-28.5 13
q-3 2 -19 6.5t-33 21.5q-4 4 -7.5 6.5t-6 5t-4 7t-1.5 12.5q0 12 11.5 20.5t20.5 14.5q8 6 9.5 9.5t6.5 8.5l37 30q12 6 18.5 11.5t12 10.5t12 8.5t17.5 5.5z" />
    <glyph glyph-name="uni00AD" unicode="&#xad;" horiz-adv-x="380" 
d="M25 213q0 11 1 13t11 4q11 3 36.5 7.5t57.5 9.5t67.5 8t66.5 2t52.5 -6.5t27.5 -18.5l1 -22q-2 -8 -17 -14t-33 -10t-33 -5.5t-17 0.5q-5 9 -3 13.5t8 7.5t14 4t14 3h-190q-17 -2 -33.5 -4.5t-30.5 8.5z" />
    <glyph glyph-name="registered" unicode="&#xae;" horiz-adv-x="717" 
d="M691 352q0 -21 -10 -43.5t-20 -41.5q-6 -12 -11.5 -20t-13.5 -16t-13.5 -15t-14.5 -17q-20 -20 -29.5 -28.5t-15 -11.5t-10 -4.5t-13.5 -8.5q-6 -5 -7.5 -8t-9.5 -7q-13 -5 -18.5 -9t-10.5 -7t-11.5 -6t-20.5 -7q-20 -5 -42.5 -17.5t-42.5 -17.5q-25 -6 -50.5 -12
t-51.5 -9.5t-52.5 -2.5t-54.5 10q-20 6 -43.5 15t-36.5 26q-5 6 -8.5 8.5t-7 4.5t-6.5 6t-7 12q-15 31 -25 68t-1 71q3 14 3 28t5 25q9 19 12 33t13 34q2 6 4.5 9.5t5.5 9.5q12 24 18.5 34t10.5 14.5t7.5 9t9.5 17.5q3 7 5 9t5 3.5t7 4.5t12 14q15 20 30 31t35 25
q16 11 35.5 25t39.5 21q13 4 19 6t9 4t4.5 4.5t5.5 8.5q9 14 33.5 15t51.5 -4t51 -13.5t33 -13.5q15 -8 31 -17t32 -18.5t31 -19.5t26 -22q6 -6 8.5 -10t7.5 -9q5 -7 9 -8.5t9 -5.5t7 -11t5 -12q12 -18 17 -30t7 -23t2.5 -23.5t3.5 -30.5q2 -11 -1 -14t-2 -12zM391 606
q1 -4 4.5 -11.5t6.5 -16t4.5 -17t-1.5 -14.5q-4 -8 -7.5 -4t-6.5 12.5t-5.5 18t-5.5 12.5q-10 12 -23.5 13.5t-28.5 -2.5t-28.5 -11.5t-23.5 -13.5q-21 -13 -32.5 -22.5t-19 -17t-13.5 -14t-15 -13.5q-14 -11 -24 -25.5t-26 -34.5q-6 -7 -14 -23t-16.5 -35t-16.5 -37
t-12 -28q-3 -8 -3.5 -16.5t-2.5 -15.5q-4 -15 -6.5 -22.5t-3.5 -15.5t-0.5 -19.5t3.5 -35.5q1 -9 2 -15t2.5 -10.5t5 -9t9.5 -12.5q4 -5 7.5 -12t8.5 -11q6 -5 14.5 -11t18.5 -11.5t19.5 -10t16.5 -5.5q5 -1 15 -1.5t20.5 -1.5t19.5 -1t13 1q24 4 54 11t60.5 16.5t58.5 21.5
t49 26q6 4 11.5 6t13.5 7l43 30q14 11 23.5 18t17 14.5t14.5 16.5t17 25q7 11 18.5 25t16.5 48q4 21 2.5 34t-6.5 30t-8 29.5t-13 23.5q-6 6 -9 11t-6 9.5t-7 9t-12 9.5l-41 32q-5 5 -11 6.5t-14 6.5q-27 19 -61 32.5t-66 21.5zM366 480q19 0 32.5 2.5t27 4.5t29 1.5
t36.5 -4.5q16 -3 30 -5.5t24.5 -8.5t17 -17.5t7.5 -33.5q1 -14 -2 -22t-9 -14.5t-13.5 -12.5t-16.5 -16q-18 -21 -42 -27q-8 -2 -10 -6.5t-7 -9.5q-6 -6 -13 -8t-13.5 -3.5t-12 -4.5t-8.5 -10l2 -1q0 -1 2 -1q3 -1 18 -3.5t32 -8.5t31.5 -16.5t18.5 -27.5q3 -16 -3.5 -24
t-21.5 -6q-1 4 -0.5 9t-1 10.5t-8 10.5t-22.5 8q-12 2 -19.5 3.5t-13.5 2t-13 0t-19 -1.5q-11 -2 -16.5 0t-14.5 3l-110 -8q-5 -21 -14.5 -38.5t-18.5 -36.5q-5 -9 -7.5 -12t-3.5 -5t-1.5 -5.5t-0.5 -13.5q0 -8 -7.5 -18t-13.5 -15q-15 2 -19 9.5t-2.5 17t6.5 20t8 19.5
q4 9 6 19t5 20q2 6 4 9.5t4 6.5t3.5 7t2.5 13q-4 3 -6 4t-3 2t-2 3t-3 8q-3 8 -3.5 13.5t2.5 13.5q6 14 18.5 15t27.5 9q3 10 10.5 27.5t15 34.5t13.5 31.5t7 20.5q-18 -5 -34.5 -13.5t-30.5 -17.5q-16 -9 -29.5 -19.5t-18.5 -25.5q10 -3 16.5 -3t11.5 -7q-2 -4 -1.5 -5
t1 -1t-0.5 -0.5t-7 -1.5q-18 -5 -31 2.5t-11.5 23.5t21.5 39.5t67 49.5l14 8q5 3 9.5 4t9.5 3q4 2 6 4.5t7 4.5q7 3 9.5 2.5t9.5 4.5q13 9 20.5 27t18.5 31l22 1q5 -16 1.5 -24t-6.5 -20zM302 317q7 2 13 3.5t11 3.5q8 4 12 6.5t12 5.5q9 3 16 3.5t13.5 0.5t12.5 2t13 8
q4 3 5 5l1.5 3t3 2.5t9.5 3.5q25 8 33.5 13.5t11.5 9.5t6.5 6.5t19.5 3.5q3 12 4.5 16t6.5 12q-14 8 -33 12t-39 4.5t-39.5 -1.5t-34.5 -6q-11 -3 -13 -8.5t-6 -14.5q-8 -20 -20 -44t-19 -50z" />
    <glyph glyph-name="degree" unicode="&#xb0;" horiz-adv-x="97" 
d="M106 637q22 5 36.5 -7t15.5 -30.5t-14.5 -38.5t-52.5 -31q-29 -8 -45 8.5t-5 43.5q8 17 25.5 33.5t39.5 21.5zM65 558q10 -4 22 -1.5t22 8.5t16.5 12.5t7.5 11.5q2 13 -2.5 15t-12.5 -1l-6 12q-9 -1 -13 -3t-6 -5t-4.5 -7t-6.5 -8q-8 -7 -13.5 -12.5t-3.5 -21.5z" />
    <glyph glyph-name="plusminus" unicode="&#xb1;" horiz-adv-x="438" 
d="M69 301q24 14 58 24t62 20q8 2 17.5 4.5t14.5 5.5q3 1 9.5 11.5t13.5 23t13.5 24.5t9.5 16q8 14 13.5 27t13.5 29q7 15 14.5 20t13 3.5t8.5 -7t3 -11.5q-2 -20 -10 -33t-13 -27q-3 -8 -4.5 -16t-4.5 -16t-6.5 -13.5t-5.5 -12.5q10 1 29 4t38 3.5t34.5 -4.5t18.5 -19
q0 -18 -13.5 -29.5t-26 -14.5t-16 3.5t16.5 23.5q-4 0 -16 -1.5t-25.5 -4t-25.5 -4.5t-16 -3q-13 -4 -20 -7.5t-13 -11.5l-37 -61q-6 -8 -10 -13t-9 -16q-20 -36 -26.5 -49.5t-6.5 -16.5t2.5 -3t2.5 -9t-11 -15.5t-22 -6t-16 11.5t7 38q5 12 7.5 23t8.5 24q11 22 24 44
t20 42q-17 -2 -32.5 -6t-32.5 -9q-29 -7 -41.5 -5t-12.5 20zM-10 69q0 11 1 13t11 4q11 3 40 7.5t67 9.5t79.5 8t77.5 2t61.5 -6.5t31.5 -18.5l1 -22q-2 -8 -17 -14t-33 -10t-33 -5.5t-17 0.5q-5 9 -3 13.5t8 7.5t14 4t14 3h-239q-17 -2 -33.5 -4.5t-30.5 8.5z" />
    <glyph glyph-name="twosuperior" unicode="&#xb2;" horiz-adv-x="261" 
d="M103.326 524q-3.63477 -1.04004 -7.52832 0.520508q-3.89453 1.56055 -7.26953 4.68164t-5.9707 7.2832q-2.59668 4.16113 -3.11523 8.32324q-1.55762 9.36328 1.81738 19.7676t9.60547 20.2881t13.5 18.207q7.26855 8.32324 13.5 14.0449l6.23047 5.20215
q6.75 6.7627 17.1348 12.7451q10.3838 5.98242 21.8066 10.6641q11.4238 4.68164 23.1055 7.80273q11.6826 3.12207 21.5488 4.16211q15.5762 1.56055 31.4131 -1.04004q15.8359 -2.60156 27.7783 -9.88477q11.9424 -7.28223 18.9512 -19.2471
q7.00977 -11.9648 5.45215 -29.1309q-1.03809 -9.36426 -5.19238 -21.0684q-4.15332 -11.7051 -10.125 -23.6699q-5.9707 -11.9639 -12.4609 -22.3682t-12.7207 -17.167q-3.63477 -4.68164 -4.93262 -5.72168q-1.29883 -1.04102 -5.45215 -7.2832
q-7.26953 -10.4043 -11.9424 -16.126q-4.67285 -5.72266 -8.82715 -10.1445q-4.15332 -4.42188 -8.30762 -9.10352q-4.15332 -4.68164 -9.86523 -11.9648q-5.71094 -7.28223 -8.56738 -9.36328q-2.85547 -2.08105 -4.15332 -2.60059q-1.29785 -0.520508 -2.33691 -1.30078
q-1.03809 -0.780273 -3.63477 -4.94238q-1.03809 -1.04004 -2.33594 -3.90137t-1.81738 -3.38086l-20.25 -16.6465q-5.71094 -2.60156 -7.52832 -4.68164q-1.81738 -2.08105 -4.41406 -8.32324q9.34668 1.56055 22.8467 1.2998q13.499 -0.259766 27.5186 -1.04004
t27.2598 -2.08105t22.0664 -2.34082q14.5391 -2.08105 22.0674 -4.16113q7.5293 -2.08105 17.9131 -9.36426q10.9043 -7.28223 14.5391 -18.4668q3.63379 -11.1846 -2.07715 -18.4678q-4.1543 0 -5.71191 0.780273t-2.85547 2.34082q-1.29785 1.56152 -3.11523 3.6416
q-1.81738 2.08105 -6.49023 5.20215q-4.67285 3.6416 -9.08691 5.20215q-4.41309 1.56055 -10.125 3.12109q-5.71094 1.56055 -11.4229 2.60156q-5.71094 1.04004 -10.3848 2.60059q-5.19141 1.04004 -16.6152 1.56055q-11.4229 0.520508 -23.624 0.780273
q-12.2021 0.260742 -22.8467 0q-10.6436 -0.259766 -14.7979 -0.780273l-44.6533 -5.72168q-6.23047 0 -9.86523 -1.04102q-3.63477 -1.04004 -6.23047 -2.60059q-2.59668 -1.56055 -5.19238 -3.90137t-6.23047 -4.42188q-4.1543 -2.60156 -7.00977 -3.6416
t-7.00977 -3.12109q-2.5957 -1.04102 -7.78809 -4.16211t-11.1631 -5.46191q-5.97168 -2.34082 -12.4619 -3.12109t-11.6826 2.86133q-7.78809 5.20215 -5.45215 12.7451q2.33691 7.54297 7.00977 12.2246q3.63477 3.6416 11.4229 8.0625q7.78906 4.42188 16.6152 9.62402
q8.82715 5.20215 17.6543 10.9248q8.82617 5.72168 15.0576 11.9639q7.26855 7.2832 17.9131 13.5254q10.6436 6.24316 15.3174 10.4043q6.23047 4.16113 10.3838 10.4043q4.1543 6.24219 9.86523 9.88379q11.9424 7.28223 21.2891 19.2471q2.5957 3.12109 5.71094 4.68164
q3.11523 1.56152 5.71191 4.16211l9.3457 9.88379q3.11523 3.6416 5.45215 4.94238q2.33594 1.2998 4.93262 4.4209q4.15332 5.72266 5.9707 8.32324q1.81738 2.60156 3.11523 3.90234q1.29883 1.2998 3.375 3.12109q2.07715 1.82031 6.75 5.98242
q3.11523 2.60059 4.41406 4.68164q1.29785 2.08105 4.41309 6.24219q6.75 9.88379 8.56738 11.7041q1.81738 1.82129 2.07715 1.82129q0.258789 0 0.77832 1.04004q0.519531 1.04102 4.67285 8.84375q1.03906 2.08105 5.19238 7.2832q4.1543 5.20117 8.82715 12.7441
t8.30762 16.6465t3.63477 18.4678q0 9.88379 -5.19238 16.6465t-13.5 11.1846q-8.30762 4.4209 -18.1729 6.24219q-9.86523 1.82031 -19.2119 1.82031q-10.3838 0 -22.0664 -2.86133q-11.6826 -2.86035 -22.8467 -7.02246q-11.1631 -4.16113 -21.2881 -9.62402
q-10.125 -5.46191 -16.875 -10.6641q-7.78809 -5.72168 -14.7979 -12.2246q-7.00879 -6.50195 -12.2012 -13.7852q-9.34668 -14.0459 -13.5 -22.6289q-4.1543 -8.58301 -4.67285 -13.5254q-0.519531 -4.94141 1.81738 -7.54297q2.33594 -2.60059 5.45117 -4.42188
q3.11523 -1.82031 5.97168 -4.4209q2.85547 -2.60156 3.89355 -7.80371z" />
    <glyph glyph-name="threesuperior" unicode="&#xb3;" horiz-adv-x="274" 
d="M146.428 648.586q2.77148 7.2207 14.4141 14.4404q11.6416 7.2207 26.8877 12.4971q15.2451 5.27637 32.1543 6.94336q16.9082 1.66602 29.9365 -1.66699q13.0273 -3.33203 19.957 -13.0518q6.92969 -9.7207 3.0498 -28.0488q-1.66309 -6.66504 -7.76172 -16.1074
t-13.3047 -18.6064q-7.20703 -9.16504 -14.1367 -16.3848q-6.93066 -7.2207 -10.2568 -9.99805l-58.7646 -46.0996h22.4531t24.9473 -0.277344q12.4736 -0.27832 24.1152 -1.66699q11.6426 -1.38867 20.5127 -3.60938q21.6201 -6.11035 38.252 -16.9404
q16.6318 -10.8311 24.9473 -25.8271t7.20703 -33.8809q-1.10938 -18.8848 -14.9688 -41.1016q-3.32617 -4.99805 -10.5332 -12.2188t-15.5225 -14.4414q-8.31543 -7.21973 -15.7998 -12.4961q-7.48438 -5.27734 -10.8105 -6.94336q-3.88086 -1.11035 -4.98926 -0.554688
q-1.10938 0.554688 -4.98926 -1.66699q-2.21777 -1.66602 -2.21777 -2.77637q0 -1.11133 -1.38574 -2.22266q-1.38672 -1.11035 -5.54395 -2.77637q-4.1582 -1.66699 -15.2461 -4.44336q-8.31543 -2.77734 -19.6807 -5.55469q-11.3643 -2.77637 -20.2344 -3.8877
q-7.76172 -1.11133 -19.958 -0.833008q-12.1963 0.277344 -25.2246 1.66602q-13.0273 1.38867 -24.9473 3.05469q-11.9189 1.66699 -18.0166 3.8877q-7.76172 2.22266 -16.6318 6.3877q-8.87012 4.16602 -16.6318 9.44238q-7.76074 5.27637 -14.1367 12.2188
q-6.375 6.94336 -9.14746 15.2744q-2.77148 9.99707 0.277344 23.0498q3.0498 13.0527 8.87012 23.3281q5.82129 10.2754 12.4736 15.2734q6.65332 4.99902 11.0879 -1.11035q1.66309 -7.2207 -1.66309 -13.6084q-3.32617 -6.38672 -6.375 -13.0518
q-3.0498 -6.66504 -3.32715 -14.1631q-0.276367 -7.49805 6.93066 -16.3848q5.54297 -7.2207 16.3535 -12.4971t22.7295 -8.88672q11.9199 -3.61035 22.7305 -5.27637q10.8105 -1.66699 16.9082 -0.555664l32.709 1.66602q19.957 1.11035 40.7471 8.33105
q20.7891 7.2207 37.9746 18.3291q7.76172 4.99902 15.5234 10.8311q7.76074 5.83203 14.4131 13.0518q6.65332 7.2207 11.0879 16.3848q4.43555 9.16504 5.54395 20.8291q1.1084 12.7744 -8.03809 22.2168q-9.14746 9.44141 -22.7305 16.1064
q-13.582 6.66504 -29.3818 10.2754t-27.9961 4.72168q-26.0566 3.33203 -47.4004 1.11035t-36.8662 -4.16602q-15.5225 -1.94336 -23.8379 -0.554688q-8.31641 1.3877 -7.76172 11.3857q0 6.66504 4.98926 10.8311q4.98926 4.16504 11.6426 7.21973
q6.65234 3.05469 13.8594 5.55469q7.20703 2.49902 12.1963 5.83203l63.7539 43.8779q3.32617 2.22168 4.1582 3.61035q0.831055 1.38867 1.66309 2.77734q0.831055 1.38867 3.32617 3.33203q2.49414 1.94434 9.14746 6.3877q4.98926 3.33203 11.0869 9.99707
q6.09863 6.66504 10.2568 14.7188q4.15723 8.05371 5.54395 16.1074q1.38574 8.05371 -3.0498 13.8857q-4.43457 5.83105 -16.0771 7.49805q-11.6416 1.66602 -32.708 -2.22168q-4.98926 -1.11133 -12.4736 -2.77734t-14.4141 -4.16602q-6.92969 -2.49902 -13.0283 -6.10938
q-6.09766 -3.61035 -8.31543 -9.16406q2.21777 -1.66602 3.04883 -1.94434q0.832031 -0.277344 1.10938 -0.555664q0.277344 -0.277344 0.277344 -1.38867q0 -1.11035 0.553711 -3.33203q-6.09766 -3.33203 -10.2559 1.66602q-4.1582 4.99902 -5.2666 9.99805z" />
    <glyph glyph-name="acute" unicode="&#xb4;" horiz-adv-x="126" 
d="M52 537q-3 11 0.5 23t9.5 23t13 21t12 18q5 7 11.5 18t14.5 20t18.5 13t22.5 -5q7 -10 -1 -22.5t-23 -28.5t-31.5 -36t-26.5 -45l-20 1v0z" />
    <glyph glyph-name="paragraph" unicode="&#xb6;" horiz-adv-x="372" 
d="M40 316q0 8 5.5 23.5t8.5 22.5q5 11 10 16.5t10 9.5l10 8t10 12q3 6 4.5 7.5t2 1.5h2.5t7 3q6 4 8 7t7 6q7 4 9.5 4t10.5 5q6 4 9.5 6.5l7 5t8 4.5t12.5 5l42 15q21 7 31 9.5t15.5 2.5t9.5 -1.5t12 -1.5q7 0 7 2.5t11 4.5q5 -4 7 -6t2 -10l-54 -184q-2 -6 -6 -23t-8 -37
t-7.5 -38t-6.5 -27l-18 -58q-4 -13 -8.5 -30.5t-10.5 -33t-14 -26.5t-19 -11q-9 10 -8 14l4 16l25 112q2 6 5 17.5t6 24t5 24t2 17.5h-14q-14 0 -25.5 -3t-31.5 -1q-7 0 -17 2t-20 5t-18.5 7t-12.5 9q-10 12 -18.5 29t-8.5 33zM395 500q2 -20 -5 -38t-14 -35
q-8 -21 -15 -48.5t-14 -57t-12.5 -58.5t-10.5 -51q-8 -38 -15 -74.5t-17 -74.5q-4 -14 -6.5 -38t-4.5 -40q-3 -24 -9.5 -33t-13 -9t-11.5 4t-6 5q-4 6 -3.5 13t3 16.5t5 22t2.5 29.5q1 13 4 20.5t3 17.5q0 13 4 39.5t9 55.5t10 54.5t8 36.5q2 10 5 19l6 18q5 15 5.5 18.5
t1.5 6.5t4 10.5t12 30.5q4 8 4 16t5 19q7 16 14 35.5t14.5 36t16.5 26.5t21 7zM262 402q3 2 4 1.5t1.5 0t0.5 2.5v8q-7 -2 -6.5 0t-1.5 -4q-3 -6 -1 -8q1 -1 3 0zM225 291q-7 -4 -7 -3.5t-4 -7.5q10 1 9 0.5t2 10.5zM285 453q-2 7 -1 6t-6 1q2 -8 2 -5.5t5 -1.5z" />
    <glyph glyph-name="periodcentered" unicode="&#xb7;" horiz-adv-x="136" 
d="M75 371q21 4 28 -5t4.5 -22.5t-12 -27t-21.5 -16.5q-18 -5 -28.5 6.5t-9.5 28.5q2 19 12 25.5t27 10.5z" />
    <glyph glyph-name="cedilla" unicode="&#xb8;" horiz-adv-x="162" 
d="M12 -78q1 12 4.5 14.5t5.5 13.5q1 5 3.5 19t6 28.5t9.5 25t14 9.5q9 -2 10.5 -11.5t0 -21.5t-4 -22.5t-3.5 -12.5l51 2q21 0 37 -11t24 -27t6.5 -33.5t-15.5 -29.5q-1 -1 -6.5 -4t-12.5 -8q-8 -5 -18 -11q-17 -6 -49 -7t-64.5 3t-57.5 12t-27 20q1 8 3 10.5t5 7.5
q8 0 11.5 -1t5.5 -2.5t4.5 -3.5t8.5 -4q6 -1 20 -1.5t29.5 -0.5h29.5h21q19 0 26.5 3.5t21.5 7.5q10 2 12 1.5t7 7.5q11 16 0.5 25.5t-27.5 14.5q-13 3 -24.5 2t-20.5 -4t-15 -6.5t-8 -3.5q-5 -2 -7 -1.5t-2.5 0t-1.5 -2t-4 -6.5q-6 4 -5.5 3t-3.5 6z" />
    <glyph glyph-name="onesuperior" unicode="&#xb9;" horiz-adv-x="125" 
d="M44.2881 568.146q-3.8418 6.2373 -1.44043 7.67676q2.40039 1.43945 6.24219 3.3584t10.5654 10.3154t13.6865 18.2324t12.9658 18.9521t8.4043 13.4346q4.80176 8.15625 7.20312 14.873q2.40137 6.71777 9.12402 10.5557q2.88184 -0.958984 3.8418 -1.67871
q0.960938 -0.719727 2.88184 -2.15918q0.959961 -1.43945 -1.20117 -13.4346t-5.28223 -26.6289t-6.24316 -27.8281q-3.12109 -13.1943 -4.56152 -17.0332q-0.960938 -2.87891 -1.9209 -5.03711q-0.960938 -2.15918 -1.9209 -5.03809l-14.8867 -61.4141
q-0.960938 -3.3584 -0.960938 -5.27832q0 -1.91895 -0.240234 -4.55762t-1.68066 -7.19727q-1.44043 -4.55762 -4.80176 -13.1943l-10.5654 -41.7422q-1.44043 -4.31836 -3.12109 -9.11621t-2.6416 -9.5957l-18.7285 -59.0156q-2.40137 -5.27734 -4.32227 -8.15625
t-8.64453 -2.87891q-0.959961 2.39941 -1.91992 4.79785q-0.960938 2.39941 -0.960938 5.27832l9.12402 71.9688q3.3623 16.793 8.4043 34.3057t7.44336 27.5889q1.9209 9.5957 3.36133 14.3936t2.88184 8.63672q1.44043 3.83789 3.12109 8.63574
q1.68066 4.79883 4.08203 14.3945q0.960938 3.83789 2.6416 5.75781q1.68066 1.91895 2.64062 7.19629q0.960938 5.27832 3.60156 13.1943q2.6416 7.91699 5.52246 16.3135q2.88184 8.39648 5.76367 16.5527q2.88086 8.15723 3.8418 13.4346l-27.8535 -31.667
q-2.40137 -2.87793 -5.28223 -4.79785q-2.88184 -1.91895 -8.16406 -2.39844z" />
    <glyph glyph-name="ordmasculine" unicode="&#xba;" horiz-adv-x="183" 
d="M127 671q17 4 26.5 -1t17.5 -14q10 -11 12.5 -17t7.5 -23q1 -5 1.5 -14.5t1.5 -14.5q2 -13 0.5 -30t-5.5 -34.5t-9 -33.5t-10 -27l-19 -42l-6 -12t-4 -7.5t-4.5 -8t-8.5 -11.5l-3 -4.5l-3 -4.5l-3 -4.5t-4 -4.5q-16 -16 -33 -17.5t-28 12.5q-3 4 -6.5 9t-5.5 10t-4.5 12
t-2.5 11q-1 8 -1 15t-1 14q-2 11 -1.5 15t1.5 14q0 7 1.5 12.5t3.5 13.5q2 20 7.5 37t10.5 36q4 14 5.5 16.5t2.5 6.5q2 9 3.5 12t4.5 11q6 12 10.5 23.5t10 20.5t13.5 15t21 9zM121 593q1 8 3.5 13.5t4.5 11.5t3.5 14t1.5 21q-9 2 -15.5 -2.5t-10.5 -9.5q-6 -10 -6 -13.5
t-2 -15.5q-3 -2 -4.5 -2.5t-2.5 -1t-2 -2.5t-3 -7l-23 -87q-1 -5 -1.5 -14.5t-2.5 -16.5q-1 -3 -2 -10t-1.5 -15t-1 -15t-0.5 -11q0 -9 2 -22.5t6 -24.5t10.5 -17t15.5 -1q1 0 7 4t6 5l48 91l6 18q2 7 5 20t5 27.5t3.5 28t1.5 21.5q0 3 -0.5 5t-0.5 4t0.5 3t0.5 4
q0 7 -2 8.5t-3 8.5q-1 11 -6.5 22.5t-16.5 16.5q-2 -3 -4 -11.5t-4 -18t-5.5 -18t-9.5 -11.5z" />
    <glyph glyph-name="guillemotright" unicode="&#xbb;" horiz-adv-x="453" 
d="M356 319q-15 10 -29 18t-29 19q-15 10 -26 21q-9 10 -16 15t-13 10t-13.5 11.5t-18.5 19.5q-7 9 -14.5 22t-12 25.5t-3.5 21t11 7.5q8 0 11.5 -2.5t5.5 -6t5 -9t11 -12.5l27 -27q7 -6 12 -13.5t13 -15.5l64 -44q8 -7 24 -14.5t31.5 -16.5t26 -19.5t7.5 -22.5
q-2 -10 -9.5 -17t-16.5 -12.5t-18 -10.5t-13 -11q-3 -3 -13 -10t-23 -15t-26 -16.5t-21 -15.5q-8 -6 -11.5 -6.5t-11.5 -5.5q-7 -4 -9 -8t-10 -9q-5 -3 -11.5 -6t-10.5 -6q-5 -5 -8 -9.5t-8 -9.5q-5 -6 -10.5 -7.5t-11.5 -6.5q-8 -6 -14.5 -15t-20.5 -19l-35 -36
q-12 -1 -17.5 3.5t-10.5 12.5q-2 6 4 18t15 24t18 22.5t14 15.5t8.5 7t8.5 7q4 3 7 6l6.5 6.5t8.5 7.5t13 9q5 4 7 5.5t2.5 2.5t2 2.5t4.5 5.5q3 5 9 8.5t11 6.5q6 3 8 4.5t2.5 2.5t1.5 2.5t5 5.5q5 5 9 6.5t10 6.5t7.5 7t9.5 7q11 7 19 13.5t19 12.5q11 8 22 11t14 16z
M226 319q-15 10 -29 18t-29 19q-15 10 -26 21q-9 10 -16 15t-13 10t-13.5 11.5t-18.5 19.5q-7 9 -14.5 22t-12 25.5t-3.5 21t11 7.5q8 0 11.5 -2.5t5.5 -6t5 -9t11 -12.5l27 -27q7 -6 12 -13.5t13 -15.5l64 -44q8 -7 24 -14.5t31.5 -16.5t26 -19.5t7.5 -22.5
q-2 -10 -9.5 -17t-16.5 -12.5t-18 -10.5t-13 -11q-3 -3 -13 -10t-23 -15t-26 -16.5t-21 -15.5q-8 -6 -11.5 -6.5t-11.5 -5.5q-7 -4 -9 -8t-10 -9q-5 -3 -11.5 -6t-10.5 -6q-5 -5 -8 -9.5t-8 -9.5q-5 -6 -10.5 -7.5t-11.5 -6.5q-8 -6 -14.5 -15t-20.5 -19l-35 -36
q-12 -1 -17.5 3.5t-10.5 12.5q-2 6 4 18t15 24t18 22.5t14 15.5t8.5 7t8.5 7q4 3 7 6l6.5 6.5t8.5 7.5t13 9q5 4 7 5.5t2.5 2.5t2 2.5t4.5 5.5q3 5 9 8.5t11 6.5q6 3 8 4.5t2.5 2.5t1.5 2.5t5 5.5q5 5 9 6.5t10 6.5t7.5 7t9.5 7q11 7 19 13.5t19 12.5q11 8 22 11t14 16z" />
    <glyph glyph-name="onequarter" unicode="&#xbc;" horiz-adv-x="845" 
d="M36 463q-8 13 -3 16t13 7t22 21.5t28.5 38t27 39.5t17.5 28q10 17 15 31t19 22q6 -2 8 -3.5l6 -4.5q2 -3 -2.5 -28t-11 -55.5t-13 -58t-9.5 -35.5q-2 -6 -4 -10.5t-4 -10.5l-31 -128q-2 -7 -2 -11t-0.5 -9.5t-3.5 -15t-10 -27.5l-22 -87q-3 -9 -6.5 -19t-5.5 -20
l-39 -123q-5 -11 -9 -17t-18 -6l-4 10t-2 11l19 150q7 35 17.5 71.5t15.5 57.5q4 20 7 30t6 18t6.5 18t8.5 30q2 8 5.5 12t5.5 15t7.5 27.5t11.5 34t12 34.5t8 28l-58 -66q-5 -6 -11 -10t-17 -5zM60 -22q-1 4 1 11t5 14.5l6 15t5 11.5q6 16 9.5 23.5t12.5 20.5q8 11 11.5 20
t11.5 24q4 9 7 14.5t5 9.5t5 6.5l9 7.5q8 5 7.5 9.5t4.5 13.5q3 6 6 9t7 10q2 5 4.5 11t5.5 11q5 9 6.5 9t9.5 6q8 7 7.5 10.5t3.5 13.5q4 8 7.5 9.5t6.5 9.5q6 14 10 22t12 19l54 80q4 10 6.5 11.5t7.5 8.5l25 39q11 12 16.5 19.5t9 13.5t7 11t9.5 12q9 9 11.5 12.5t3.5 6
t2 6t8 14.5q5 7 10.5 19.5t12.5 24t15.5 18t20.5 3.5q7 -9 7.5 -20.5t-3 -23.5t-9 -22.5t-9.5 -17.5q-6 -9 -11 -17t-10 -17q-5 -8 -5 -11.5t-2 -9.5q-5 -10 -12 -18t-18 -31q-6 -13 -11.5 -16t-11.5 -16q-8 -18 -13.5 -26.5t-9.5 -14t-7 -11.5t-7 -19l-14 -2q0 -5 -0.5 -7
t-1 -3t-1.5 -2t-3 -4q-8 -10 -8 -16t-7 -14q-4 -5 -4 -4t-3 -2q-5 -4 -5.5 -7l-1 -6t-2 -6.5t-7.5 -8.5l-8 -8t-7 -9q-4 -6 -5.5 -7t-2 -1.5t-1 -3t-2.5 -9.5q-2 -8 -14.5 -24.5t-23.5 -32.5q-5 -9 -7.5 -9t-7.5 -8l-5 -10t-5 -11q-5 -11 -9 -15.5t-7 -7.5t-6.5 -6t-6.5 -10
q-2 -3 -4.5 -9t-5.5 -13t-6 -12.5t-5 -7.5q-8 -8 -10 -11t-3 -6t-3 -8t-8 -15q-10 -15 -16 -22.5t-11 -9.5t-10 0t-13 4l-2 15v0zM689 337q2 15 9 35.5t16 42.5t18.5 43t15.5 36q3 8 11.5 31.5t18.5 49t18.5 46.5t12.5 24q10 -3 12.5 -12.5t0.5 -21t-6 -23.5t-6 -19
l-35 -115q-2 -7 -4 -8t-4 -9q-2 -4 -3 -9t-2 -9q-5 -24 -12.5 -42t-8.5 -32q14 -2 31 2.5t34 2.5q18 -1 24 -12.5t-1 -25.5q-15 -2 -24 -1.5t-19 0t-24 -2.5t-38 -9q-6 -24 -16.5 -57t-21 -66.5t-19 -64t-12.5 -48.5q-5 -20 -6 -44.5t-8 -43.5q-14 -2 -21.5 4.5t-10 16.5
t-1.5 22.5t3 23.5q7 39 12 67t11 53.5t14 54t21 69.5q-18 1 -45.5 -3.5t-58.5 -9.5t-62 -8.5t-56 0.5q-15 2 -21.5 9.5t-13.5 15.5q-17 21 -4 45q10 19 21 38t25 36q8 10 15 17.5t17 15.5q4 3 7 8t7.5 10.5t12 12t19.5 14.5q8 5 8.5 7.5t5.5 7.5l33 27q4 3 8.5 7.5t6.5 9.5
q8 14 11.5 17.5t17.5 14.5q5 3 8 6t8 7q7 5 19 15.5t24 19t21.5 11t10.5 -9.5q0 -4 -6 -12t-14.5 -17t-17 -16.5t-11.5 -10.5l-94 -91q-5 -5 -7.5 -8.5t-5.5 -7t-8 -9.5t-15 -15l-18 -20q-3 -3 -3.5 -4.5t-1 -2.5t-3 -3.5l-8.5 -8.5q-7 -6 -9 -11t-7 -11q-2 -2 -10 -10.5
t-16 -18.5t-13 -20.5t0 -17.5q8 -6 13 -6h16q33 0 44.5 0.5t16 2t9.5 3.5t24 5q31 5 61.5 11t58.5 9z" />
    <glyph glyph-name="onehalf" unicode="&#xbd;" horiz-adv-x="859" 
d="M36 463q-8 13 -3 16t13 7t22 21.5t28.5 38t27 39.5t17.5 28q10 17 15 31t19 22q6 -2 8 -3.5l6 -4.5q2 -3 -2.5 -28t-11 -55.5t-13 -58t-9.5 -35.5q-2 -6 -4 -10.5t-4 -10.5l-31 -128q-2 -7 -2 -11t-0.5 -9.5t-3.5 -15t-10 -27.5l-22 -87q-3 -9 -6.5 -19t-5.5 -20
l-39 -123q-5 -11 -9 -17t-18 -6l-4 10t-2 11l19 150q7 35 17.5 71.5t15.5 57.5q4 20 7 30t6 18t6.5 18t8.5 30q2 8 5.5 12t5.5 15t7.5 27.5t11.5 34t12 34.5t8 28l-58 -66q-5 -6 -11 -10t-17 -5zM60 -22q-1 4 1 11t5 14.5l6 15t5 11.5q6 16 9.5 23.5t12.5 20.5q8 11 11.5 20
t11.5 24q4 9 7 14.5t5 9.5t5 6.5l9 7.5q8 5 7.5 9.5t4.5 13.5q3 6 6 9t7 10q2 5 4.5 11t5.5 11q5 9 6.5 9t9.5 6q8 7 7.5 10.5t3.5 13.5q4 8 7.5 9.5t6.5 9.5q6 14 10 22t12 19l54 80q4 10 6.5 11.5t7.5 8.5l25 39q11 12 16.5 19.5t9 13.5t7 11t9.5 12q9 9 11.5 12.5t3.5 6
t2 6t8 14.5q5 7 10.5 19.5t12.5 24t15.5 18t20.5 3.5q7 -9 7.5 -20.5t-3 -23.5t-9 -22.5t-9.5 -17.5q-6 -9 -11 -17t-10 -17q-5 -8 -5 -11.5t-2 -9.5q-5 -10 -12 -18t-18 -31q-6 -13 -11.5 -16t-11.5 -16q-8 -18 -13.5 -26.5t-9.5 -14t-7 -11.5t-7 -19l-14 -2q0 -5 -0.5 -7
t-1 -3t-1.5 -2t-3 -4q-8 -10 -8 -16t-7 -14q-4 -5 -4 -4t-3 -2q-5 -4 -5.5 -7l-1 -6t-2 -6.5t-7.5 -8.5l-8 -8t-7 -9q-4 -6 -5.5 -7t-2 -1.5t-1 -3t-2.5 -9.5q-2 -8 -14.5 -24.5t-23.5 -32.5q-5 -9 -7.5 -9t-7.5 -8l-5 -10t-5 -11q-5 -11 -9 -15.5t-7 -7.5t-6.5 -6t-6.5 -10
q-2 -3 -4.5 -9t-5.5 -13t-6 -12.5t-5 -7.5q-8 -8 -10 -11t-3 -6t-3 -8t-8 -15q-10 -15 -16 -22.5t-11 -9.5t-10 0t-13 4l-2 15v0zM474 396q-7 -2 -14.5 1t-14 9t-11.5 14t-6 16q-3 18 3.5 38t18.5 39t26 35t26 27l12 10q13 13 33 24.5t42 20.5t44.5 15t41.5 8q30 3 60.5 -2
t53.5 -19t36.5 -37t10.5 -56q-2 -18 -10 -40.5t-19.5 -45.5t-24 -43t-24.5 -33q-7 -9 -9.5 -11t-10.5 -14q-14 -20 -23 -31t-17 -19.5t-16 -17.5t-19 -23t-16.5 -18t-8 -5t-4.5 -2.5t-7 -9.5q-2 -2 -4.5 -7.5t-3.5 -6.5l-39 -32q-11 -5 -14.5 -9t-8.5 -16q18 3 44 2.5t53 -2
t52.5 -4t42.5 -4.5q28 -4 42.5 -8t34.5 -18q21 -14 28 -35.5t-4 -35.5q-8 0 -11 1.5t-5.5 4.5t-6 7t-12.5 10q-9 7 -17.5 10t-19.5 6t-22 5t-20 5q-10 2 -32 3t-45.5 1.5t-44 0t-28.5 -1.5l-86 -11q-12 0 -19 -2t-12 -5t-10 -7.5t-12 -8.5q-8 -5 -13.5 -7t-13.5 -6
q-5 -2 -15 -8t-21.5 -10.5t-24 -6t-22.5 5.5q-15 10 -10.5 24.5t13.5 23.5q7 7 22 15.5t32 18.5t34 21t29 23q14 14 34.5 26t29.5 20q12 8 20 20t19 19q23 14 41 37q5 6 11 9t11 8l18 19q6 7 10.5 9.5t9.5 8.5q8 11 11.5 16t6 7.5t6.5 6t13 11.5q6 5 8.5 9t8.5 12
q13 19 16.5 22.5t4 3.5t1.5 2t9 17q2 4 10 14t17 24.5t16 32t7 35.5q0 19 -10 32t-26 21.5t-35 12t-37 3.5q-20 0 -42.5 -5.5t-44 -13.5t-41 -18.5t-32.5 -20.5q-15 -11 -28.5 -23.5t-23.5 -26.5q-18 -27 -26 -43.5t-9 -26t3.5 -14.5t10.5 -8.5t11.5 -8.5t7.5 -15z" />
    <glyph glyph-name="threequarters" unicode="&#xbe;" horiz-adv-x="1116" 
d="M109 597q5 13 26 26t48.5 22.5t58 12.5t54 -3t36 -23.5t5.5 -50.5q-3 -12 -14 -29t-24 -33.5t-25.5 -29.5t-18.5 -18l-106 -83h40.5t45 -0.5t43.5 -3t37 -6.5q39 -11 69 -30.5t45 -46.5t13 -61t-27 -74q-6 -9 -19 -22t-28 -26t-28.5 -22.5t-19.5 -12.5q-7 -2 -9 -1t-9 -3
q-4 -3 -4 -5t-2.5 -4t-10 -5t-27.5 -8q-15 -5 -35.5 -10t-36.5 -7q-14 -2 -36 -1.5t-45.5 3t-45 5.5t-32.5 7q-14 4 -30 11.5t-30 17t-25.5 22t-16.5 27.5q-5 18 0.5 41.5t16 42t22.5 27.5t20 -2q3 -13 -3 -24.5t-11.5 -23.5t-6 -25.5t12.5 -29.5q10 -13 29.5 -22.5t41 -16
t41 -9.5t30.5 -1l59 3q36 2 73.5 15t68.5 33q14 9 28 19.5t26 23.5t20 29.5t10 37.5q2 23 -14.5 40t-41 29t-53 18.5t-50.5 8.5q-47 6 -85.5 2t-66.5 -7.5t-43 -1t-14 20.5q0 12 9 19.5t21 13t25 10t22 10.5l115 79q6 4 7.5 6.5l3 5t6 6t16.5 11.5q9 6 20 18t18.5 26.5
t10 29t-5.5 25t-29 13.5t-59 -4l-22.5 -5t-26 -7.5t-23.5 -11t-15 -16.5q4 -3 5.5 -3.5t2 -1t0.5 -2.5t1 -6q-11 -6 -18.5 3t-9.5 18zM345 -22q-1 4 1 11t5 14.5l6 15t5 11.5q6 16 9.5 23.5t12.5 20.5q8 11 11.5 20t11.5 24q4 9 7 14.5t5 9.5t5 6.5l9 7.5q8 5 7.5 9.5
t4.5 13.5q3 6 6 9t7 10q2 5 4.5 11t5.5 11q5 9 6.5 9t9.5 6q8 7 7.5 10.5t3.5 13.5q4 8 7.5 9.5t6.5 9.5q6 14 10 22t12 19l54 80q4 10 6.5 11.5t7.5 8.5l25 39q11 12 16.5 19.5t9 13.5t7 11t9.5 12q9 9 11.5 12.5t3.5 6t2 6t8 14.5q5 7 10.5 19.5t12.5 24t15.5 18t20.5 3.5
q7 -9 7.5 -20.5t-3 -23.5t-9 -22.5t-9.5 -17.5q-6 -9 -11 -17t-10 -17q-5 -8 -5 -11.5t-2 -9.5q-5 -10 -12 -18t-18 -31q-6 -13 -11.5 -16t-11.5 -16q-8 -18 -13.5 -26.5t-9.5 -14t-7 -11.5t-7 -19l-14 -2q0 -5 -0.5 -7t-1 -3t-1.5 -2t-3 -4q-8 -10 -8 -16t-7 -14
q-4 -5 -4 -4t-3 -2q-5 -4 -5.5 -7l-1 -6t-2 -6.5t-7.5 -8.5l-8 -8t-7 -9q-4 -6 -5.5 -7t-2 -1.5t-1 -3t-2.5 -9.5q-2 -8 -14.5 -24.5t-23.5 -32.5q-5 -9 -7.5 -9t-7.5 -8l-5 -10t-5 -11q-5 -11 -9 -15.5t-7 -7.5t-6.5 -6t-6.5 -10q-2 -3 -4.5 -9t-5.5 -13t-6 -12.5t-5 -7.5
q-8 -8 -10 -11t-3 -6t-3 -8t-8 -15q-10 -15 -16 -22.5t-11 -9.5t-10 0t-13 4l-2 15v0zM947 337q2 15 9 35.5t16 42.5t18.5 43t15.5 36q3 8 11.5 31.5t18.5 49t18.5 46.5t12.5 24q10 -3 12.5 -12.5t0.5 -21t-6 -23.5t-6 -19l-35 -115q-2 -7 -4 -8t-4 -9q-2 -4 -3 -9t-2 -9
q-5 -24 -12.5 -42t-8.5 -32q14 -2 31 2.5t34 2.5q18 -1 24 -12.5t-1 -25.5q-15 -2 -24 -1.5t-19 0t-24 -2.5t-38 -9q-6 -24 -16.5 -57t-21 -66.5t-19 -64t-12.5 -48.5q-5 -20 -6 -44.5t-8 -43.5q-14 -2 -21.5 4.5t-10 16.5t-1.5 22.5t3 23.5q7 39 12 67t11 53.5t14 54
t21 69.5q-18 1 -45.5 -3.5t-58.5 -9.5t-62 -8.5t-56 0.5q-15 2 -21.5 9.5t-13.5 15.5q-17 21 -4 45q10 19 21 38t25 36q8 10 15 17.5t17 15.5q4 3 7 8t7.5 10.5t12 12t19.5 14.5q8 5 8.5 7.5t5.5 7.5l33 27q4 3 8.5 7.5t6.5 9.5q8 14 11.5 17.5t17.5 14.5q5 3 8 6t8 7
q7 5 19 15.5t24 19t21.5 11t10.5 -9.5q0 -4 -6 -12t-14.5 -17t-17 -16.5t-11.5 -10.5l-94 -91q-5 -5 -7.5 -8.5t-5.5 -7t-8 -9.5t-15 -15l-18 -20q-3 -3 -3.5 -4.5t-1 -2.5t-3 -3.5l-8.5 -8.5q-7 -6 -9 -11t-7 -11q-2 -2 -10 -10.5t-16 -18.5t-13 -20.5t0 -17.5q8 -6 13 -6
h16q33 0 44.5 0.5t16 2t9.5 3.5t24 5q31 5 61.5 11t58.5 9z" />
    <glyph glyph-name="questiondown" unicode="&#xbf;" horiz-adv-x="307" 
d="M227.005 108.027q0 -19.999 -12.999 -40.9971q-13 -20.999 -31.998 -39.498q-18.999 -18.499 -39.998 -34.498t-36.998 -26.998q-11.999 -8.99902 -31.498 -17.999q-19.498 -8.99902 -40.9971 -15.999q-21.499 -6.99902 -41.998 -10.499q-20.498 -3.5 -35.4971 0.5
q-11 3 -20.999 15.499t-10.999 17.499q-1 7.99902 3 21.498q3.99902 13.5 8.99902 26.999t9.99902 23.998q5 10.5 7 12.499q3 3 4 3.5t2 1.5q0.999023 1 2.99902 4t6 9.99902l29.998 43.9971q4 7 7.5 9.5q3.49902 2.5 9.49902 7.49902q8 7 7 10t4.99902 12.999
q8 13.999 18.499 18.999q10.499 4.99902 18.499 17.999q5 5.99902 6.99902 11.999q2 6 7 10.999q9 12 11.499 17.499q2.5 5.5 4 9q1.5 3.49902 4.5 6.49902t12.999 8q8 3.99902 10.499 10.999q2.5 7 5.5 14.499q3 7.5 9.49902 15.499q6.5 8 23.499 14.999q1 11 2.5 15.999
q1.5 5 4.49902 8q3 2.99902 7 5.99902t8 11l46.9971 79.9951q6.99902 5.99902 8.99902 9.99902t2.5 7q0.5 2.99902 0 6.99902t1.5 10.999q3 9 9.99902 11.5q7 2.5 13.499 1q6.5 -1.5 12 -5q5.49902 -3.5 6.49902 -6.5q0 -8.99902 1.5 -13.499q1.5 -4.49902 2 -8.99902
t0.5 -9q0 -4.49902 -2 -13.499q-3 -11.999 -2.5 -14.999t0.5 -4.5t-2 -3.99902q-2 -2.5 -9.99902 -13.499q-5 -8 -6.5 -15.5q-1.5 -7.49902 -9.49902 -18.498q-7 -9 -10.499 -14.999q-3.5 -6 -8.5 -16.999q-6.99902 -14.999 -12.499 -24.499q-5.5 -9.49902 -9.99902 -15.999
q-4.5 -6.49902 -8.5 -11.499t-7 -10.999q-4.99902 -8 -6.99902 -11t-3.5 -4.99902q-1.5 -2 -4 -4.5q-2.49902 -2.5 -8.49902 -8.5l-31.998 -43.9971q-4 -4 -7 -6.49902q-2.99902 -2.5 -5.99902 -6.5q-6 -7 -10 -13.999q-3.99902 -7 -11.999 -14.999
q-6.99902 -6 -11.999 -12.999q-9 -12 -14.499 -16.999q-5.5 -5 -9 -7q-3.49902 -2 -6.49902 -4.5q-3 -2.49902 -8 -9.49902q-13.999 -18.999 -25.498 -27.998q-11.499 -9 -23.499 -25.999q-4.99902 -6.99902 -11.999 -15.999q-6.99902 -8.99902 -13.499 -17.499
q-6.5 -8.49902 -9.99902 -15.999q-3.5 -7.49902 -2.5 -10.499q2.99902 -7.99902 16.999 -7.49902q13.999 0.5 29.998 4.99902q15.999 4.5 30.498 10q14.499 5.49902 19.499 7.49902q33.9971 13.999 59.4961 33.998q25.498 19.999 51.4971 44.9971q4.99902 5 10.999 11.999
q6 7 10.999 15.499q5 8.5 8 17.499q3 9 1 16.999q-8 6 -12 6.5q-3.99902 0.5 -5.99902 11.499q5 0 11.499 -0.5q6.5 -0.5 11.499 -3q5 -2.49902 8.5 -8.99902t3.5 -19.499zM265.002 509.003q-8.99902 9 -10.499 13.499q-1.5 4.5 -3.5 19.499q-1 8 1 17.999t4 17.999
q7.99902 25.998 23.498 33.498q15.499 7.49902 27.999 1q12.499 -6.5 16.999 -23.499q4.49902 -16.999 -9.5 -40.9971q-7.99902 -13.999 -18.999 -26.999q-10.999 -12.999 -30.998 -11.999zM296 582.998v2q0 6 1 4.5t-3.99902 2.5q-2 -7 -2 -6t2 -5.99902z" />
    <glyph glyph-name="Agrave" unicode="&#xc0;" horiz-adv-x="490" 
d="M-75 188q16 12 43 23.5t46 20.5q31 15 48 22t26 11.5t13 9t9 14t13.5 26.5t27.5 47q12 20 24.5 42t26.5 38q11 11 15.5 19t12.5 19q7 8 16 16.5t18 16.5q15 15 32 32.5t35.5 34t38.5 30t40 21.5q32 11 48 -7t16 -49q0 -30 -11.5 -67.5t-19.5 -68.5q-3 -11 -6 -17.5
t-5 -12.5q-2 -5 -2.5 -8.5t-1 -6.5t-1.5 -6t-4 -9q-6 -13 -11.5 -27.5t-5.5 -31.5h21.5h16t16.5 -1.5t24 -5.5q10 -2 15.5 -4t9 -5t5.5 -8.5t4 -15.5q-3 -5 -4.5 -7t-8.5 -5q-8 4 -8.5 5t-3.5 11q-13 5 -24 5h-48t-23.5 -3t-10 -11.5t-6.5 -25.5q0 -2 -4.5 -12.5t-10 -26
t-12 -34t-10.5 -35.5q-4 -15 -10 -25t-9 -30q-5 -27 -13 -58t-19 -57q-6 -15 -8.5 -27.5t-4.5 -31.5q-3 -14 -6.5 -33t-3.5 -32q0 -18 4.5 -22.5t8 -7t4.5 -7t-5 -21.5q-12 -3 -18.5 -3t-11 2t-7.5 6.5t-8 11.5q-14 18 -17 38.5t-0.5 42t8 44t9.5 46.5q5 28 10.5 49t11 38.5
t10.5 32.5t9 33l43 146q-11 1 -27.5 -1t-34.5 -5t-34.5 -6.5t-26.5 -6.5q-26 -7 -40.5 -9t-22.5 -4t-13.5 -6.5t-13.5 -16.5l-37 -62q-5 -8 -11.5 -25t-11.5 -35.5t-7.5 -36.5t2.5 -27q6 0 9.5 1t5.5 2.5t5 2.5t8 3q-6 -24 -35 -18q-14 16 -10.5 42.5t13.5 56t22 56.5t17 45
q-11 -1 -29 -6t-36.5 -12t-34 -14t-21.5 -13q10 -6 20 -5t17 -9l-12 -1q-21 -1 -33 -1t-17.5 2t-6.5 7t0 14zM138 279q24 5 47 11.5t49 10.5t53.5 7t52.5 8l35 102q2 5 3.5 6.5t4.5 7.5l32 85q6 13 12.5 36t5.5 37q-14 0 -32.5 -11.5t-37.5 -26.5t-35.5 -31t-24.5 -25
q-11 -13 -19 -21.5t-16 -19.5q-5 -6 -9 -9t-11.5 -10t-19 -21.5t-30.5 -42.5q-5 -8 -14 -20.5t-18.5 -26.5t-17 -26.5t-10.5 -19.5zM427 804q15 1 18.5 2t6.5 -1t9.5 -7.5t26.5 -16.5q12 -7 14 -8.5t4 -6.5q-6 -2 -6.5 -1.5t-8.5 2.5q8 -15 18.5 -31.5t16.5 -35.5
q2 -6 0.5 -14.5t-9.5 -10.5q-6 -2 -9 2t-7.5 12.5t-13 20.5t-24.5 26q-8 7 -16.5 14t-14.5 15.5t-8 17.5t3 21z" />
    <glyph glyph-name="Aacute" unicode="&#xc1;" horiz-adv-x="490" 
d="M-75 188q16 12 43 23.5t46 20.5q31 15 48 22t26 11.5t13 9t9 14t13.5 26.5t27.5 47q12 20 24.5 42t26.5 38q11 11 15.5 19t12.5 19q7 8 16 16.5t18 16.5q15 15 32 32.5t35.5 34t38.5 30t40 21.5q32 11 48 -7t16 -49q0 -30 -11.5 -67.5t-19.5 -68.5q-3 -11 -6 -17.5
t-5 -12.5q-2 -5 -2.5 -8.5t-1 -6.5t-1.5 -6t-4 -9q-6 -13 -11.5 -27.5t-5.5 -31.5h21.5h16t16.5 -1.5t24 -5.5q10 -2 15.5 -4t9 -5t5.5 -8.5t4 -15.5q-3 -5 -4.5 -7t-8.5 -5q-8 4 -8.5 5t-3.5 11q-13 5 -24 5h-48t-23.5 -3t-10 -11.5t-6.5 -25.5q0 -2 -4.5 -12.5t-10 -26
t-12 -34t-10.5 -35.5q-4 -15 -10 -25t-9 -30q-5 -27 -13 -58t-19 -57q-6 -15 -8.5 -27.5t-4.5 -31.5q-3 -14 -6.5 -33t-3.5 -32q0 -18 4.5 -22.5t8 -7t4.5 -7t-5 -21.5q-12 -3 -18.5 -3t-11 2t-7.5 6.5t-8 11.5q-14 18 -17 38.5t-0.5 42t8 44t9.5 46.5q5 28 10.5 49t11 38.5
t10.5 32.5t9 33l43 146q-11 1 -27.5 -1t-34.5 -5t-34.5 -6.5t-26.5 -6.5q-26 -7 -40.5 -9t-22.5 -4t-13.5 -6.5t-13.5 -16.5l-37 -62q-5 -8 -11.5 -25t-11.5 -35.5t-7.5 -36.5t2.5 -27q6 0 9.5 1t5.5 2.5t5 2.5t8 3q-6 -24 -35 -18q-14 16 -10.5 42.5t13.5 56t22 56.5t17 45
q-11 -1 -29 -6t-36.5 -12t-34 -14t-21.5 -13q10 -6 20 -5t17 -9l-12 -1q-21 -1 -33 -1t-17.5 2t-6.5 7t0 14zM138 279q24 5 47 11.5t49 10.5t53.5 7t52.5 8l35 102q2 5 3.5 6.5t4.5 7.5l32 85q6 13 12.5 36t5.5 37q-14 0 -32.5 -11.5t-37.5 -26.5t-35.5 -31t-24.5 -25
q-11 -13 -19 -21.5t-16 -19.5q-5 -6 -9 -9t-11.5 -10t-19 -21.5t-30.5 -42.5q-5 -8 -14 -20.5t-18.5 -26.5t-17 -26.5t-10.5 -19.5zM470 677q-3 11 0.5 23t9.5 23t13 21t12 18q5 7 11.5 18t14.5 20t18.5 13t22.5 -5q7 -10 -1 -22.5t-23 -28.5t-31.5 -36t-26.5 -45l-20 1v0z
" />
    <glyph glyph-name="Acircumflex" unicode="&#xc2;" horiz-adv-x="490" 
d="M-75 188q16 12 43 23.5t46 20.5q31 15 48 22t26 11.5t13 9t9 14t13.5 26.5t27.5 47q12 20 24.5 42t26.5 38q11 11 15.5 19t12.5 19q7 8 16 16.5t18 16.5q15 15 32 32.5t35.5 34t38.5 30t40 21.5q32 11 48 -7t16 -49q0 -30 -11.5 -67.5t-19.5 -68.5q-3 -11 -6 -17.5
t-5 -12.5q-2 -5 -2.5 -8.5t-1 -6.5t-1.5 -6t-4 -9q-6 -13 -11.5 -27.5t-5.5 -31.5h21.5h16t16.5 -1.5t24 -5.5q10 -2 15.5 -4t9 -5t5.5 -8.5t4 -15.5q-3 -5 -4.5 -7t-8.5 -5q-8 4 -8.5 5t-3.5 11q-13 5 -24 5h-48t-23.5 -3t-10 -11.5t-6.5 -25.5q0 -2 -4.5 -12.5t-10 -26
t-12 -34t-10.5 -35.5q-4 -15 -10 -25t-9 -30q-5 -27 -13 -58t-19 -57q-6 -15 -8.5 -27.5t-4.5 -31.5q-3 -14 -6.5 -33t-3.5 -32q0 -18 4.5 -22.5t8 -7t4.5 -7t-5 -21.5q-12 -3 -18.5 -3t-11 2t-7.5 6.5t-8 11.5q-14 18 -17 38.5t-0.5 42t8 44t9.5 46.5q5 28 10.5 49t11 38.5
t10.5 32.5t9 33l43 146q-11 1 -27.5 -1t-34.5 -5t-34.5 -6.5t-26.5 -6.5q-26 -7 -40.5 -9t-22.5 -4t-13.5 -6.5t-13.5 -16.5l-37 -62q-5 -8 -11.5 -25t-11.5 -35.5t-7.5 -36.5t2.5 -27q6 0 9.5 1t5.5 2.5t5 2.5t8 3q-6 -24 -35 -18q-14 16 -10.5 42.5t13.5 56t22 56.5t17 45
q-11 -1 -29 -6t-36.5 -12t-34 -14t-21.5 -13q10 -6 20 -5t17 -9l-12 -1q-21 -1 -33 -1t-17.5 2t-6.5 7t0 14zM138 279q24 5 47 11.5t49 10.5t53.5 7t52.5 8l35 102q2 5 3.5 6.5t4.5 7.5l32 85q6 13 12.5 36t5.5 37q-14 0 -32.5 -11.5t-37.5 -26.5t-35.5 -31t-24.5 -25
q-11 -13 -19 -21.5t-16 -19.5q-5 -6 -9 -9t-11.5 -10t-19 -21.5t-30.5 -42.5q-5 -8 -14 -20.5t-18.5 -26.5t-17 -26.5t-10.5 -19.5zM363 695q-2 5 -1 7t3 5q7 7 18.5 14.5t20.5 13.5q3 2 4 3.5t4 3.5q3 3 4.5 3t5.5 3l43 37q8 8 15 18t20 12q7 0 13.5 -3t7.5 -8
q2 -9 2 -17.5t1 -17.5t3.5 -20t10.5 -25q2 -4 4 -5t4 -4l4 -11q3 -6 4.5 -8.5t3 -4l2.5 -2.5t3 -4q1 -2 4 -8.5t6.5 -13.5t6 -13.5t2.5 -7.5q-2 -4 -1.5 -3.5t-3.5 -4.5q-8 0 -12 2.5t-7 6.5t-5.5 8t-7.5 8q-8 5 -12.5 13t-10.5 16q-4 5 -9 16t-9.5 23t-8.5 22.5t-6 13.5
q-8 -1 -16.5 -8.5t-14.5 -12.5q-9 -6 -20.5 -14.5t-24.5 -16t-26 -12.5t-24 -4z" />
    <glyph glyph-name="Atilde" unicode="&#xc3;" horiz-adv-x="490" 
d="M-75 188q16 12 43 23.5t46 20.5q31 15 48 22t26 11.5t13 9t9 14t13.5 26.5t27.5 47q12 20 24.5 42t26.5 38q11 11 15.5 19t12.5 19q7 8 16 16.5t18 16.5q15 15 32 32.5t35.5 34t38.5 30t40 21.5q32 11 48 -7t16 -49q0 -30 -11.5 -67.5t-19.5 -68.5q-3 -11 -6 -17.5
t-5 -12.5q-2 -5 -2.5 -8.5t-1 -6.5t-1.5 -6t-4 -9q-6 -13 -11.5 -27.5t-5.5 -31.5h21.5h16t16.5 -1.5t24 -5.5q10 -2 15.5 -4t9 -5t5.5 -8.5t4 -15.5q-3 -5 -4.5 -7t-8.5 -5q-8 4 -8.5 5t-3.5 11q-13 5 -24 5h-48t-23.5 -3t-10 -11.5t-6.5 -25.5q0 -2 -4.5 -12.5t-10 -26
t-12 -34t-10.5 -35.5q-4 -15 -10 -25t-9 -30q-5 -27 -13 -58t-19 -57q-6 -15 -8.5 -27.5t-4.5 -31.5q-3 -14 -6.5 -33t-3.5 -32q0 -18 4.5 -22.5t8 -7t4.5 -7t-5 -21.5q-12 -3 -18.5 -3t-11 2t-7.5 6.5t-8 11.5q-14 18 -17 38.5t-0.5 42t8 44t9.5 46.5q5 28 10.5 49t11 38.5
t10.5 32.5t9 33l43 146q-11 1 -27.5 -1t-34.5 -5t-34.5 -6.5t-26.5 -6.5q-26 -7 -40.5 -9t-22.5 -4t-13.5 -6.5t-13.5 -16.5l-37 -62q-5 -8 -11.5 -25t-11.5 -35.5t-7.5 -36.5t2.5 -27q6 0 9.5 1t5.5 2.5t5 2.5t8 3q-6 -24 -35 -18q-14 16 -10.5 42.5t13.5 56t22 56.5t17 45
q-11 -1 -29 -6t-36.5 -12t-34 -14t-21.5 -13q10 -6 20 -5t17 -9l-12 -1q-21 -1 -33 -1t-17.5 2t-6.5 7t0 14zM138 279q24 5 47 11.5t49 10.5t53.5 7t52.5 8l35 102q2 5 3.5 6.5t4.5 7.5l32 85q6 13 12.5 36t5.5 37q-14 0 -32.5 -11.5t-37.5 -26.5t-35.5 -31t-24.5 -25
q-11 -13 -19 -21.5t-16 -19.5q-5 -6 -9 -9t-11.5 -10t-19 -21.5t-30.5 -42.5q-5 -8 -14 -20.5t-18.5 -26.5t-17 -26.5t-10.5 -19.5zM352 711q0 18 13 32t22 22q10 8 29 15.5t35 7.5q18 0 29 -8.5t18 -20t11.5 -23t10.5 -17.5q11 3 17 8t14 12q9 8 11.5 11t2.5 5t-1 5t1 11
q15 -1 23 -5t13 -15q7 -13 4.5 -21.5t-9 -14.5t-14 -10.5t-10.5 -10.5q-5 -8 -14.5 -12.5t-14.5 -4.5q-18 0 -33.5 8.5t-22.5 17.5q-8 11 -12 23t-12 22q-46 -4 -67 -41q-3 -6 -3.5 -12t-1.5 -10.5t-3.5 -6.5t-10.5 -1q-15 2 -20 11.5t-5 22.5z" />
    <glyph glyph-name="Adieresis" unicode="&#xc4;" horiz-adv-x="490" 
d="M-75 188q16 12 43 23.5t46 20.5q31 15 48 22t26 11.5t13 9t9 14t13.5 26.5t27.5 47q12 20 24.5 42t26.5 38q11 11 15.5 19t12.5 19q7 8 16 16.5t18 16.5q15 15 32 32.5t35.5 34t38.5 30t40 21.5q32 11 48 -7t16 -49q0 -30 -11.5 -67.5t-19.5 -68.5q-3 -11 -6 -17.5
t-5 -12.5q-2 -5 -2.5 -8.5t-1 -6.5t-1.5 -6t-4 -9q-6 -13 -11.5 -27.5t-5.5 -31.5h21.5h16t16.5 -1.5t24 -5.5q10 -2 15.5 -4t9 -5t5.5 -8.5t4 -15.5q-3 -5 -4.5 -7t-8.5 -5q-8 4 -8.5 5t-3.5 11q-13 5 -24 5h-48t-23.5 -3t-10 -11.5t-6.5 -25.5q0 -2 -4.5 -12.5t-10 -26
t-12 -34t-10.5 -35.5q-4 -15 -10 -25t-9 -30q-5 -27 -13 -58t-19 -57q-6 -15 -8.5 -27.5t-4.5 -31.5q-3 -14 -6.5 -33t-3.5 -32q0 -18 4.5 -22.5t8 -7t4.5 -7t-5 -21.5q-12 -3 -18.5 -3t-11 2t-7.5 6.5t-8 11.5q-14 18 -17 38.5t-0.5 42t8 44t9.5 46.5q5 28 10.5 49t11 38.5
t10.5 32.5t9 33l43 146q-11 1 -27.5 -1t-34.5 -5t-34.5 -6.5t-26.5 -6.5q-26 -7 -40.5 -9t-22.5 -4t-13.5 -6.5t-13.5 -16.5l-37 -62q-5 -8 -11.5 -25t-11.5 -35.5t-7.5 -36.5t2.5 -27q6 0 9.5 1t5.5 2.5t5 2.5t8 3q-6 -24 -35 -18q-14 16 -10.5 42.5t13.5 56t22 56.5t17 45
q-11 -1 -29 -6t-36.5 -12t-34 -14t-21.5 -13q10 -6 20 -5t17 -9l-12 -1q-21 -1 -33 -1t-17.5 2t-6.5 7t0 14zM138 279q24 5 47 11.5t49 10.5t53.5 7t52.5 8l35 102q2 5 3.5 6.5t4.5 7.5l32 85q6 13 12.5 36t5.5 37q-14 0 -32.5 -11.5t-37.5 -26.5t-35.5 -31t-24.5 -25
q-11 -13 -19 -21.5t-16 -19.5q-5 -6 -9 -9t-11.5 -10t-19 -21.5t-30.5 -42.5q-5 -8 -14 -20.5t-18.5 -26.5t-17 -26.5t-10.5 -19.5zM529 767q21 4 28 -5t4.5 -22.5t-12 -27t-21.5 -16.5q-18 -5 -28.5 6.5t-9.5 28.5q2 19 12 25.5t27 10.5zM438 767q21 4 28 -5t4.5 -22.5
t-12 -27t-21.5 -16.5q-18 -5 -28.5 6.5t-9.5 28.5q2 19 12 25.5t27 10.5z" />
    <glyph glyph-name="Aring" unicode="&#xc5;" horiz-adv-x="490" 
d="M493 760q5 -5 5.5 -7t5.5 -10q3 -8 4.5 -9t6.5 -6q7 -8 8 -20t-4 -23q-3 -8 -10.5 -15t-17.5 -12.5t-21.5 -7.5t-23.5 0q-19 3 -26 22t-1.5 39t24 36t50.5 13zM452 722q-8 -7 -11.5 -17t-2 -18t10 -11.5t24.5 1.5q10 3 16.5 10.5t7 15t-4.5 14t-18 9.5l-9 -14
q-5 2 -6.5 2.5t-2 1t-1 2t-3.5 4.5zM-75 188q16 12 43 23.5t46 20.5q31 15 48 22t26 11.5t13 9t9 14t13.5 26.5t27.5 47q12 20 24.5 42t26.5 38q11 11 15.5 19t12.5 19q7 8 16 16.5t18 16.5q15 15 32 32.5t35.5 34t38.5 30t40 21.5q32 11 48 -7t16 -49q0 -30 -11.5 -67.5
t-19.5 -68.5q-3 -11 -6 -17.5t-5 -12.5q-2 -5 -2.5 -8.5t-1 -6.5t-1.5 -6t-4 -9q-6 -13 -11.5 -27.5t-5.5 -31.5h21.5h16t16.5 -1.5t24 -5.5q10 -2 15.5 -4t9 -5t5.5 -8.5t4 -15.5q-3 -5 -4.5 -7t-8.5 -5q-8 4 -8.5 5t-3.5 11q-13 5 -24 5h-48t-23.5 -3t-10 -11.5
t-6.5 -25.5q0 -2 -4.5 -12.5t-10 -26t-12 -34t-10.5 -35.5q-4 -15 -10 -25t-9 -30q-5 -27 -13 -58t-19 -57q-6 -15 -8.5 -27.5t-4.5 -31.5q-3 -14 -6.5 -33t-3.5 -32q0 -18 4.5 -22.5t8 -7t4.5 -7t-5 -21.5q-12 -3 -18.5 -3t-11 2t-7.5 6.5t-8 11.5q-14 18 -17 38.5t-0.5 42
t8 44t9.5 46.5q5 28 10.5 49t11 38.5t10.5 32.5t9 33l43 146q-11 1 -27.5 -1t-34.5 -5t-34.5 -6.5t-26.5 -6.5q-26 -7 -40.5 -9t-22.5 -4t-13.5 -6.5t-13.5 -16.5l-37 -62q-5 -8 -11.5 -25t-11.5 -35.5t-7.5 -36.5t2.5 -27q6 0 9.5 1t5.5 2.5t5 2.5t8 3q-6 -24 -35 -18
q-14 16 -10.5 42.5t13.5 56t22 56.5t17 45q-11 -1 -29 -6t-36.5 -12t-34 -14t-21.5 -13q10 -6 20 -5t17 -9l-12 -1q-21 -1 -33 -1t-17.5 2t-6.5 7t0 14zM138 279q24 5 47 11.5t49 10.5t53.5 7t52.5 8l35 102q2 5 3.5 6.5t4.5 7.5l32 85q6 13 12.5 36t5.5 37
q-14 0 -32.5 -11.5t-37.5 -26.5t-35.5 -31t-24.5 -25q-11 -13 -19 -21.5t-16 -19.5q-5 -6 -9 -9t-11.5 -10t-19 -21.5t-30.5 -42.5q-5 -8 -14 -20.5t-18.5 -26.5t-17 -26.5t-10.5 -19.5z" />
    <glyph glyph-name="AE" unicode="&#xc6;" horiz-adv-x="658" 
d="M416 593q11 0 24 6.5t22 11.5q15 8 24 11.5t15.5 5.5t13 3.5t17.5 5.5q6 2 10.5 4.5t12.5 4.5q13 3 34 6t41 1.5t33.5 -10t10.5 -28.5q-1 -5 -5.5 -14.5t-11.5 -17.5t-14.5 -12t-14.5 3q-2 2 -3 0t1 7l13 16q5 5 8.5 9t4.5 14q-20 4 -53 -4.5t-67.5 -21.5t-65 -26
t-46.5 -17q-10 -3 -13 -6t-3.5 -9t-1.5 -15t-8 -23q-5 -13 -6 -23t-5 -23q-3 -8 -5.5 -12.5t-4.5 -8t-3 -8t-1 -12.5q0 -9 -2.5 -13t-5 -7.5t-4.5 -7.5t-3 -13q12 9 32.5 20.5t42.5 22t44 18.5t37 10q9 1 23.5 4.5t30.5 5t29.5 -2.5t20.5 -17q3 -20 -6.5 -33t-24.5 -4
q-1 8 1 12.5t4 9.5q-20 2 -42.5 -2.5t-39.5 -14.5q-20 -11 -50.5 -23.5t-58.5 -26.5q-19 -10 -29 -13.5t-16 -6.5t-11 -9t-14 -19q-3 -5 -4.5 -11.5t-4 -16.5t-6.5 -24t-13 -34q-4 -8 -7.5 -13t-6.5 -15q-2 -7 -3.5 -14.5t-4.5 -15.5q-4 -13 -7 -17.5t-4.5 -8t-2.5 -11
t-1 -25.5q7 1 9.5 2t4 2.5t2.5 4t4 6.5q10 12 29 22.5t29 22.5q7 8 9.5 7.5t13.5 4.5q6 2 10 5t10 6l86 51l98 35q10 3 29 7t37 4t30.5 -7.5t9.5 -28.5q-3 -9 -5.5 -11t-7.5 -9q-10 -13 -14.5 -14.5t-20.5 0.5l-6 18l-82 -30q-5 -3 -7.5 -6t-8.5 -7l-9 -4.5t-10 -4.5
q-10 -5 -18.5 -9t-17.5 -10q-11 -7 -17.5 -10t-19.5 -10q-18 -8 -25 -11.5t-11 -6.5t-10 -7t-23 -14q-19 -10 -26.5 -12.5t-10 -2.5t-3.5 -1t-6 -7q-7 -8 -10 -9.5l-15 -7.5q-9 -4 -15.5 -10t-17.5 -11q-17 -10 -22 -19t-8 -16t-7.5 -11t-20.5 -4q-17 0 -23.5 11t-7 26.5
t3 31.5t5.5 25q3 11 4 17.5t2 12.5t3 13.5t7 21.5t7.5 16.5t3.5 8.5q0 9 -0.5 12t0.5 4t2 2.5t4 8.5t6.5 20t7.5 26.5t6.5 25.5t2.5 19q-5 0 -15.5 -2t-21 -5.5t-20 -7t-12.5 -4.5q-5 -2 -14.5 -5t-19.5 -6.5t-19 -6.5t-12 -6q-5 -5 -13 -22.5t-16 -38.5t-14 -41t-7 -29
l15 4q2 -13 -5.5 -17t-20.5 -3q-7 13 -5.5 30t7 35t12.5 35t10 31q-15 -4 -25.5 -9t-21.5 -12q-13 -8 -18.5 -12.5t-8.5 -7t-5.5 -2.5t-10.5 3q2 18 18 29.5t35.5 22t38 21.5t27.5 28l122 207l13 13t12 16l76 86q13 10 21.5 17.5t14.5 12.5t12.5 7.5t17.5 2.5t18 -5.5
t11.5 -14t6 -18t1.5 -17.5zM126 288q11 0 29.5 6t31.5 10q17 5 33 8.5t33 8.5q1 18 4.5 28.5t8 19.5t9.5 19.5t9 28.5q2 5 2.5 9.5t2.5 8.5q2 5 4.5 6.5t4.5 6.5t1.5 7t1.5 8q10 24 21 40.5t14 34.5q1 8 3 11.5t4 5.5l4.5 4.5t4.5 8.5q-14 -9 -27 -21.5t-23.5 -24.5
t-18 -21.5t-10.5 -11.5q-8 -7 -11 -10t-4.5 -5.5t-4 -6.5t-8.5 -13l-69 -91l-26 -38z" />
    <glyph glyph-name="Ccedilla" unicode="&#xc7;" horiz-adv-x="542" 
d="M122 -132q25 0 57.5 17.5t64.5 42.5t61 50.5t48 42.5q53 48 96.5 96t92.5 97q15 15 23 19t10.5 1t0 -11t-9.5 -17q-29 -42 -61 -83t-66 -76l-120 -119q-5 -6 -12 -10.5t-15 -9.5q-16 -13 -28.5 -23.5t-25 -20t-26.5 -19t-33 -19.5t-37 -12t-41 3q-42 8 -62.5 32t-30.5 66
q-3 13 -4 36.5t0.5 49t5 48.5t8.5 34q6 11 6 18t5 19q2 7 6.5 17t6.5 18q5 17 10.5 34t16.5 34q8 11 7.5 17.5t4.5 17.5l75 142l4 4l1.5 1.5t1 2t2.5 5.5q6 12 23.5 34.5t38 47t40 45.5t29.5 29q9 7 23.5 18t31.5 21.5t35.5 18t35.5 7.5q18 0 34 -4.5t26 -17.5
q19 -24 19 -55t-9.5 -61.5t-25 -59t-27.5 -48.5l-30 -40q-3 -3 -13.5 -16t-26 -29.5t-33.5 -33t-34.5 -26.5t-29.5 -10t-19 16q14 4 25.5 7t22 9t21.5 16.5t25 29.5l18 20q65 75 98 169q5 13 7.5 30.5t0 33.5t-12 26.5t-27.5 10.5q-14 0 -28 -5.5t-26.5 -13t-23.5 -16
t-18 -14.5q-5 -3 -13.5 -14t-18 -24t-18.5 -25t-13 -18q-19 -26 -33 -44.5t-26 -36.5t-24 -40t-27 -55q-6 -14 -12 -26.5t-8 -26.5q-1 -8 -2 -11t-2.5 -4.5l-3.5 -3.5t-5 -6l-15 -58q-2 -8 -3 -10.5t-2.5 -3.5t-3 -2.5t-3.5 -7.5l-14 -55q-2 -9 -2 -16.5t-2 -17.5
q-5 -19 -10.5 -44t-3.5 -45q2 -15 3 -31t5.5 -29t14.5 -21t29 -8zM74 -262q1 12 4.5 14.5t5.5 13.5q1 5 3.5 19t6 28.5t9.5 25t14 9.5q9 -2 10.5 -11.5t0 -21.5t-4 -22.5t-3.5 -12.5l51 2q21 0 37 -11t24 -27t6.5 -33.5t-15.5 -29.5q-1 -1 -6.5 -4t-12.5 -8q-8 -5 -18 -11
q-17 -6 -49 -7t-64.5 3t-57.5 12t-27 20q1 8 3 10.5t5 7.5q8 0 11.5 -1t5.5 -2.5t4.5 -3.5t8.5 -4q6 -1 20 -1.5t29.5 -0.5h29.5h21q19 0 26.5 3.5t21.5 7.5q10 2 12 1.5t7 7.5q11 16 0.5 25.5t-27.5 14.5q-13 3 -24.5 2t-20.5 -4t-15 -6.5t-8 -3.5q-5 -2 -7 -1.5t-2.5 0
t-1.5 -2t-4 -6.5q-6 4 -5.5 3t-3.5 6z" />
    <glyph glyph-name="Egrave" unicode="&#xc8;" horiz-adv-x="462" 
d="M200 282q-17 -2 -27.5 -8t-27.5 -10q-12 -3 -28.5 -7t-34 -6.5t-34 -1t-28.5 9.5q-9 6 -15 20t-3 29q1 11 3.5 16.5t5 8.5t5.5 6t5 8q4 12 7 14.5t5.5 3t4.5 2.5t5 11q2 7 3.5 9.5t2.5 3.5t3 2t6 6q14 17 36 34.5t39 33.5q6 6 10 9t11 8q55 41 119 83t128 67
q20 8 32.5 12.5t24 7t25.5 3t38 0.5q10 -9 19.5 -18.5t10.5 -28.5q0 -15 -5 -29t-12.5 -26.5t-17 -23.5t-17.5 -20q-5 -7 -7.5 -11.5t-9.5 -9.5q-5 -4 -10 -6.5t-11 -7.5q-6 -6 -8 -10.5t-10 -10.5q-17 -13 -38 -29t-43.5 -29.5t-44.5 -21t-41 -3.5q0 9 1 13.5t4 7.5t7.5 5
t9.5 6q8 5 16 10.5t21 6.5l-27 -30l3 -2l13 7q30 17 58 39.5t51 46.5l53 58q3 5 4.5 9.5t5.5 9.5q3 5 6.5 7t6.5 9l7 31q-2 10 -13 11.5t-25 -2t-27.5 -8.5t-18.5 -7q-11 -4 -28.5 -13t-35.5 -19.5t-33.5 -21t-24.5 -17.5q-11 -9 -15.5 -11.5t-8 -4.5t-9.5 -6.5t-21 -19.5
q-8 -8 -15 -10.5t-14 -11.5q-3 -4 -3.5 -5.5t-1 -2.5t-2 -1.5t-6.5 -3.5q-11 -6 -18.5 -12t-14 -12t-13.5 -13.5t-16 -17.5q-7 -8 -13 -10.5t-15 -9.5q-6 -5 -16.5 -15t-20 -21.5t-17.5 -23t-10 -19.5q10 -1 27 2t35.5 7.5t34.5 9.5t25 8q36 16 58.5 20t34 1.5t15 -10.5
t3 -16.5t-4 -16t-5.5 -9.5l-50 -45q-10 -10 -24 -21t-25 -25q-10 -12 -25.5 -26.5l-31 -29t-27.5 -25.5t-15 -15q-5 -8 -8.5 -12.5t-7 -8.5t-8 -7.5t-10.5 -9.5q-5 -5 -6 -5.5t-5 -6.5q-10 -14 -17 -22.5t-12 -13.5l-8.5 -8.5t-6.5 -7.5l-21 -26q-6 -5 -8.5 -6.5t-4 -3
t-3.5 -5t-6 -11.5l-8.5 -17t-3.5 -19q15 0 37 7.5t44.5 18t42.5 21t32 17.5q17 9 35 18.5t34 20.5l164 109q5 3 7 3.5t5 2t7.5 4.5t14.5 11q23 20 48.5 33.5t49.5 30.5q9 7 15.5 11t20.5 -1q5 -16 -2 -22t-15 -14l-59 -45q-21 -13 -36 -23t-28 -20t-26.5 -20t-31.5 -22
l-96 -60q-11 -5 -10.5 -5.5t-7.5 -5.5l-186 -97q-21 -9 -43.5 -13t-38.5 2t-22 24t5 54q5 14 18 33.5t23 30.5q5 5 11.5 14t11.5 15q13 18 21.5 27.5t14.5 15.5l11.5 11.5t13.5 14.5q18 22 28.5 32t18.5 16.5t18.5 14.5t28.5 27q5 5 17 15t25 21t24 21t14 16zM433 820
q15 1 18.5 2t6.5 -1t9.5 -7.5t26.5 -16.5q12 -7 14 -8.5t4 -6.5q-6 -2 -6.5 -1.5t-8.5 2.5q8 -15 18.5 -31.5t16.5 -35.5q2 -6 0.5 -14.5t-9.5 -10.5q-6 -2 -9 2t-7.5 12.5t-13 20.5t-24.5 26q-8 7 -16.5 14t-14.5 15.5t-8 17.5t3 21z" />
    <glyph glyph-name="Eacute" unicode="&#xc9;" horiz-adv-x="462" 
d="M200 282q-17 -2 -27.5 -8t-27.5 -10q-12 -3 -28.5 -7t-34 -6.5t-34 -1t-28.5 9.5q-9 6 -15 20t-3 29q1 11 3.5 16.5t5 8.5t5.5 6t5 8q4 12 7 14.5t5.5 3t4.5 2.5t5 11q2 7 3.5 9.5t2.5 3.5t3 2t6 6q14 17 36 34.5t39 33.5q6 6 10 9t11 8q55 41 119 83t128 67
q20 8 32.5 12.5t24 7t25.5 3t38 0.5q10 -9 19.5 -18.5t10.5 -28.5q0 -15 -5 -29t-12.5 -26.5t-17 -23.5t-17.5 -20q-5 -7 -7.5 -11.5t-9.5 -9.5q-5 -4 -10 -6.5t-11 -7.5q-6 -6 -8 -10.5t-10 -10.5q-17 -13 -38 -29t-43.5 -29.5t-44.5 -21t-41 -3.5q0 9 1 13.5t4 7.5t7.5 5
t9.5 6q8 5 16 10.5t21 6.5l-27 -30l3 -2l13 7q30 17 58 39.5t51 46.5l53 58q3 5 4.5 9.5t5.5 9.5q3 5 6.5 7t6.5 9l7 31q-2 10 -13 11.5t-25 -2t-27.5 -8.5t-18.5 -7q-11 -4 -28.5 -13t-35.5 -19.5t-33.5 -21t-24.5 -17.5q-11 -9 -15.5 -11.5t-8 -4.5t-9.5 -6.5t-21 -19.5
q-8 -8 -15 -10.5t-14 -11.5q-3 -4 -3.5 -5.5t-1 -2.5t-2 -1.5t-6.5 -3.5q-11 -6 -18.5 -12t-14 -12t-13.5 -13.5t-16 -17.5q-7 -8 -13 -10.5t-15 -9.5q-6 -5 -16.5 -15t-20 -21.5t-17.5 -23t-10 -19.5q10 -1 27 2t35.5 7.5t34.5 9.5t25 8q36 16 58.5 20t34 1.5t15 -10.5
t3 -16.5t-4 -16t-5.5 -9.5l-50 -45q-10 -10 -24 -21t-25 -25q-10 -12 -25.5 -26.5l-31 -29t-27.5 -25.5t-15 -15q-5 -8 -8.5 -12.5t-7 -8.5t-8 -7.5t-10.5 -9.5q-5 -5 -6 -5.5t-5 -6.5q-10 -14 -17 -22.5t-12 -13.5l-8.5 -8.5t-6.5 -7.5l-21 -26q-6 -5 -8.5 -6.5t-4 -3
t-3.5 -5t-6 -11.5l-8.5 -17t-3.5 -19q15 0 37 7.5t44.5 18t42.5 21t32 17.5q17 9 35 18.5t34 20.5l164 109q5 3 7 3.5t5 2t7.5 4.5t14.5 11q23 20 48.5 33.5t49.5 30.5q9 7 15.5 11t20.5 -1q5 -16 -2 -22t-15 -14l-59 -45q-21 -13 -36 -23t-28 -20t-26.5 -20t-31.5 -22
l-96 -60q-11 -5 -10.5 -5.5t-7.5 -5.5l-186 -97q-21 -9 -43.5 -13t-38.5 2t-22 24t5 54q5 14 18 33.5t23 30.5q5 5 11.5 14t11.5 15q13 18 21.5 27.5t14.5 15.5l11.5 11.5t13.5 14.5q18 22 28.5 32t18.5 16.5t18.5 14.5t28.5 27q5 5 17 15t25 21t24 21t14 16zM473 702
q-3 11 0.5 23t9.5 23t13 21t12 18q5 7 11.5 18t14.5 20t18.5 13t22.5 -5q7 -10 -1 -22.5t-23 -28.5t-31.5 -36t-26.5 -45l-20 1v0z" />
    <glyph glyph-name="Ecircumflex" unicode="&#xca;" horiz-adv-x="462" 
d="M200 282q-17 -2 -27.5 -8t-27.5 -10q-12 -3 -28.5 -7t-34 -6.5t-34 -1t-28.5 9.5q-9 6 -15 20t-3 29q1 11 3.5 16.5t5 8.5t5.5 6t5 8q4 12 7 14.5t5.5 3t4.5 2.5t5 11q2 7 3.5 9.5t2.5 3.5t3 2t6 6q14 17 36 34.5t39 33.5q6 6 10 9t11 8q55 41 119 83t128 67
q20 8 32.5 12.5t24 7t25.5 3t38 0.5q10 -9 19.5 -18.5t10.5 -28.5q0 -15 -5 -29t-12.5 -26.5t-17 -23.5t-17.5 -20q-5 -7 -7.5 -11.5t-9.5 -9.5q-5 -4 -10 -6.5t-11 -7.5q-6 -6 -8 -10.5t-10 -10.5q-17 -13 -38 -29t-43.5 -29.5t-44.5 -21t-41 -3.5q0 9 1 13.5t4 7.5t7.5 5
t9.5 6q8 5 16 10.5t21 6.5l-27 -30l3 -2l13 7q30 17 58 39.5t51 46.5l53 58q3 5 4.5 9.5t5.5 9.5q3 5 6.5 7t6.5 9l7 31q-2 10 -13 11.5t-25 -2t-27.5 -8.5t-18.5 -7q-11 -4 -28.5 -13t-35.5 -19.5t-33.5 -21t-24.5 -17.5q-11 -9 -15.5 -11.5t-8 -4.5t-9.5 -6.5t-21 -19.5
q-8 -8 -15 -10.5t-14 -11.5q-3 -4 -3.5 -5.5t-1 -2.5t-2 -1.5t-6.5 -3.5q-11 -6 -18.5 -12t-14 -12t-13.5 -13.5t-16 -17.5q-7 -8 -13 -10.5t-15 -9.5q-6 -5 -16.5 -15t-20 -21.5t-17.5 -23t-10 -19.5q10 -1 27 2t35.5 7.5t34.5 9.5t25 8q36 16 58.5 20t34 1.5t15 -10.5
t3 -16.5t-4 -16t-5.5 -9.5l-50 -45q-10 -10 -24 -21t-25 -25q-10 -12 -25.5 -26.5l-31 -29t-27.5 -25.5t-15 -15q-5 -8 -8.5 -12.5t-7 -8.5t-8 -7.5t-10.5 -9.5q-5 -5 -6 -5.5t-5 -6.5q-10 -14 -17 -22.5t-12 -13.5l-8.5 -8.5t-6.5 -7.5l-21 -26q-6 -5 -8.5 -6.5t-4 -3
t-3.5 -5t-6 -11.5l-8.5 -17t-3.5 -19q15 0 37 7.5t44.5 18t42.5 21t32 17.5q17 9 35 18.5t34 20.5l164 109q5 3 7 3.5t5 2t7.5 4.5t14.5 11q23 20 48.5 33.5t49.5 30.5q9 7 15.5 11t20.5 -1q5 -16 -2 -22t-15 -14l-59 -45q-21 -13 -36 -23t-28 -20t-26.5 -20t-31.5 -22
l-96 -60q-11 -5 -10.5 -5.5t-7.5 -5.5l-186 -97q-21 -9 -43.5 -13t-38.5 2t-22 24t5 54q5 14 18 33.5t23 30.5q5 5 11.5 14t11.5 15q13 18 21.5 27.5t14.5 15.5l11.5 11.5t13.5 14.5q18 22 28.5 32t18.5 16.5t18.5 14.5t28.5 27q5 5 17 15t25 21t24 21t14 16zM379 732
q-2 5 -1 7t3 5q7 7 18.5 14.5t20.5 13.5q3 2 4 3.5t4 3.5q3 3 4.5 3t5.5 3l43 37q8 8 15 18t20 12q7 0 13.5 -3t7.5 -8q2 -9 2 -17.5t1 -17.5t3.5 -20t10.5 -25q2 -4 4 -5t4 -4l4 -11q3 -6 4.5 -8.5t3 -4l2.5 -2.5t3 -4q1 -2 4 -8.5t6.5 -13.5t6 -13.5t2.5 -7.5
q-2 -4 -1.5 -3.5t-3.5 -4.5q-8 0 -12 2.5t-7 6.5t-5.5 8t-7.5 8q-8 5 -12.5 13t-10.5 16q-4 5 -9 16t-9.5 23t-8.5 22.5t-6 13.5q-8 -1 -16.5 -8.5t-14.5 -12.5q-9 -6 -20.5 -14.5t-24.5 -16t-26 -12.5t-24 -4z" />
    <glyph glyph-name="Edieresis" unicode="&#xcb;" horiz-adv-x="462" 
d="M200 282q-17 -2 -27.5 -8t-27.5 -10q-12 -3 -28.5 -7t-34 -6.5t-34 -1t-28.5 9.5q-9 6 -15 20t-3 29q1 11 3.5 16.5t5 8.5t5.5 6t5 8q4 12 7 14.5t5.5 3t4.5 2.5t5 11q2 7 3.5 9.5t2.5 3.5t3 2t6 6q14 17 36 34.5t39 33.5q6 6 10 9t11 8q55 41 119 83t128 67
q20 8 32.5 12.5t24 7t25.5 3t38 0.5q10 -9 19.5 -18.5t10.5 -28.5q0 -15 -5 -29t-12.5 -26.5t-17 -23.5t-17.5 -20q-5 -7 -7.5 -11.5t-9.5 -9.5q-5 -4 -10 -6.5t-11 -7.5q-6 -6 -8 -10.5t-10 -10.5q-17 -13 -38 -29t-43.5 -29.5t-44.5 -21t-41 -3.5q0 9 1 13.5t4 7.5t7.5 5
t9.5 6q8 5 16 10.5t21 6.5l-27 -30l3 -2l13 7q30 17 58 39.5t51 46.5l53 58q3 5 4.5 9.5t5.5 9.5q3 5 6.5 7t6.5 9l7 31q-2 10 -13 11.5t-25 -2t-27.5 -8.5t-18.5 -7q-11 -4 -28.5 -13t-35.5 -19.5t-33.5 -21t-24.5 -17.5q-11 -9 -15.5 -11.5t-8 -4.5t-9.5 -6.5t-21 -19.5
q-8 -8 -15 -10.5t-14 -11.5q-3 -4 -3.5 -5.5t-1 -2.5t-2 -1.5t-6.5 -3.5q-11 -6 -18.5 -12t-14 -12t-13.5 -13.5t-16 -17.5q-7 -8 -13 -10.5t-15 -9.5q-6 -5 -16.5 -15t-20 -21.5t-17.5 -23t-10 -19.5q10 -1 27 2t35.5 7.5t34.5 9.5t25 8q36 16 58.5 20t34 1.5t15 -10.5
t3 -16.5t-4 -16t-5.5 -9.5l-50 -45q-10 -10 -24 -21t-25 -25q-10 -12 -25.5 -26.5l-31 -29t-27.5 -25.5t-15 -15q-5 -8 -8.5 -12.5t-7 -8.5t-8 -7.5t-10.5 -9.5q-5 -5 -6 -5.5t-5 -6.5q-10 -14 -17 -22.5t-12 -13.5l-8.5 -8.5t-6.5 -7.5l-21 -26q-6 -5 -8.5 -6.5t-4 -3
t-3.5 -5t-6 -11.5l-8.5 -17t-3.5 -19q15 0 37 7.5t44.5 18t42.5 21t32 17.5q17 9 35 18.5t34 20.5l164 109q5 3 7 3.5t5 2t7.5 4.5t14.5 11q23 20 48.5 33.5t49.5 30.5q9 7 15.5 11t20.5 -1q5 -16 -2 -22t-15 -14l-59 -45q-21 -13 -36 -23t-28 -20t-26.5 -20t-31.5 -22
l-96 -60q-11 -5 -10.5 -5.5t-7.5 -5.5l-186 -97q-21 -9 -43.5 -13t-38.5 2t-22 24t5 54q5 14 18 33.5t23 30.5q5 5 11.5 14t11.5 15q13 18 21.5 27.5t14.5 15.5l11.5 11.5t13.5 14.5q18 22 28.5 32t18.5 16.5t18.5 14.5t28.5 27q5 5 17 15t25 21t24 21t14 16zM554 775
q21 4 28 -5t4.5 -22.5t-12 -27t-21.5 -16.5q-18 -5 -28.5 6.5t-9.5 28.5q2 19 12 25.5t27 10.5zM463 775q21 4 28 -5t4.5 -22.5t-12 -27t-21.5 -16.5q-18 -5 -28.5 6.5t-9.5 28.5q2 19 12 25.5t27 10.5z" />
    <glyph glyph-name="Igrave" unicode="&#xcc;" horiz-adv-x="248" 
d="M-1 511q1 6 2 8.5t3 3.5t5.5 2t8.5 3l54 22q33 10 71.5 22t73.5 14q6 0 27 2t48 2.5t56.5 -1t52.5 -7.5t34 -17t3 -30q-8 2 -14 6t-14.5 8.5t-22.5 8t-39 3.5q-9 0 -26 1t-35 0t-32.5 -4t-18.5 -10l-19 -63q-5 -18 -10.5 -37.5t-11.5 -36.5q-8 -21 -19.5 -52.5
t-16.5 -54.5q-2 -8 -6 -14.5t-8 -15.5l-25 -71q-4 -21 -7.5 -30t-7 -13.5t-5.5 -8.5t-3 -16t-1.5 -17.5t-1 -7.5t-2 -4.5t-5.5 -8.5q-5 -9 -5 -20t-3 -21q-1 -5 -2 -6t-1.5 -2t-1 -3t-1.5 -9q-2 -8 -2 -8.5t-2 -8.5q-2 -9 -3.5 -19.5t-0.5 -20.5l102 18q12 1 27 2.5t28 0
t22 -7.5t10 -19q-5 -7 -6 -8t-9 -5q-8 6 -13 8t-10.5 1.5t-14.5 -2.5t-25 -4l-136 -29l-140 -54l-8 -5l-3 -10l-22 2q-4 8 3.5 18t22.5 20.5t34.5 20t37.5 17t33 13t22 7.5q-3 30 -3 41t0.5 16t2 10t2.5 22q0 7 0.5 11t1 7t1.5 7l3 12q3 12 3.5 22t2.5 19t7.5 17t7.5 19
q1 7 2 11.5t1.5 8t1.5 7.5t4 11q6 13 12 33.5t13 41.5t13 40t12 30l15 32q2 7 1 10t4 11t16 29.5t22.5 45.5t19.5 45t8 28q-20 -7 -49 -13t-52 -11q-18 -4 -32.5 -8.5t-26 -7.5t-20.5 -3.5t-15 4.5zM220 785q15 1 18.5 2t6.5 -1t9.5 -7.5t26.5 -16.5q12 -7 14 -8.5t4 -6.5
q-6 -2 -6.5 -1.5t-8.5 2.5q8 -15 18.5 -31.5t16.5 -35.5q2 -6 0.5 -14.5t-9.5 -10.5q-6 -2 -9 2t-7.5 12.5t-13 20.5t-24.5 26q-8 7 -16.5 14t-14.5 15.5t-8 17.5t3 21z" />
    <glyph glyph-name="Iacute" unicode="&#xcd;" horiz-adv-x="248" 
d="M-1 511q1 6 2 8.5t3 3.5t5.5 2t8.5 3l54 22q33 10 71.5 22t73.5 14q6 0 27 2t48 2.5t56.5 -1t52.5 -7.5t34 -17t3 -30q-8 2 -14 6t-14.5 8.5t-22.5 8t-39 3.5q-9 0 -26 1t-35 0t-32.5 -4t-18.5 -10l-19 -63q-5 -18 -10.5 -37.5t-11.5 -36.5q-8 -21 -19.5 -52.5
t-16.5 -54.5q-2 -8 -6 -14.5t-8 -15.5l-25 -71q-4 -21 -7.5 -30t-7 -13.5t-5.5 -8.5t-3 -16t-1.5 -17.5t-1 -7.5t-2 -4.5t-5.5 -8.5q-5 -9 -5 -20t-3 -21q-1 -5 -2 -6t-1.5 -2t-1 -3t-1.5 -9q-2 -8 -2 -8.5t-2 -8.5q-2 -9 -3.5 -19.5t-0.5 -20.5l102 18q12 1 27 2.5t28 0
t22 -7.5t10 -19q-5 -7 -6 -8t-9 -5q-8 6 -13 8t-10.5 1.5t-14.5 -2.5t-25 -4l-136 -29l-140 -54l-8 -5l-3 -10l-22 2q-4 8 3.5 18t22.5 20.5t34.5 20t37.5 17t33 13t22 7.5q-3 30 -3 41t0.5 16t2 10t2.5 22q0 7 0.5 11t1 7t1.5 7l3 12q3 12 3.5 22t2.5 19t7.5 17t7.5 19
q1 7 2 11.5t1.5 8t1.5 7.5t4 11q6 13 12 33.5t13 41.5t13 40t12 30l15 32q2 7 1 10t4 11t16 29.5t22.5 45.5t19.5 45t8 28q-20 -7 -49 -13t-52 -11q-18 -4 -32.5 -8.5t-26 -7.5t-20.5 -3.5t-15 4.5zM221 647q-3 11 0.5 23t9.5 23t13 21t12 18q5 7 11.5 18t14.5 20t18.5 13
t22.5 -5q7 -10 -1 -22.5t-23 -28.5t-31.5 -36t-26.5 -45l-20 1v0z" />
    <glyph glyph-name="Icircumflex" unicode="&#xce;" horiz-adv-x="248" 
d="M-1 511q1 6 2 8.5t3 3.5t5.5 2t8.5 3l54 22q33 10 71.5 22t73.5 14q6 0 27 2t48 2.5t56.5 -1t52.5 -7.5t34 -17t3 -30q-8 2 -14 6t-14.5 8.5t-22.5 8t-39 3.5q-9 0 -26 1t-35 0t-32.5 -4t-18.5 -10l-19 -63q-5 -18 -10.5 -37.5t-11.5 -36.5q-8 -21 -19.5 -52.5
t-16.5 -54.5q-2 -8 -6 -14.5t-8 -15.5l-25 -71q-4 -21 -7.5 -30t-7 -13.5t-5.5 -8.5t-3 -16t-1.5 -17.5t-1 -7.5t-2 -4.5t-5.5 -8.5q-5 -9 -5 -20t-3 -21q-1 -5 -2 -6t-1.5 -2t-1 -3t-1.5 -9q-2 -8 -2 -8.5t-2 -8.5q-2 -9 -3.5 -19.5t-0.5 -20.5l102 18q12 1 27 2.5t28 0
t22 -7.5t10 -19q-5 -7 -6 -8t-9 -5q-8 6 -13 8t-10.5 1.5t-14.5 -2.5t-25 -4l-136 -29l-140 -54l-8 -5l-3 -10l-22 2q-4 8 3.5 18t22.5 20.5t34.5 20t37.5 17t33 13t22 7.5q-3 30 -3 41t0.5 16t2 10t2.5 22q0 7 0.5 11t1 7t1.5 7l3 12q3 12 3.5 22t2.5 19t7.5 17t7.5 19
q1 7 2 11.5t1.5 8t1.5 7.5t4 11q6 13 12 33.5t13 41.5t13 40t12 30l15 32q2 7 1 10t4 11t16 29.5t22.5 45.5t19.5 45t8 28q-20 -7 -49 -13t-52 -11q-18 -4 -32.5 -8.5t-26 -7.5t-20.5 -3.5t-15 4.5zM161 694q-2 5 -1 7t3 5q7 7 18.5 14.5t20.5 13.5q3 2 4 3.5t4 3.5
q3 3 4.5 3t5.5 3l43 37q8 8 15 18t20 12q7 0 13.5 -3t7.5 -8q2 -9 2 -17.5t1 -17.5t3.5 -20t10.5 -25q2 -4 4 -5t4 -4l4 -11q3 -6 4.5 -8.5t3 -4l2.5 -2.5t3 -4q1 -2 4 -8.5t6.5 -13.5t6 -13.5t2.5 -7.5q-2 -4 -1.5 -3.5t-3.5 -4.5q-8 0 -12 2.5t-7 6.5t-5.5 8t-7.5 8
q-8 5 -12.5 13t-10.5 16q-4 5 -9 16t-9.5 23t-8.5 22.5t-6 13.5q-8 -1 -16.5 -8.5t-14.5 -12.5q-9 -6 -20.5 -14.5t-24.5 -16t-26 -12.5t-24 -4z" />
    <glyph glyph-name="Idieresis" unicode="&#xcf;" horiz-adv-x="248" 
d="M-1 511q1 6 2 8.5t3 3.5t5.5 2t8.5 3l54 22q33 10 71.5 22t73.5 14q6 0 27 2t48 2.5t56.5 -1t52.5 -7.5t34 -17t3 -30q-8 2 -14 6t-14.5 8.5t-22.5 8t-39 3.5q-9 0 -26 1t-35 0t-32.5 -4t-18.5 -10l-19 -63q-5 -18 -10.5 -37.5t-11.5 -36.5q-8 -21 -19.5 -52.5
t-16.5 -54.5q-2 -8 -6 -14.5t-8 -15.5l-25 -71q-4 -21 -7.5 -30t-7 -13.5t-5.5 -8.5t-3 -16t-1.5 -17.5t-1 -7.5t-2 -4.5t-5.5 -8.5q-5 -9 -5 -20t-3 -21q-1 -5 -2 -6t-1.5 -2t-1 -3t-1.5 -9q-2 -8 -2 -8.5t-2 -8.5q-2 -9 -3.5 -19.5t-0.5 -20.5l102 18q12 1 27 2.5t28 0
t22 -7.5t10 -19q-5 -7 -6 -8t-9 -5q-8 6 -13 8t-10.5 1.5t-14.5 -2.5t-25 -4l-136 -29l-140 -54l-8 -5l-3 -10l-22 2q-4 8 3.5 18t22.5 20.5t34.5 20t37.5 17t33 13t22 7.5q-3 30 -3 41t0.5 16t2 10t2.5 22q0 7 0.5 11t1 7t1.5 7l3 12q3 12 3.5 22t2.5 19t7.5 17t7.5 19
q1 7 2 11.5t1.5 8t1.5 7.5t4 11q6 13 12 33.5t13 41.5t13 40t12 30l15 32q2 7 1 10t4 11t16 29.5t22.5 45.5t19.5 45t8 28q-20 -7 -49 -13t-52 -11q-18 -4 -32.5 -8.5t-26 -7.5t-20.5 -3.5t-15 4.5zM315 729q21 4 28 -5t4.5 -22.5t-12 -27t-21.5 -16.5q-18 -5 -28.5 6.5
t-9.5 28.5q2 19 12 25.5t27 10.5zM224 729q21 4 28 -5t4.5 -22.5t-12 -27t-21.5 -16.5q-18 -5 -28.5 6.5t-9.5 28.5q2 19 12 25.5t27 10.5z" />
    </font>
</defs>
</svg>
